<svg xmlns="http://www.w3.org/2000/svg" version="1.1" width="536" height="384">
<rect width="536" height="384" style="fill:black"/>
<rect x="0" y="0" width="7" height="7" style="fill:white"/>
<rect x="8" y="0" width="7" height="7" style="fill:white"/>
<rect x="16" y="0" width="7" height="7" style="fill:white"/>
<rect x="24" y="0" width="7" height="7" style="fill:white"/>
<rect x="32" y="0" width="7" height="7" style="fill:white"/>
<rect x="40" y="0" width="7" height="7" style="fill:white"/>
<rect x="48" y="0" width="7" height="7" style="fill:white"/>
<rect x="56" y="0" width="7" height="7" style="fill:white"/>
<rect x="64" y="0" width="7" height="7" style="fill:white"/>
<rect x="72" y="0" width="7" height="7" style="fill:white"/>
<rect x="80" y="0" width="7" height="7" style="fill:white"/>
<rect x="88" y="0" width="7" height="7" style="fill:white"/>
<rect x="96" y="0" width="7" height="7" style="fill:white"/>
<rect x="104" y="0" width="7" height="7" style="fill:white"/>
<rect x="112" y="0" width="7" height="7" style="fill:white"/>
<rect x="120" y="0" width="7" height="7" style="fill:white"/>
<rect x="128" y="0" width="7" height="7" style="fill:white"/>
<rect x="136" y="0" width="7" height="7" style="fill:white"/>
<rect x="144" y="0" width="7" height="7" style="fill:white"/>
<rect x="152" y="0" width="7" height="7" style="fill:white"/>
<rect x="160" y="0" width="7" height="7" style="fill:white"/>
<rect x="168" y="0" width="7" height="7" style="fill:white"/>
<rect x="176" y="0" width="7" height="7" style="fill:white"/>
<rect x="184" y="0" width="7" height="7" style="fill:white"/>
<rect x="192" y="0" width="7" height="7" style="fill:white"/>
<rect x="200" y="0" width="7" height="7" style="fill:white"/>
<rect x="208" y="0" width="7" height="7" style="fill:white"/>
<rect x="216" y="0" width="7" height="7" style="fill:white"/>
<rect x="224" y="0" width="7" height="7" style="fill:white"/>
<rect x="232" y="0" width="7" height="7" style="fill:white"/>
<rect x="240" y="0" width="7" height="7" style="fill:white"/>
<rect x="248" y="0" width="7" height="7" style="fill:white"/>
<rect x="256" y="0" width="7" height="7" style="fill:white"/>
<rect x="264" y="0" width="7" height="7" style="fill:white"/>
<rect x="272" y="0" width="7" height="7" style="fill:white"/>
<rect x="280" y="0" width="7" height="7" style="fill:white"/>
<rect x="288" y="0" width="7" height="7" style="fill:white"/>
<rect x="296" y="0" width="7" height="7" style="fill:white"/>
<rect x="304" y="0" width="7" height="7" style="fill:white"/>
<rect x="312" y="0" width="7" height="7" style="fill:white"/>
<rect x="320" y="0" width="7" height="7" style="fill:white"/>
<rect x="328" y="0" width="7" height="7" style="fill:white"/>
<rect x="336" y="0" width="7" height="7" style="fill:white"/>
<rect x="344" y="0" width="7" height="7" style="fill:white"/>
<rect x="352" y="0" width="7" height="7" style="fill:white"/>
<rect x="360" y="0" width="7" height="7" style="fill:white"/>
<rect x="368" y="0" width="7" height="7" style="fill:white"/>
<rect x="376" y="0" width="7" height="7" style="fill:white"/>
<rect x="384" y="0" width="7" height="7" style="fill:white"/>
<rect x="392" y="0" width="7" height="7" style="fill:white"/>
<rect x="400" y="0" width="7" height="7" style="fill:white"/>
<rect x="408" y="0" width="7" height="7" style="fill:white"/>
<rect x="416" y="0" width="7" height="7" style="fill:white"/>
<rect x="424" y="0" width="7" height="7" style="fill:white"/>
<rect x="432" y="0" width="7" height="7" style="fill:white"/>
<rect x="440" y="0" width="7" height="7" style="fill:white"/>
<rect x="448" y="0" width="7" height="7" style="fill:white"/>
<rect x="456" y="0" width="7" height="7" style="fill:white"/>
<rect x="464" y="0" width="7" height="7" style="fill:white"/>
<rect x="472" y="0" width="7" height="7" style="fill:white"/>
<rect x="480" y="0" width="7" height="7" style="fill:white"/>
<rect x="488" y="0" width="7" height="7" style="fill:white"/>
<rect x="496" y="0" width="7" height="7" style="fill:white"/>
<rect x="504" y="0" width="7" height="7" style="fill:white"/>
<rect x="512" y="0" width="7" height="7" style="fill:white"/>
<rect x="520" y="0" width="7" height="7" style="fill:white"/>
<rect x="528" y="0" width="7" height="7" style="fill:white"/>
<rect x="0" y="8" width="7" height="7" style="fill:white"/>
<rect x="528" y="8" width="7" height="7" style="fill:white"/>
<rect x="0" y="16" width="7" height="7" style="fill:white"/>
<rect x="16" y="16" width="7" height="7" style="fill:white"/>
<rect x="24" y="16" width="7" height="7" style="fill:white"/>
<rect x="32" y="16" width="7" height="7" style="fill:white"/>
<rect x="40" y="16" width="7" height="7" style="fill:white"/>
<rect x="528" y="16" width="7" height="7" style="fill:white"/>
<rect x="0" y="24" width="7" height="7" style="fill:white"/>
<rect x="16" y="24" width="7" height="7" style="fill:white"/>
<rect x="32" y="24" width="7" height="7" style="fill:white"/>
<rect x="528" y="24" width="7" height="7" style="fill:white"/>
<rect x="0" y="32" width="7" height="7" style="fill:white"/>
<rect x="16" y="32" width="7" height="7" style="fill:white"/>
<rect x="32" y="32" width="7" height="7" style="fill:white"/>
<rect x="528" y="32" width="7" height="7" style="fill:white"/>
<rect x="0" y="40" width="7" height="7" style="fill:white"/>
<rect x="16" y="40" width="7" height="7" style="fill:white"/>
<rect x="32" y="40" width="7" height="7" style="fill:white"/>
<rect x="528" y="40" width="7" height="7" style="fill:white"/>
<rect x="0" y="48" width="7" height="7" style="fill:white"/>
<rect x="528" y="48" width="7" height="7" style="fill:white"/>
<rect x="0" y="56" width="7" height="7" style="fill:white"/>
<rect x="528" y="56" width="7" height="7" style="fill:white"/>
<rect x="0" y="64" width="7" height="7" style="fill:white"/>
<rect x="16" y="64" width="7" height="7" style="fill:white"/>
<rect x="24" y="64" width="7" height="7" style="fill:white"/>
<rect x="48" y="64" width="7" height="7" style="fill:white"/>
<rect x="56" y="64" width="7" height="7" style="fill:white"/>
<rect x="80" y="64" width="7" height="7" style="fill:white"/>
<rect x="88" y="64" width="7" height="7" style="fill:white"/>
<rect x="96" y="64" width="7" height="7" style="fill:white"/>
<rect x="104" y="64" width="7" height="7" style="fill:white"/>
<rect x="136" y="64" width="7" height="7" style="fill:white"/>
<rect x="144" y="64" width="7" height="7" style="fill:white"/>
<rect x="176" y="64" width="7" height="7" style="fill:white"/>
<rect x="184" y="64" width="7" height="7" style="fill:white"/>
<rect x="240" y="64" width="7" height="7" style="fill:white"/>
<rect x="248" y="64" width="7" height="7" style="fill:white"/>
<rect x="256" y="64" width="7" height="7" style="fill:white"/>
<rect x="320" y="64" width="7" height="7" style="fill:white"/>
<rect x="328" y="64" width="7" height="7" style="fill:white"/>
<rect x="528" y="64" width="7" height="7" style="fill:white"/>
<rect x="0" y="72" width="7" height="7" style="fill:white"/>
<rect x="16" y="72" width="7" height="7" style="fill:white"/>
<rect x="48" y="72" width="7" height="7" style="fill:white"/>
<rect x="80" y="72" width="7" height="7" style="fill:white"/>
<rect x="96" y="72" width="7" height="7" style="fill:white"/>
<rect x="128" y="72" width="7" height="7" style="fill:white"/>
<rect x="168" y="72" width="7" height="7" style="fill:white"/>
<rect x="184" y="72" width="7" height="7" style="fill:white"/>
<rect x="240" y="72" width="7" height="7" style="fill:white"/>
<rect x="312" y="72" width="7" height="7" style="fill:white"/>
<rect x="528" y="72" width="7" height="7" style="fill:white"/>
<rect x="0" y="80" width="7" height="7" style="fill:white"/>
<rect x="80" y="80" width="7" height="7" style="fill:white"/>
<rect x="96" y="80" width="7" height="7" style="fill:white"/>
<rect x="128" y="80" width="7" height="7" style="fill:white"/>
<rect x="136" y="80" width="7" height="7" style="fill:white"/>
<rect x="168" y="80" width="7" height="7" style="fill:white"/>
<rect x="240" y="80" width="7" height="7" style="fill:white"/>
<rect x="248" y="80" width="7" height="7" style="fill:white"/>
<rect x="256" y="80" width="7" height="7" style="fill:white"/>
<rect x="312" y="80" width="7" height="7" style="fill:white"/>
<rect x="328" y="80" width="7" height="7" style="fill:white"/>
<rect x="528" y="80" width="7" height="7" style="fill:white"/>
<rect x="0" y="88" width="7" height="7" style="fill:white"/>
<rect x="80" y="88" width="7" height="7" style="fill:white"/>
<rect x="96" y="88" width="7" height="7" style="fill:white"/>
<rect x="528" y="88" width="7" height="7" style="fill:white"/>
<rect x="0" y="96" width="7" height="7" style="fill:white"/>
<rect x="528" y="96" width="7" height="7" style="fill:white"/>
<rect x="0" y="104" width="7" height="7" style="fill:white"/>
<rect x="528" y="104" width="7" height="7" style="fill:white"/>
<rect x="0" y="112" width="7" height="7" style="fill:white"/>
<rect x="16" y="112" width="7" height="7" style="fill:white"/>
<rect x="24" y="112" width="7" height="7" style="fill:white"/>
<rect x="48" y="112" width="7" height="7" style="fill:white"/>
<rect x="56" y="112" width="7" height="7" style="fill:white"/>
<rect x="80" y="112" width="7" height="7" style="fill:white"/>
<rect x="88" y="112" width="7" height="7" style="fill:white"/>
<rect x="96" y="112" width="7" height="7" style="fill:white"/>
<rect x="104" y="112" width="7" height="7" style="fill:white"/>
<rect x="136" y="112" width="7" height="7" style="fill:white"/>
<rect x="144" y="112" width="7" height="7" style="fill:white"/>
<rect x="176" y="112" width="7" height="7" style="fill:white"/>
<rect x="184" y="112" width="7" height="7" style="fill:white"/>
<rect x="240" y="112" width="7" height="7" style="fill:white"/>
<rect x="248" y="112" width="7" height="7" style="fill:white"/>
<rect x="256" y="112" width="7" height="7" style="fill:white"/>
<rect x="320" y="112" width="7" height="7" style="fill:white"/>
<rect x="328" y="112" width="7" height="7" style="fill:white"/>
<rect x="528" y="112" width="7" height="7" style="fill:white"/>
<rect x="0" y="120" width="7" height="7" style="fill:white"/>
<rect x="16" y="120" width="7" height="7" style="fill:white"/>
<rect x="48" y="120" width="7" height="7" style="fill:white"/>
<rect x="80" y="120" width="7" height="7" style="fill:white"/>
<rect x="96" y="120" width="7" height="7" style="fill:white"/>
<rect x="128" y="120" width="7" height="7" style="fill:white"/>
<rect x="136" y="120" width="7" height="7" style="fill:white"/>
<rect x="144" y="120" width="7" height="7" style="fill:white"/>
<rect x="168" y="120" width="7" height="7" style="fill:white"/>
<rect x="240" y="120" width="7" height="7" style="fill:white"/>
<rect x="312" y="120" width="7" height="7" style="fill:white"/>
<rect x="528" y="120" width="7" height="7" style="fill:white"/>
<rect x="0" y="128" width="7" height="7" style="fill:white"/>
<rect x="80" y="128" width="7" height="7" style="fill:white"/>
<rect x="96" y="128" width="7" height="7" style="fill:white"/>
<rect x="128" y="128" width="7" height="7" style="fill:white"/>
<rect x="168" y="128" width="7" height="7" style="fill:white"/>
<rect x="176" y="128" width="7" height="7" style="fill:white"/>
<rect x="240" y="128" width="7" height="7" style="fill:white"/>
<rect x="248" y="128" width="7" height="7" style="fill:white"/>
<rect x="256" y="128" width="7" height="7" style="fill:white"/>
<rect x="312" y="128" width="7" height="7" style="fill:white"/>
<rect x="320" y="128" width="7" height="7" style="fill:white"/>
<rect x="328" y="128" width="7" height="7" style="fill:white"/>
<rect x="528" y="128" width="7" height="7" style="fill:white"/>
<rect x="0" y="136" width="7" height="7" style="fill:white"/>
<rect x="80" y="136" width="7" height="7" style="fill:white"/>
<rect x="96" y="136" width="7" height="7" style="fill:white"/>
<rect x="528" y="136" width="7" height="7" style="fill:white"/>
<rect x="0" y="144" width="7" height="7" style="fill:white"/>
<rect x="528" y="144" width="7" height="7" style="fill:white"/>
<rect x="0" y="152" width="7" height="7" style="fill:white"/>
<rect x="528" y="152" width="7" height="7" style="fill:white"/>
<rect x="0" y="160" width="7" height="7" style="fill:white"/>
<rect x="16" y="160" width="7" height="7" style="fill:white"/>
<rect x="24" y="160" width="7" height="7" style="fill:white"/>
<rect x="48" y="160" width="7" height="7" style="fill:white"/>
<rect x="56" y="160" width="7" height="7" style="fill:white"/>
<rect x="80" y="160" width="7" height="7" style="fill:white"/>
<rect x="88" y="160" width="7" height="7" style="fill:white"/>
<rect x="96" y="160" width="7" height="7" style="fill:white"/>
<rect x="104" y="160" width="7" height="7" style="fill:white"/>
<rect x="136" y="160" width="7" height="7" style="fill:white"/>
<rect x="144" y="160" width="7" height="7" style="fill:white"/>
<rect x="176" y="160" width="7" height="7" style="fill:white"/>
<rect x="184" y="160" width="7" height="7" style="fill:white"/>
<rect x="240" y="160" width="7" height="7" style="fill:white"/>
<rect x="248" y="160" width="7" height="7" style="fill:white"/>
<rect x="256" y="160" width="7" height="7" style="fill:white"/>
<rect x="320" y="160" width="7" height="7" style="fill:white"/>
<rect x="328" y="160" width="7" height="7" style="fill:white"/>
<rect x="528" y="160" width="7" height="7" style="fill:white"/>
<rect x="0" y="168" width="7" height="7" style="fill:white"/>
<rect x="16" y="168" width="7" height="7" style="fill:white"/>
<rect x="48" y="168" width="7" height="7" style="fill:white"/>
<rect x="80" y="168" width="7" height="7" style="fill:white"/>
<rect x="96" y="168" width="7" height="7" style="fill:white"/>
<rect x="128" y="168" width="7" height="7" style="fill:white"/>
<rect x="136" y="168" width="7" height="7" style="fill:white"/>
<rect x="144" y="168" width="7" height="7" style="fill:white"/>
<rect x="168" y="168" width="7" height="7" style="fill:white"/>
<rect x="184" y="168" width="7" height="7" style="fill:white"/>
<rect x="240" y="168" width="7" height="7" style="fill:white"/>
<rect x="312" y="168" width="7" height="7" style="fill:white"/>
<rect x="328" y="168" width="7" height="7" style="fill:white"/>
<rect x="528" y="168" width="7" height="7" style="fill:white"/>
<rect x="0" y="176" width="7" height="7" style="fill:white"/>
<rect x="80" y="176" width="7" height="7" style="fill:white"/>
<rect x="96" y="176" width="7" height="7" style="fill:white"/>
<rect x="128" y="176" width="7" height="7" style="fill:white"/>
<rect x="168" y="176" width="7" height="7" style="fill:white"/>
<rect x="240" y="176" width="7" height="7" style="fill:white"/>
<rect x="248" y="176" width="7" height="7" style="fill:white"/>
<rect x="256" y="176" width="7" height="7" style="fill:white"/>
<rect x="312" y="176" width="7" height="7" style="fill:white"/>
<rect x="320" y="176" width="7" height="7" style="fill:white"/>
<rect x="528" y="176" width="7" height="7" style="fill:white"/>
<rect x="0" y="184" width="7" height="7" style="fill:white"/>
<rect x="80" y="184" width="7" height="7" style="fill:white"/>
<rect x="96" y="184" width="7" height="7" style="fill:white"/>
<rect x="168" y="184" width="7" height="7" style="fill:white"/>
<rect x="312" y="184" width="7" height="7" style="fill:white"/>
<rect x="528" y="184" width="7" height="7" style="fill:white"/>
<rect x="0" y="192" width="7" height="7" style="fill:white"/>
<rect x="528" y="192" width="7" height="7" style="fill:white"/>
<rect x="0" y="200" width="7" height="7" style="fill:white"/>
<rect x="528" y="200" width="7" height="7" style="fill:white"/>
<rect x="0" y="208" width="7" height="7" style="fill:white"/>
<rect x="16" y="208" width="7" height="7" style="fill:white"/>
<rect x="24" y="208" width="7" height="7" style="fill:white"/>
<rect x="48" y="208" width="7" height="7" style="fill:white"/>
<rect x="56" y="208" width="7" height="7" style="fill:white"/>
<rect x="80" y="208" width="7" height="7" style="fill:white"/>
<rect x="88" y="208" width="7" height="7" style="fill:white"/>
<rect x="96" y="208" width="7" height="7" style="fill:white"/>
<rect x="104" y="208" width="7" height="7" style="fill:white"/>
<rect x="128" y="208" width="7" height="7" style="fill:white"/>
<rect x="136" y="208" width="7" height="7" style="fill:white"/>
<rect x="144" y="208" width="7" height="7" style="fill:white"/>
<rect x="152" y="208" width="7" height="7" style="fill:white"/>
<rect x="176" y="208" width="7" height="7" style="fill:white"/>
<rect x="184" y="208" width="7" height="7" style="fill:white"/>
<rect x="192" y="208" width="7" height="7" style="fill:white"/>
<rect x="200" y="208" width="7" height="7" style="fill:white"/>
<rect x="256" y="208" width="7" height="7" style="fill:white"/>
<rect x="264" y="208" width="7" height="7" style="fill:white"/>
<rect x="272" y="208" width="7" height="7" style="fill:white"/>
<rect x="328" y="208" width="7" height="7" style="fill:white"/>
<rect x="336" y="208" width="7" height="7" style="fill:white"/>
<rect x="360" y="208" width="7" height="7" style="fill:white"/>
<rect x="368" y="208" width="7" height="7" style="fill:white"/>
<rect x="392" y="208" width="7" height="7" style="fill:white"/>
<rect x="400" y="208" width="7" height="7" style="fill:white"/>
<rect x="408" y="208" width="7" height="7" style="fill:white"/>
<rect x="416" y="208" width="7" height="7" style="fill:white"/>
<rect x="440" y="208" width="7" height="7" style="fill:white"/>
<rect x="448" y="208" width="7" height="7" style="fill:white"/>
<rect x="456" y="208" width="7" height="7" style="fill:white"/>
<rect x="464" y="208" width="7" height="7" style="fill:white"/>
<rect x="488" y="208" width="7" height="7" style="fill:white"/>
<rect x="496" y="208" width="7" height="7" style="fill:white"/>
<rect x="504" y="208" width="7" height="7" style="fill:white"/>
<rect x="512" y="208" width="7" height="7" style="fill:white"/>
<rect x="528" y="208" width="7" height="7" style="fill:white"/>
<rect x="0" y="216" width="7" height="7" style="fill:white"/>
<rect x="16" y="216" width="7" height="7" style="fill:white"/>
<rect x="48" y="216" width="7" height="7" style="fill:white"/>
<rect x="80" y="216" width="7" height="7" style="fill:white"/>
<rect x="96" y="216" width="7" height="7" style="fill:white"/>
<rect x="128" y="216" width="7" height="7" style="fill:white"/>
<rect x="136" y="216" width="7" height="7" style="fill:white"/>
<rect x="152" y="216" width="7" height="7" style="fill:white"/>
<rect x="176" y="216" width="7" height="7" style="fill:white"/>
<rect x="184" y="216" width="7" height="7" style="fill:white"/>
<rect x="200" y="216" width="7" height="7" style="fill:white"/>
<rect x="256" y="216" width="7" height="7" style="fill:white"/>
<rect x="328" y="216" width="7" height="7" style="fill:white"/>
<rect x="360" y="216" width="7" height="7" style="fill:white"/>
<rect x="392" y="216" width="7" height="7" style="fill:white"/>
<rect x="408" y="216" width="7" height="7" style="fill:white"/>
<rect x="440" y="216" width="7" height="7" style="fill:white"/>
<rect x="448" y="216" width="7" height="7" style="fill:white"/>
<rect x="464" y="216" width="7" height="7" style="fill:white"/>
<rect x="488" y="216" width="7" height="7" style="fill:white"/>
<rect x="496" y="216" width="7" height="7" style="fill:white"/>
<rect x="512" y="216" width="7" height="7" style="fill:white"/>
<rect x="528" y="216" width="7" height="7" style="fill:white"/>
<rect x="0" y="224" width="7" height="7" style="fill:white"/>
<rect x="80" y="224" width="7" height="7" style="fill:white"/>
<rect x="96" y="224" width="7" height="7" style="fill:white"/>
<rect x="128" y="224" width="7" height="7" style="fill:white"/>
<rect x="144" y="224" width="7" height="7" style="fill:white"/>
<rect x="152" y="224" width="7" height="7" style="fill:white"/>
<rect x="176" y="224" width="7" height="7" style="fill:white"/>
<rect x="200" y="224" width="7" height="7" style="fill:white"/>
<rect x="256" y="224" width="7" height="7" style="fill:white"/>
<rect x="264" y="224" width="7" height="7" style="fill:white"/>
<rect x="272" y="224" width="7" height="7" style="fill:white"/>
<rect x="392" y="224" width="7" height="7" style="fill:white"/>
<rect x="408" y="224" width="7" height="7" style="fill:white"/>
<rect x="440" y="224" width="7" height="7" style="fill:white"/>
<rect x="464" y="224" width="7" height="7" style="fill:white"/>
<rect x="488" y="224" width="7" height="7" style="fill:white"/>
<rect x="504" y="224" width="7" height="7" style="fill:white"/>
<rect x="512" y="224" width="7" height="7" style="fill:white"/>
<rect x="528" y="224" width="7" height="7" style="fill:white"/>
<rect x="0" y="232" width="7" height="7" style="fill:white"/>
<rect x="80" y="232" width="7" height="7" style="fill:white"/>
<rect x="96" y="232" width="7" height="7" style="fill:white"/>
<rect x="128" y="232" width="7" height="7" style="fill:white"/>
<rect x="136" y="232" width="7" height="7" style="fill:white"/>
<rect x="144" y="232" width="7" height="7" style="fill:white"/>
<rect x="152" y="232" width="7" height="7" style="fill:white"/>
<rect x="176" y="232" width="7" height="7" style="fill:white"/>
<rect x="184" y="232" width="7" height="7" style="fill:white"/>
<rect x="192" y="232" width="7" height="7" style="fill:white"/>
<rect x="200" y="232" width="7" height="7" style="fill:white"/>
<rect x="392" y="232" width="7" height="7" style="fill:white"/>
<rect x="408" y="232" width="7" height="7" style="fill:white"/>
<rect x="440" y="232" width="7" height="7" style="fill:white"/>
<rect x="448" y="232" width="7" height="7" style="fill:white"/>
<rect x="456" y="232" width="7" height="7" style="fill:white"/>
<rect x="464" y="232" width="7" height="7" style="fill:white"/>
<rect x="488" y="232" width="7" height="7" style="fill:white"/>
<rect x="496" y="232" width="7" height="7" style="fill:white"/>
<rect x="504" y="232" width="7" height="7" style="fill:white"/>
<rect x="512" y="232" width="7" height="7" style="fill:white"/>
<rect x="528" y="232" width="7" height="7" style="fill:white"/>
<rect x="0" y="240" width="7" height="7" style="fill:white"/>
<rect x="528" y="240" width="7" height="7" style="fill:white"/>
<rect x="0" y="248" width="7" height="7" style="fill:white"/>
<rect x="528" y="248" width="7" height="7" style="fill:white"/>
<rect x="0" y="256" width="7" height="7" style="fill:white"/>
<rect x="16" y="256" width="7" height="7" style="fill:white"/>
<rect x="24" y="256" width="7" height="7" style="fill:white"/>
<rect x="48" y="256" width="7" height="7" style="fill:white"/>
<rect x="56" y="256" width="7" height="7" style="fill:white"/>
<rect x="80" y="256" width="7" height="7" style="fill:white"/>
<rect x="88" y="256" width="7" height="7" style="fill:white"/>
<rect x="96" y="256" width="7" height="7" style="fill:white"/>
<rect x="104" y="256" width="7" height="7" style="fill:white"/>
<rect x="128" y="256" width="7" height="7" style="fill:white"/>
<rect x="136" y="256" width="7" height="7" style="fill:white"/>
<rect x="144" y="256" width="7" height="7" style="fill:white"/>
<rect x="152" y="256" width="7" height="7" style="fill:white"/>
<rect x="184" y="256" width="7" height="7" style="fill:white"/>
<rect x="240" y="256" width="7" height="7" style="fill:white"/>
<rect x="248" y="256" width="7" height="7" style="fill:white"/>
<rect x="256" y="256" width="7" height="7" style="fill:white"/>
<rect x="320" y="256" width="7" height="7" style="fill:white"/>
<rect x="528" y="256" width="7" height="7" style="fill:white"/>
<rect x="0" y="264" width="7" height="7" style="fill:white"/>
<rect x="16" y="264" width="7" height="7" style="fill:white"/>
<rect x="48" y="264" width="7" height="7" style="fill:white"/>
<rect x="80" y="264" width="7" height="7" style="fill:white"/>
<rect x="96" y="264" width="7" height="7" style="fill:white"/>
<rect x="128" y="264" width="7" height="7" style="fill:white"/>
<rect x="136" y="264" width="7" height="7" style="fill:white"/>
<rect x="152" y="264" width="7" height="7" style="fill:white"/>
<rect x="176" y="264" width="7" height="7" style="fill:white"/>
<rect x="240" y="264" width="7" height="7" style="fill:white"/>
<rect x="312" y="264" width="7" height="7" style="fill:white"/>
<rect x="528" y="264" width="7" height="7" style="fill:white"/>
<rect x="0" y="272" width="7" height="7" style="fill:white"/>
<rect x="80" y="272" width="7" height="7" style="fill:white"/>
<rect x="96" y="272" width="7" height="7" style="fill:white"/>
<rect x="128" y="272" width="7" height="7" style="fill:white"/>
<rect x="144" y="272" width="7" height="7" style="fill:white"/>
<rect x="152" y="272" width="7" height="7" style="fill:white"/>
<rect x="240" y="272" width="7" height="7" style="fill:white"/>
<rect x="248" y="272" width="7" height="7" style="fill:white"/>
<rect x="256" y="272" width="7" height="7" style="fill:white"/>
<rect x="528" y="272" width="7" height="7" style="fill:white"/>
<rect x="0" y="280" width="7" height="7" style="fill:white"/>
<rect x="80" y="280" width="7" height="7" style="fill:white"/>
<rect x="96" y="280" width="7" height="7" style="fill:white"/>
<rect x="128" y="280" width="7" height="7" style="fill:white"/>
<rect x="136" y="280" width="7" height="7" style="fill:white"/>
<rect x="144" y="280" width="7" height="7" style="fill:white"/>
<rect x="152" y="280" width="7" height="7" style="fill:white"/>
<rect x="528" y="280" width="7" height="7" style="fill:white"/>
<rect x="0" y="288" width="7" height="7" style="fill:white"/>
<rect x="528" y="288" width="7" height="7" style="fill:white"/>
<rect x="0" y="296" width="7" height="7" style="fill:white"/>
<rect x="528" y="296" width="7" height="7" style="fill:white"/>
<rect x="0" y="304" width="7" height="7" style="fill:white"/>
<rect x="16" y="304" width="7" height="7" style="fill:white"/>
<rect x="24" y="304" width="7" height="7" style="fill:white"/>
<rect x="48" y="304" width="7" height="7" style="fill:white"/>
<rect x="56" y="304" width="7" height="7" style="fill:white"/>
<rect x="80" y="304" width="7" height="7" style="fill:white"/>
<rect x="88" y="304" width="7" height="7" style="fill:white"/>
<rect x="96" y="304" width="7" height="7" style="fill:white"/>
<rect x="104" y="304" width="7" height="7" style="fill:white"/>
<rect x="128" y="304" width="7" height="7" style="fill:white"/>
<rect x="136" y="304" width="7" height="7" style="fill:white"/>
<rect x="144" y="304" width="7" height="7" style="fill:white"/>
<rect x="152" y="304" width="7" height="7" style="fill:white"/>
<rect x="184" y="304" width="7" height="7" style="fill:white"/>
<rect x="240" y="304" width="7" height="7" style="fill:white"/>
<rect x="248" y="304" width="7" height="7" style="fill:white"/>
<rect x="256" y="304" width="7" height="7" style="fill:white"/>
<rect x="312" y="304" width="7" height="7" style="fill:white"/>
<rect x="320" y="304" width="7" height="7" style="fill:white"/>
<rect x="328" y="304" width="7" height="7" style="fill:white"/>
<rect x="336" y="304" width="7" height="7" style="fill:white"/>
<rect x="528" y="304" width="7" height="7" style="fill:white"/>
<rect x="0" y="312" width="7" height="7" style="fill:white"/>
<rect x="16" y="312" width="7" height="7" style="fill:white"/>
<rect x="48" y="312" width="7" height="7" style="fill:white"/>
<rect x="80" y="312" width="7" height="7" style="fill:white"/>
<rect x="96" y="312" width="7" height="7" style="fill:white"/>
<rect x="128" y="312" width="7" height="7" style="fill:white"/>
<rect x="136" y="312" width="7" height="7" style="fill:white"/>
<rect x="152" y="312" width="7" height="7" style="fill:white"/>
<rect x="176" y="312" width="7" height="7" style="fill:white"/>
<rect x="184" y="312" width="7" height="7" style="fill:white"/>
<rect x="240" y="312" width="7" height="7" style="fill:white"/>
<rect x="312" y="312" width="7" height="7" style="fill:white"/>
<rect x="320" y="312" width="7" height="7" style="fill:white"/>
<rect x="336" y="312" width="7" height="7" style="fill:white"/>
<rect x="528" y="312" width="7" height="7" style="fill:white"/>
<rect x="0" y="320" width="7" height="7" style="fill:white"/>
<rect x="80" y="320" width="7" height="7" style="fill:white"/>
<rect x="96" y="320" width="7" height="7" style="fill:white"/>
<rect x="128" y="320" width="7" height="7" style="fill:white"/>
<rect x="144" y="320" width="7" height="7" style="fill:white"/>
<rect x="152" y="320" width="7" height="7" style="fill:white"/>
<rect x="240" y="320" width="7" height="7" style="fill:white"/>
<rect x="248" y="320" width="7" height="7" style="fill:white"/>
<rect x="256" y="320" width="7" height="7" style="fill:white"/>
<rect x="312" y="320" width="7" height="7" style="fill:white"/>
<rect x="328" y="320" width="7" height="7" style="fill:white"/>
<rect x="336" y="320" width="7" height="7" style="fill:white"/>
<rect x="528" y="320" width="7" height="7" style="fill:white"/>
<rect x="0" y="328" width="7" height="7" style="fill:white"/>
<rect x="80" y="328" width="7" height="7" style="fill:white"/>
<rect x="96" y="328" width="7" height="7" style="fill:white"/>
<rect x="128" y="328" width="7" height="7" style="fill:white"/>
<rect x="136" y="328" width="7" height="7" style="fill:white"/>
<rect x="144" y="328" width="7" height="7" style="fill:white"/>
<rect x="152" y="328" width="7" height="7" style="fill:white"/>
<rect x="312" y="328" width="7" height="7" style="fill:white"/>
<rect x="320" y="328" width="7" height="7" style="fill:white"/>
<rect x="328" y="328" width="7" height="7" style="fill:white"/>
<rect x="336" y="328" width="7" height="7" style="fill:white"/>
<rect x="528" y="328" width="7" height="7" style="fill:white"/>
<rect x="0" y="336" width="7" height="7" style="fill:white"/>
<rect x="528" y="336" width="7" height="7" style="fill:white"/>
<rect x="0" y="344" width="7" height="7" style="fill:white"/>
<rect x="528" y="344" width="7" height="7" style="fill:white"/>
<rect x="0" y="352" width="7" height="7" style="fill:white"/>
<rect x="528" y="352" width="7" height="7" style="fill:white"/>
<rect x="0" y="360" width="7" height="7" style="fill:white"/>
<rect x="16" y="360" width="7" height="7" style="fill:white"/>
<rect x="32" y="360" width="7" height="7" style="fill:white"/>
<rect x="48" y="360" width="7" height="7" style="fill:white"/>
<rect x="64" y="360" width="7" height="7" style="fill:white"/>
<rect x="528" y="360" width="7" height="7" style="fill:white"/>
<rect x="0" y="368" width="7" height="7" style="fill:white"/>
<rect x="528" y="368" width="7" height="7" style="fill:white"/>
<rect x="0" y="376" width="7" height="7" style="fill:white"/>
<rect x="8" y="376" width="7" height="7" style="fill:white"/>
<rect x="16" y="376" width="7" height="7" style="fill:white"/>
<rect x="24" y="376" width="7" height="7" style="fill:white"/>
<rect x="32" y="376" width="7" height="7" style="fill:white"/>
<rect x="40" y="376" width="7" height="7" style="fill:white"/>
<rect x="48" y="376" width="7" height="7" style="fill:white"/>
<rect x="56" y="376" width="7" height="7" style="fill:white"/>
<rect x="64" y="376" width="7" height="7" style="fill:white"/>
<rect x="72" y="376" width="7" height="7" style="fill:white"/>
<rect x="80" y="376" width="7" height="7" style="fill:white"/>
<rect x="88" y="376" width="7" height="7" style="fill:white"/>
<rect x="96" y="376" width="7" height="7" style="fill:white"/>
<rect x="104" y="376" width="7" height="7" style="fill:white"/>
<rect x="112" y="376" width="7" height="7" style="fill:white"/>
<rect x="120" y="376" width="7" height="7" style="fill:white"/>
<rect x="128" y="376" width="7" height="7" style="fill:white"/>
<rect x="136" y="376" width="7" height="7" style="fill:white"/>
<rect x="144" y="376" width="7" height="7" style="fill:white"/>
<rect x="152" y="376" width="7" height="7" style="fill:white"/>
<rect x="160" y="376" width="7" height="7" style="fill:white"/>
<rect x="168" y="376" width="7" height="7" style="fill:white"/>
<rect x="176" y="376" width="7" height="7" style="fill:white"/>
<rect x="184" y="376" width="7" height="7" style="fill:white"/>
<rect x="192" y="376" width="7" height="7" style="fill:white"/>
<rect x="200" y="376" width="7" height="7" style="fill:white"/>
<rect x="208" y="376" width="7" height="7" style="fill:white"/>
<rect x="216" y="376" width="7" height="7" style="fill:white"/>
<rect x="224" y="376" width="7" height="7" style="fill:white"/>
<rect x="232" y="376" width="7" height="7" style="fill:white"/>
<rect x="240" y="376" width="7" height="7" style="fill:white"/>
<rect x="248" y="376" width="7" height="7" style="fill:white"/>
<rect x="256" y="376" width="7" height="7" style="fill:white"/>
<rect x="264" y="376" width="7" height="7" style="fill:white"/>
<rect x="272" y="376" width="7" height="7" style="fill:white"/>
<rect x="280" y="376" width="7" height="7" style="fill:white"/>
<rect x="288" y="376" width="7" height="7" style="fill:white"/>
<rect x="296" y="376" width="7" height="7" style="fill:white"/>
<rect x="304" y="376" width="7" height="7" style="fill:white"/>
<rect x="312" y="376" width="7" height="7" style="fill:white"/>
<rect x="320" y="376" width="7" height="7" style="fill:white"/>
<rect x="328" y="376" width="7" height="7" style="fill:white"/>
<rect x="336" y="376" width="7" height="7" style="fill:white"/>
<rect x="344" y="376" width="7" height="7" style="fill:white"/>
<rect x="352" y="376" width="7" height="7" style="fill:white"/>
<rect x="360" y="376" width="7" height="7" style="fill:white"/>
<rect x="368" y="376" width="7" height="7" style="fill:white"/>
<rect x="376" y="376" width="7" height="7" style="fill:white"/>
<rect x="384" y="376" width="7" height="7" style="fill:white"/>
<rect x="392" y="376" width="7" height="7" style="fill:white"/>
<rect x="400" y="376" width="7" height="7" style="fill:white"/>
<rect x="408" y="376" width="7" height="7" style="fill:white"/>
<rect x="416" y="376" width="7" height="7" style="fill:white"/>
<rect x="424" y="376" width="7" height="7" style="fill:white"/>
<rect x="432" y="376" width="7" height="7" style="fill:white"/>
<rect x="440" y="376" width="7" height="7" style="fill:white"/>
<rect x="448" y="376" width="7" height="7" style="fill:white"/>
<rect x="456" y="376" width="7" height="7" style="fill:white"/>
<rect x="464" y="376" width="7" height="7" style="fill:white"/>
<rect x="472" y="376" width="7" height="7" style="fill:white"/>
<rect x="480" y="376" width="7" height="7" style="fill:white"/>
<rect x="488" y="376" width="7" height="7" style="fill:white"/>
<rect x="496" y="376" width="7" height="7" style="fill:white"/>
<rect x="504" y="376" width="7" height="7" style="fill:white"/>
<rect x="512" y="376" width="7" height="7" style="fill:white"/>
<rect x="520" y="376" width="7" height="7" style="fill:white"/>
<rect x="528" y="376" width="7" height="7" style="fill:white"/>
<rect x="124.0" y="60.0" width="32" height="32" style="fill:green;opacity:0.5"/>
<text x="140.0" y="76.0" dominant-baseline="middle" text-anchor="middle" fill="white" style="paint-order: stroke; fill: white; stroke: black; stroke-width: 2px; font:24px bold sans;">4</text>
<rect x="164.0" y="60.0" width="32" height="32" style="fill:green;opacity:0.5"/>
<text x="180.0" y="76.0" dominant-baseline="middle" text-anchor="middle" fill="white" style="paint-order: stroke; fill: white; stroke: black; stroke-width: 2px; font:24px bold sans;">2</text>
<rect x="308.0" y="60.0" width="32" height="32" style="fill:green;opacity:0.5"/>
<text x="324.0" y="76.0" dominant-baseline="middle" text-anchor="middle" fill="white" style="paint-order: stroke; fill: white; stroke: black; stroke-width: 2px; font:24px bold sans;">8</text>
<rect x="124.0" y="108.0" width="32" height="32" style="fill:green;opacity:0.5"/>
<text x="140.0" y="124.0" dominant-baseline="middle" text-anchor="middle" fill="white" style="paint-order: stroke; fill: white; stroke: black; stroke-width: 2px; font:24px bold sans;">3</text>
<rect x="164.0" y="108.0" width="32" height="32" style="fill:green;opacity:0.5"/>
<text x="180.0" y="124.0" dominant-baseline="middle" text-anchor="middle" fill="white" style="paint-order: stroke; fill: white; stroke: black; stroke-width: 2px; font:24px bold sans;">4</text>
<rect x="308.0" y="108.0" width="32" height="32" style="fill:green;opacity:0.5"/>
<text x="324.0" y="124.0" dominant-baseline="middle" text-anchor="middle" fill="white" style="paint-order: stroke; fill: white; stroke: black; stroke-width: 2px; font:24px bold sans;">12</text>
<rect x="124.0" y="156.0" width="32" height="32" style="fill:green;opacity:0.5"/>
<text x="140.0" y="172.0" dominant-baseline="middle" text-anchor="middle" fill="white" style="paint-order: stroke; fill: white; stroke: black; stroke-width: 2px; font:24px bold sans;">3</text>
<rect x="164.0" y="156.0" width="32" height="40" style="fill:green;opacity:0.5"/>
<text x="180.0" y="176.0" dominant-baseline="middle" text-anchor="middle" fill="white" style="paint-order: stroke; fill: white; stroke: black; stroke-width: 2px; font:24px bold sans;">-2</text>
<rect x="308.0" y="156.0" width="32" height="40" style="fill:green;opacity:0.5"/>
<text x="324.0" y="176.0" dominant-baseline="middle" text-anchor="middle" fill="white" style="paint-order: stroke; fill: white; stroke: black; stroke-width: 2px; font:24px bold sans;">-6</text>
<rect x="172.0" y="252.0" width="24" height="24" style="fill:green;opacity:0.5"/>
<text x="184.0" y="264.0" dominant-baseline="middle" text-anchor="middle" fill="white" style="paint-order: stroke; fill: white; stroke: black; stroke-width: 2px; font:24px bold sans;">0</text>
<rect x="308.0" y="252.0" width="24" height="24" style="fill:green;opacity:0.5"/>
<text x="320.0" y="264.0" dominant-baseline="middle" text-anchor="middle" fill="white" style="paint-order: stroke; fill: white; stroke: black; stroke-width: 2px; font:24px bold sans;">0</text>
<rect x="172.0" y="300.0" width="24" height="24" style="fill:green;opacity:0.5"/>
<text x="184.0" y="312.0" dominant-baseline="middle" text-anchor="middle" fill="white" style="paint-order: stroke; fill: white; stroke: black; stroke-width: 2px; font:24px bold sans;">1</text>
</svg>
