<svg xmlns="http://www.w3.org/2000/svg" version="1.1" width="296" height="608">
<rect width="296" height="608" style="fill:black"/>
<rect x="0" y="0" width="7" height="7" style="fill:white"/>
<rect x="8" y="0" width="7" height="7" style="fill:white"/>
<rect x="16" y="0" width="7" height="7" style="fill:white"/>
<rect x="24" y="0" width="7" height="7" style="fill:white"/>
<rect x="32" y="0" width="7" height="7" style="fill:white"/>
<rect x="40" y="0" width="7" height="7" style="fill:white"/>
<rect x="48" y="0" width="7" height="7" style="fill:white"/>
<rect x="56" y="0" width="7" height="7" style="fill:white"/>
<rect x="64" y="0" width="7" height="7" style="fill:white"/>
<rect x="72" y="0" width="7" height="7" style="fill:white"/>
<rect x="80" y="0" width="7" height="7" style="fill:white"/>
<rect x="88" y="0" width="7" height="7" style="fill:white"/>
<rect x="96" y="0" width="7" height="7" style="fill:white"/>
<rect x="104" y="0" width="7" height="7" style="fill:white"/>
<rect x="112" y="0" width="7" height="7" style="fill:white"/>
<rect x="120" y="0" width="7" height="7" style="fill:white"/>
<rect x="128" y="0" width="7" height="7" style="fill:white"/>
<rect x="136" y="0" width="7" height="7" style="fill:white"/>
<rect x="144" y="0" width="7" height="7" style="fill:white"/>
<rect x="152" y="0" width="7" height="7" style="fill:white"/>
<rect x="160" y="0" width="7" height="7" style="fill:white"/>
<rect x="168" y="0" width="7" height="7" style="fill:white"/>
<rect x="176" y="0" width="7" height="7" style="fill:white"/>
<rect x="184" y="0" width="7" height="7" style="fill:white"/>
<rect x="192" y="0" width="7" height="7" style="fill:white"/>
<rect x="200" y="0" width="7" height="7" style="fill:white"/>
<rect x="208" y="0" width="7" height="7" style="fill:white"/>
<rect x="216" y="0" width="7" height="7" style="fill:white"/>
<rect x="224" y="0" width="7" height="7" style="fill:white"/>
<rect x="232" y="0" width="7" height="7" style="fill:white"/>
<rect x="240" y="0" width="7" height="7" style="fill:white"/>
<rect x="248" y="0" width="7" height="7" style="fill:white"/>
<rect x="256" y="0" width="7" height="7" style="fill:white"/>
<rect x="264" y="0" width="7" height="7" style="fill:white"/>
<rect x="272" y="0" width="7" height="7" style="fill:white"/>
<rect x="280" y="0" width="7" height="7" style="fill:white"/>
<rect x="288" y="0" width="7" height="7" style="fill:white"/>
<rect x="0" y="8" width="7" height="7" style="fill:white"/>
<rect x="288" y="8" width="7" height="7" style="fill:white"/>
<rect x="0" y="16" width="7" height="7" style="fill:white"/>
<rect x="16" y="16" width="7" height="7" style="fill:white"/>
<rect x="24" y="16" width="7" height="7" style="fill:white"/>
<rect x="32" y="16" width="7" height="7" style="fill:white"/>
<rect x="40" y="16" width="7" height="7" style="fill:white"/>
<rect x="288" y="16" width="7" height="7" style="fill:white"/>
<rect x="0" y="24" width="7" height="7" style="fill:white"/>
<rect x="16" y="24" width="7" height="7" style="fill:white"/>
<rect x="24" y="24" width="7" height="7" style="fill:white"/>
<rect x="288" y="24" width="7" height="7" style="fill:white"/>
<rect x="0" y="32" width="7" height="7" style="fill:white"/>
<rect x="16" y="32" width="7" height="7" style="fill:white"/>
<rect x="40" y="32" width="7" height="7" style="fill:white"/>
<rect x="288" y="32" width="7" height="7" style="fill:white"/>
<rect x="0" y="40" width="7" height="7" style="fill:white"/>
<rect x="16" y="40" width="7" height="7" style="fill:white"/>
<rect x="32" y="40" width="7" height="7" style="fill:white"/>
<rect x="40" y="40" width="7" height="7" style="fill:white"/>
<rect x="288" y="40" width="7" height="7" style="fill:white"/>
<rect x="0" y="48" width="7" height="7" style="fill:white"/>
<rect x="288" y="48" width="7" height="7" style="fill:white"/>
<rect x="0" y="56" width="7" height="7" style="fill:white"/>
<rect x="288" y="56" width="7" height="7" style="fill:white"/>
<rect x="0" y="64" width="7" height="7" style="fill:white"/>
<rect x="16" y="64" width="7" height="7" style="fill:white"/>
<rect x="24" y="64" width="7" height="7" style="fill:white"/>
<rect x="48" y="64" width="7" height="7" style="fill:white"/>
<rect x="56" y="64" width="7" height="7" style="fill:white"/>
<rect x="64" y="64" width="7" height="7" style="fill:white"/>
<rect x="72" y="64" width="7" height="7" style="fill:white"/>
<rect x="104" y="64" width="7" height="7" style="fill:white"/>
<rect x="160" y="64" width="7" height="7" style="fill:white"/>
<rect x="168" y="64" width="7" height="7" style="fill:white"/>
<rect x="176" y="64" width="7" height="7" style="fill:white"/>
<rect x="240" y="64" width="7" height="7" style="fill:white"/>
<rect x="288" y="64" width="7" height="7" style="fill:white"/>
<rect x="0" y="72" width="7" height="7" style="fill:white"/>
<rect x="16" y="72" width="7" height="7" style="fill:white"/>
<rect x="48" y="72" width="7" height="7" style="fill:white"/>
<rect x="56" y="72" width="7" height="7" style="fill:white"/>
<rect x="96" y="72" width="7" height="7" style="fill:white"/>
<rect x="160" y="72" width="7" height="7" style="fill:white"/>
<rect x="232" y="72" width="7" height="7" style="fill:white"/>
<rect x="240" y="72" width="7" height="7" style="fill:white"/>
<rect x="288" y="72" width="7" height="7" style="fill:white"/>
<rect x="0" y="80" width="7" height="7" style="fill:white"/>
<rect x="48" y="80" width="7" height="7" style="fill:white"/>
<rect x="72" y="80" width="7" height="7" style="fill:white"/>
<rect x="160" y="80" width="7" height="7" style="fill:white"/>
<rect x="168" y="80" width="7" height="7" style="fill:white"/>
<rect x="176" y="80" width="7" height="7" style="fill:white"/>
<rect x="288" y="80" width="7" height="7" style="fill:white"/>
<rect x="0" y="88" width="7" height="7" style="fill:white"/>
<rect x="48" y="88" width="7" height="7" style="fill:white"/>
<rect x="64" y="88" width="7" height="7" style="fill:white"/>
<rect x="72" y="88" width="7" height="7" style="fill:white"/>
<rect x="288" y="88" width="7" height="7" style="fill:white"/>
<rect x="0" y="96" width="7" height="7" style="fill:white"/>
<rect x="288" y="96" width="7" height="7" style="fill:white"/>
<rect x="0" y="104" width="7" height="7" style="fill:white"/>
<rect x="288" y="104" width="7" height="7" style="fill:white"/>
<rect x="0" y="112" width="7" height="7" style="fill:white"/>
<rect x="16" y="112" width="7" height="7" style="fill:white"/>
<rect x="24" y="112" width="7" height="7" style="fill:white"/>
<rect x="48" y="112" width="7" height="7" style="fill:white"/>
<rect x="56" y="112" width="7" height="7" style="fill:white"/>
<rect x="64" y="112" width="7" height="7" style="fill:white"/>
<rect x="72" y="112" width="7" height="7" style="fill:white"/>
<rect x="104" y="112" width="7" height="7" style="fill:white"/>
<rect x="160" y="112" width="7" height="7" style="fill:white"/>
<rect x="168" y="112" width="7" height="7" style="fill:white"/>
<rect x="176" y="112" width="7" height="7" style="fill:white"/>
<rect x="240" y="112" width="7" height="7" style="fill:white"/>
<rect x="248" y="112" width="7" height="7" style="fill:white"/>
<rect x="288" y="112" width="7" height="7" style="fill:white"/>
<rect x="0" y="120" width="7" height="7" style="fill:white"/>
<rect x="16" y="120" width="7" height="7" style="fill:white"/>
<rect x="48" y="120" width="7" height="7" style="fill:white"/>
<rect x="56" y="120" width="7" height="7" style="fill:white"/>
<rect x="96" y="120" width="7" height="7" style="fill:white"/>
<rect x="104" y="120" width="7" height="7" style="fill:white"/>
<rect x="160" y="120" width="7" height="7" style="fill:white"/>
<rect x="232" y="120" width="7" height="7" style="fill:white"/>
<rect x="248" y="120" width="7" height="7" style="fill:white"/>
<rect x="288" y="120" width="7" height="7" style="fill:white"/>
<rect x="0" y="128" width="7" height="7" style="fill:white"/>
<rect x="48" y="128" width="7" height="7" style="fill:white"/>
<rect x="72" y="128" width="7" height="7" style="fill:white"/>
<rect x="160" y="128" width="7" height="7" style="fill:white"/>
<rect x="168" y="128" width="7" height="7" style="fill:white"/>
<rect x="176" y="128" width="7" height="7" style="fill:white"/>
<rect x="232" y="128" width="7" height="7" style="fill:white"/>
<rect x="288" y="128" width="7" height="7" style="fill:white"/>
<rect x="0" y="136" width="7" height="7" style="fill:white"/>
<rect x="48" y="136" width="7" height="7" style="fill:white"/>
<rect x="64" y="136" width="7" height="7" style="fill:white"/>
<rect x="72" y="136" width="7" height="7" style="fill:white"/>
<rect x="288" y="136" width="7" height="7" style="fill:white"/>
<rect x="0" y="144" width="7" height="7" style="fill:white"/>
<rect x="288" y="144" width="7" height="7" style="fill:white"/>
<rect x="0" y="152" width="7" height="7" style="fill:white"/>
<rect x="288" y="152" width="7" height="7" style="fill:white"/>
<rect x="0" y="160" width="7" height="7" style="fill:white"/>
<rect x="16" y="160" width="7" height="7" style="fill:white"/>
<rect x="24" y="160" width="7" height="7" style="fill:white"/>
<rect x="48" y="160" width="7" height="7" style="fill:white"/>
<rect x="56" y="160" width="7" height="7" style="fill:white"/>
<rect x="64" y="160" width="7" height="7" style="fill:white"/>
<rect x="72" y="160" width="7" height="7" style="fill:white"/>
<rect x="104" y="160" width="7" height="7" style="fill:white"/>
<rect x="112" y="160" width="7" height="7" style="fill:white"/>
<rect x="168" y="160" width="7" height="7" style="fill:white"/>
<rect x="176" y="160" width="7" height="7" style="fill:white"/>
<rect x="184" y="160" width="7" height="7" style="fill:white"/>
<rect x="248" y="160" width="7" height="7" style="fill:white"/>
<rect x="256" y="160" width="7" height="7" style="fill:white"/>
<rect x="288" y="160" width="7" height="7" style="fill:white"/>
<rect x="0" y="168" width="7" height="7" style="fill:white"/>
<rect x="16" y="168" width="7" height="7" style="fill:white"/>
<rect x="48" y="168" width="7" height="7" style="fill:white"/>
<rect x="56" y="168" width="7" height="7" style="fill:white"/>
<rect x="96" y="168" width="7" height="7" style="fill:white"/>
<rect x="112" y="168" width="7" height="7" style="fill:white"/>
<rect x="168" y="168" width="7" height="7" style="fill:white"/>
<rect x="240" y="168" width="7" height="7" style="fill:white"/>
<rect x="248" y="168" width="7" height="7" style="fill:white"/>
<rect x="256" y="168" width="7" height="7" style="fill:white"/>
<rect x="288" y="168" width="7" height="7" style="fill:white"/>
<rect x="0" y="176" width="7" height="7" style="fill:white"/>
<rect x="48" y="176" width="7" height="7" style="fill:white"/>
<rect x="72" y="176" width="7" height="7" style="fill:white"/>
<rect x="96" y="176" width="7" height="7" style="fill:white"/>
<rect x="168" y="176" width="7" height="7" style="fill:white"/>
<rect x="176" y="176" width="7" height="7" style="fill:white"/>
<rect x="184" y="176" width="7" height="7" style="fill:white"/>
<rect x="240" y="176" width="7" height="7" style="fill:white"/>
<rect x="288" y="176" width="7" height="7" style="fill:white"/>
<rect x="0" y="184" width="7" height="7" style="fill:white"/>
<rect x="48" y="184" width="7" height="7" style="fill:white"/>
<rect x="64" y="184" width="7" height="7" style="fill:white"/>
<rect x="72" y="184" width="7" height="7" style="fill:white"/>
<rect x="288" y="184" width="7" height="7" style="fill:white"/>
<rect x="0" y="192" width="7" height="7" style="fill:white"/>
<rect x="288" y="192" width="7" height="7" style="fill:white"/>
<rect x="0" y="200" width="7" height="7" style="fill:white"/>
<rect x="288" y="200" width="7" height="7" style="fill:white"/>
<rect x="0" y="208" width="7" height="7" style="fill:white"/>
<rect x="16" y="208" width="7" height="7" style="fill:white"/>
<rect x="24" y="208" width="7" height="7" style="fill:white"/>
<rect x="48" y="208" width="7" height="7" style="fill:white"/>
<rect x="56" y="208" width="7" height="7" style="fill:white"/>
<rect x="64" y="208" width="7" height="7" style="fill:white"/>
<rect x="72" y="208" width="7" height="7" style="fill:white"/>
<rect x="104" y="208" width="7" height="7" style="fill:white"/>
<rect x="112" y="208" width="7" height="7" style="fill:white"/>
<rect x="168" y="208" width="7" height="7" style="fill:white"/>
<rect x="176" y="208" width="7" height="7" style="fill:white"/>
<rect x="184" y="208" width="7" height="7" style="fill:white"/>
<rect x="248" y="208" width="7" height="7" style="fill:white"/>
<rect x="256" y="208" width="7" height="7" style="fill:white"/>
<rect x="288" y="208" width="7" height="7" style="fill:white"/>
<rect x="0" y="216" width="7" height="7" style="fill:white"/>
<rect x="16" y="216" width="7" height="7" style="fill:white"/>
<rect x="48" y="216" width="7" height="7" style="fill:white"/>
<rect x="56" y="216" width="7" height="7" style="fill:white"/>
<rect x="96" y="216" width="7" height="7" style="fill:white"/>
<rect x="104" y="216" width="7" height="7" style="fill:white"/>
<rect x="112" y="216" width="7" height="7" style="fill:white"/>
<rect x="168" y="216" width="7" height="7" style="fill:white"/>
<rect x="240" y="216" width="7" height="7" style="fill:white"/>
<rect x="288" y="216" width="7" height="7" style="fill:white"/>
<rect x="0" y="224" width="7" height="7" style="fill:white"/>
<rect x="48" y="224" width="7" height="7" style="fill:white"/>
<rect x="72" y="224" width="7" height="7" style="fill:white"/>
<rect x="96" y="224" width="7" height="7" style="fill:white"/>
<rect x="168" y="224" width="7" height="7" style="fill:white"/>
<rect x="176" y="224" width="7" height="7" style="fill:white"/>
<rect x="184" y="224" width="7" height="7" style="fill:white"/>
<rect x="240" y="224" width="7" height="7" style="fill:white"/>
<rect x="248" y="224" width="7" height="7" style="fill:white"/>
<rect x="288" y="224" width="7" height="7" style="fill:white"/>
<rect x="0" y="232" width="7" height="7" style="fill:white"/>
<rect x="48" y="232" width="7" height="7" style="fill:white"/>
<rect x="64" y="232" width="7" height="7" style="fill:white"/>
<rect x="72" y="232" width="7" height="7" style="fill:white"/>
<rect x="288" y="232" width="7" height="7" style="fill:white"/>
<rect x="0" y="240" width="7" height="7" style="fill:white"/>
<rect x="288" y="240" width="7" height="7" style="fill:white"/>
<rect x="0" y="248" width="7" height="7" style="fill:white"/>
<rect x="288" y="248" width="7" height="7" style="fill:white"/>
<rect x="0" y="256" width="7" height="7" style="fill:white"/>
<rect x="288" y="256" width="7" height="7" style="fill:white"/>
<rect x="0" y="264" width="7" height="7" style="fill:white"/>
<rect x="16" y="264" width="7" height="7" style="fill:white"/>
<rect x="32" y="264" width="7" height="7" style="fill:white"/>
<rect x="48" y="264" width="7" height="7" style="fill:white"/>
<rect x="64" y="264" width="7" height="7" style="fill:white"/>
<rect x="288" y="264" width="7" height="7" style="fill:white"/>
<rect x="0" y="272" width="7" height="7" style="fill:white"/>
<rect x="288" y="272" width="7" height="7" style="fill:white"/>
<rect x="0" y="280" width="7" height="7" style="fill:white"/>
<rect x="288" y="280" width="7" height="7" style="fill:white"/>
<rect x="0" y="288" width="7" height="7" style="fill:white"/>
<rect x="288" y="288" width="7" height="7" style="fill:white"/>
<rect x="0" y="296" width="7" height="7" style="fill:white"/>
<rect x="16" y="296" width="7" height="7" style="fill:white"/>
<rect x="24" y="296" width="7" height="7" style="fill:white"/>
<rect x="48" y="296" width="7" height="7" style="fill:white"/>
<rect x="56" y="296" width="7" height="7" style="fill:white"/>
<rect x="64" y="296" width="7" height="7" style="fill:white"/>
<rect x="72" y="296" width="7" height="7" style="fill:white"/>
<rect x="104" y="296" width="7" height="7" style="fill:white"/>
<rect x="112" y="296" width="7" height="7" style="fill:white"/>
<rect x="120" y="296" width="7" height="7" style="fill:white"/>
<rect x="176" y="296" width="7" height="7" style="fill:white"/>
<rect x="184" y="296" width="7" height="7" style="fill:white"/>
<rect x="192" y="296" width="7" height="7" style="fill:white"/>
<rect x="256" y="296" width="7" height="7" style="fill:white"/>
<rect x="264" y="296" width="7" height="7" style="fill:white"/>
<rect x="272" y="296" width="7" height="7" style="fill:white"/>
<rect x="288" y="296" width="7" height="7" style="fill:white"/>
<rect x="0" y="304" width="7" height="7" style="fill:white"/>
<rect x="16" y="304" width="7" height="7" style="fill:white"/>
<rect x="48" y="304" width="7" height="7" style="fill:white"/>
<rect x="56" y="304" width="7" height="7" style="fill:white"/>
<rect x="96" y="304" width="7" height="7" style="fill:white"/>
<rect x="120" y="304" width="7" height="7" style="fill:white"/>
<rect x="176" y="304" width="7" height="7" style="fill:white"/>
<rect x="248" y="304" width="7" height="7" style="fill:white"/>
<rect x="256" y="304" width="7" height="7" style="fill:white"/>
<rect x="272" y="304" width="7" height="7" style="fill:white"/>
<rect x="288" y="304" width="7" height="7" style="fill:white"/>
<rect x="0" y="312" width="7" height="7" style="fill:white"/>
<rect x="48" y="312" width="7" height="7" style="fill:white"/>
<rect x="72" y="312" width="7" height="7" style="fill:white"/>
<rect x="96" y="312" width="7" height="7" style="fill:white"/>
<rect x="104" y="312" width="7" height="7" style="fill:white"/>
<rect x="120" y="312" width="7" height="7" style="fill:white"/>
<rect x="176" y="312" width="7" height="7" style="fill:white"/>
<rect x="184" y="312" width="7" height="7" style="fill:white"/>
<rect x="192" y="312" width="7" height="7" style="fill:white"/>
<rect x="248" y="312" width="7" height="7" style="fill:white"/>
<rect x="256" y="312" width="7" height="7" style="fill:white"/>
<rect x="272" y="312" width="7" height="7" style="fill:white"/>
<rect x="288" y="312" width="7" height="7" style="fill:white"/>
<rect x="0" y="320" width="7" height="7" style="fill:white"/>
<rect x="48" y="320" width="7" height="7" style="fill:white"/>
<rect x="64" y="320" width="7" height="7" style="fill:white"/>
<rect x="72" y="320" width="7" height="7" style="fill:white"/>
<rect x="96" y="320" width="7" height="7" style="fill:white"/>
<rect x="120" y="320" width="7" height="7" style="fill:white"/>
<rect x="248" y="320" width="7" height="7" style="fill:white"/>
<rect x="272" y="320" width="7" height="7" style="fill:white"/>
<rect x="288" y="320" width="7" height="7" style="fill:white"/>
<rect x="0" y="328" width="7" height="7" style="fill:white"/>
<rect x="288" y="328" width="7" height="7" style="fill:white"/>
<rect x="0" y="336" width="7" height="7" style="fill:white"/>
<rect x="288" y="336" width="7" height="7" style="fill:white"/>
<rect x="0" y="344" width="7" height="7" style="fill:white"/>
<rect x="16" y="344" width="7" height="7" style="fill:white"/>
<rect x="24" y="344" width="7" height="7" style="fill:white"/>
<rect x="48" y="344" width="7" height="7" style="fill:white"/>
<rect x="56" y="344" width="7" height="7" style="fill:white"/>
<rect x="64" y="344" width="7" height="7" style="fill:white"/>
<rect x="72" y="344" width="7" height="7" style="fill:white"/>
<rect x="104" y="344" width="7" height="7" style="fill:white"/>
<rect x="112" y="344" width="7" height="7" style="fill:white"/>
<rect x="120" y="344" width="7" height="7" style="fill:white"/>
<rect x="176" y="344" width="7" height="7" style="fill:white"/>
<rect x="184" y="344" width="7" height="7" style="fill:white"/>
<rect x="192" y="344" width="7" height="7" style="fill:white"/>
<rect x="256" y="344" width="7" height="7" style="fill:white"/>
<rect x="264" y="344" width="7" height="7" style="fill:white"/>
<rect x="272" y="344" width="7" height="7" style="fill:white"/>
<rect x="288" y="344" width="7" height="7" style="fill:white"/>
<rect x="0" y="352" width="7" height="7" style="fill:white"/>
<rect x="16" y="352" width="7" height="7" style="fill:white"/>
<rect x="48" y="352" width="7" height="7" style="fill:white"/>
<rect x="56" y="352" width="7" height="7" style="fill:white"/>
<rect x="96" y="352" width="7" height="7" style="fill:white"/>
<rect x="104" y="352" width="7" height="7" style="fill:white"/>
<rect x="120" y="352" width="7" height="7" style="fill:white"/>
<rect x="176" y="352" width="7" height="7" style="fill:white"/>
<rect x="248" y="352" width="7" height="7" style="fill:white"/>
<rect x="264" y="352" width="7" height="7" style="fill:white"/>
<rect x="272" y="352" width="7" height="7" style="fill:white"/>
<rect x="288" y="352" width="7" height="7" style="fill:white"/>
<rect x="0" y="360" width="7" height="7" style="fill:white"/>
<rect x="48" y="360" width="7" height="7" style="fill:white"/>
<rect x="72" y="360" width="7" height="7" style="fill:white"/>
<rect x="96" y="360" width="7" height="7" style="fill:white"/>
<rect x="104" y="360" width="7" height="7" style="fill:white"/>
<rect x="120" y="360" width="7" height="7" style="fill:white"/>
<rect x="176" y="360" width="7" height="7" style="fill:white"/>
<rect x="184" y="360" width="7" height="7" style="fill:white"/>
<rect x="192" y="360" width="7" height="7" style="fill:white"/>
<rect x="248" y="360" width="7" height="7" style="fill:white"/>
<rect x="256" y="360" width="7" height="7" style="fill:white"/>
<rect x="272" y="360" width="7" height="7" style="fill:white"/>
<rect x="288" y="360" width="7" height="7" style="fill:white"/>
<rect x="0" y="368" width="7" height="7" style="fill:white"/>
<rect x="48" y="368" width="7" height="7" style="fill:white"/>
<rect x="64" y="368" width="7" height="7" style="fill:white"/>
<rect x="72" y="368" width="7" height="7" style="fill:white"/>
<rect x="96" y="368" width="7" height="7" style="fill:white"/>
<rect x="120" y="368" width="7" height="7" style="fill:white"/>
<rect x="248" y="368" width="7" height="7" style="fill:white"/>
<rect x="272" y="368" width="7" height="7" style="fill:white"/>
<rect x="288" y="368" width="7" height="7" style="fill:white"/>
<rect x="0" y="376" width="7" height="7" style="fill:white"/>
<rect x="288" y="376" width="7" height="7" style="fill:white"/>
<rect x="0" y="384" width="7" height="7" style="fill:white"/>
<rect x="288" y="384" width="7" height="7" style="fill:white"/>
<rect x="0" y="392" width="7" height="7" style="fill:white"/>
<rect x="288" y="392" width="7" height="7" style="fill:white"/>
<rect x="0" y="400" width="7" height="7" style="fill:white"/>
<rect x="16" y="400" width="7" height="7" style="fill:white"/>
<rect x="32" y="400" width="7" height="7" style="fill:white"/>
<rect x="48" y="400" width="7" height="7" style="fill:white"/>
<rect x="64" y="400" width="7" height="7" style="fill:white"/>
<rect x="288" y="400" width="7" height="7" style="fill:white"/>
<rect x="0" y="408" width="7" height="7" style="fill:white"/>
<rect x="288" y="408" width="7" height="7" style="fill:white"/>
<rect x="0" y="416" width="7" height="7" style="fill:white"/>
<rect x="288" y="416" width="7" height="7" style="fill:white"/>
<rect x="0" y="424" width="7" height="7" style="fill:white"/>
<rect x="288" y="424" width="7" height="7" style="fill:white"/>
<rect x="0" y="432" width="7" height="7" style="fill:white"/>
<rect x="16" y="432" width="7" height="7" style="fill:white"/>
<rect x="24" y="432" width="7" height="7" style="fill:white"/>
<rect x="48" y="432" width="7" height="7" style="fill:white"/>
<rect x="56" y="432" width="7" height="7" style="fill:white"/>
<rect x="64" y="432" width="7" height="7" style="fill:white"/>
<rect x="72" y="432" width="7" height="7" style="fill:white"/>
<rect x="104" y="432" width="7" height="7" style="fill:white"/>
<rect x="160" y="432" width="7" height="7" style="fill:white"/>
<rect x="168" y="432" width="7" height="7" style="fill:white"/>
<rect x="176" y="432" width="7" height="7" style="fill:white"/>
<rect x="240" y="432" width="7" height="7" style="fill:white"/>
<rect x="288" y="432" width="7" height="7" style="fill:white"/>
<rect x="0" y="440" width="7" height="7" style="fill:white"/>
<rect x="16" y="440" width="7" height="7" style="fill:white"/>
<rect x="48" y="440" width="7" height="7" style="fill:white"/>
<rect x="56" y="440" width="7" height="7" style="fill:white"/>
<rect x="96" y="440" width="7" height="7" style="fill:white"/>
<rect x="104" y="440" width="7" height="7" style="fill:white"/>
<rect x="160" y="440" width="7" height="7" style="fill:white"/>
<rect x="232" y="440" width="7" height="7" style="fill:white"/>
<rect x="288" y="440" width="7" height="7" style="fill:white"/>
<rect x="0" y="448" width="7" height="7" style="fill:white"/>
<rect x="48" y="448" width="7" height="7" style="fill:white"/>
<rect x="72" y="448" width="7" height="7" style="fill:white"/>
<rect x="96" y="448" width="7" height="7" style="fill:white"/>
<rect x="160" y="448" width="7" height="7" style="fill:white"/>
<rect x="168" y="448" width="7" height="7" style="fill:white"/>
<rect x="176" y="448" width="7" height="7" style="fill:white"/>
<rect x="288" y="448" width="7" height="7" style="fill:white"/>
<rect x="0" y="456" width="7" height="7" style="fill:white"/>
<rect x="48" y="456" width="7" height="7" style="fill:white"/>
<rect x="64" y="456" width="7" height="7" style="fill:white"/>
<rect x="72" y="456" width="7" height="7" style="fill:white"/>
<rect x="288" y="456" width="7" height="7" style="fill:white"/>
<rect x="0" y="464" width="7" height="7" style="fill:white"/>
<rect x="288" y="464" width="7" height="7" style="fill:white"/>
<rect x="0" y="472" width="7" height="7" style="fill:white"/>
<rect x="288" y="472" width="7" height="7" style="fill:white"/>
<rect x="0" y="480" width="7" height="7" style="fill:white"/>
<rect x="16" y="480" width="7" height="7" style="fill:white"/>
<rect x="24" y="480" width="7" height="7" style="fill:white"/>
<rect x="48" y="480" width="7" height="7" style="fill:white"/>
<rect x="56" y="480" width="7" height="7" style="fill:white"/>
<rect x="64" y="480" width="7" height="7" style="fill:white"/>
<rect x="72" y="480" width="7" height="7" style="fill:white"/>
<rect x="104" y="480" width="7" height="7" style="fill:white"/>
<rect x="112" y="480" width="7" height="7" style="fill:white"/>
<rect x="168" y="480" width="7" height="7" style="fill:white"/>
<rect x="176" y="480" width="7" height="7" style="fill:white"/>
<rect x="184" y="480" width="7" height="7" style="fill:white"/>
<rect x="248" y="480" width="7" height="7" style="fill:white"/>
<rect x="288" y="480" width="7" height="7" style="fill:white"/>
<rect x="0" y="488" width="7" height="7" style="fill:white"/>
<rect x="16" y="488" width="7" height="7" style="fill:white"/>
<rect x="48" y="488" width="7" height="7" style="fill:white"/>
<rect x="56" y="488" width="7" height="7" style="fill:white"/>
<rect x="96" y="488" width="7" height="7" style="fill:white"/>
<rect x="112" y="488" width="7" height="7" style="fill:white"/>
<rect x="168" y="488" width="7" height="7" style="fill:white"/>
<rect x="240" y="488" width="7" height="7" style="fill:white"/>
<rect x="248" y="488" width="7" height="7" style="fill:white"/>
<rect x="288" y="488" width="7" height="7" style="fill:white"/>
<rect x="0" y="496" width="7" height="7" style="fill:white"/>
<rect x="48" y="496" width="7" height="7" style="fill:white"/>
<rect x="72" y="496" width="7" height="7" style="fill:white"/>
<rect x="96" y="496" width="7" height="7" style="fill:white"/>
<rect x="168" y="496" width="7" height="7" style="fill:white"/>
<rect x="176" y="496" width="7" height="7" style="fill:white"/>
<rect x="184" y="496" width="7" height="7" style="fill:white"/>
<rect x="240" y="496" width="7" height="7" style="fill:white"/>
<rect x="288" y="496" width="7" height="7" style="fill:white"/>
<rect x="0" y="504" width="7" height="7" style="fill:white"/>
<rect x="48" y="504" width="7" height="7" style="fill:white"/>
<rect x="64" y="504" width="7" height="7" style="fill:white"/>
<rect x="72" y="504" width="7" height="7" style="fill:white"/>
<rect x="96" y="504" width="7" height="7" style="fill:white"/>
<rect x="288" y="504" width="7" height="7" style="fill:white"/>
<rect x="0" y="512" width="7" height="7" style="fill:white"/>
<rect x="288" y="512" width="7" height="7" style="fill:white"/>
<rect x="0" y="520" width="7" height="7" style="fill:white"/>
<rect x="288" y="520" width="7" height="7" style="fill:white"/>
<rect x="0" y="528" width="7" height="7" style="fill:white"/>
<rect x="16" y="528" width="7" height="7" style="fill:white"/>
<rect x="24" y="528" width="7" height="7" style="fill:white"/>
<rect x="48" y="528" width="7" height="7" style="fill:white"/>
<rect x="56" y="528" width="7" height="7" style="fill:white"/>
<rect x="64" y="528" width="7" height="7" style="fill:white"/>
<rect x="72" y="528" width="7" height="7" style="fill:white"/>
<rect x="104" y="528" width="7" height="7" style="fill:white"/>
<rect x="112" y="528" width="7" height="7" style="fill:white"/>
<rect x="168" y="528" width="7" height="7" style="fill:white"/>
<rect x="176" y="528" width="7" height="7" style="fill:white"/>
<rect x="184" y="528" width="7" height="7" style="fill:white"/>
<rect x="248" y="528" width="7" height="7" style="fill:white"/>
<rect x="256" y="528" width="7" height="7" style="fill:white"/>
<rect x="288" y="528" width="7" height="7" style="fill:white"/>
<rect x="0" y="536" width="7" height="7" style="fill:white"/>
<rect x="16" y="536" width="7" height="7" style="fill:white"/>
<rect x="48" y="536" width="7" height="7" style="fill:white"/>
<rect x="56" y="536" width="7" height="7" style="fill:white"/>
<rect x="96" y="536" width="7" height="7" style="fill:white"/>
<rect x="104" y="536" width="7" height="7" style="fill:white"/>
<rect x="112" y="536" width="7" height="7" style="fill:white"/>
<rect x="168" y="536" width="7" height="7" style="fill:white"/>
<rect x="240" y="536" width="7" height="7" style="fill:white"/>
<rect x="256" y="536" width="7" height="7" style="fill:white"/>
<rect x="288" y="536" width="7" height="7" style="fill:white"/>
<rect x="0" y="544" width="7" height="7" style="fill:white"/>
<rect x="48" y="544" width="7" height="7" style="fill:white"/>
<rect x="72" y="544" width="7" height="7" style="fill:white"/>
<rect x="96" y="544" width="7" height="7" style="fill:white"/>
<rect x="168" y="544" width="7" height="7" style="fill:white"/>
<rect x="176" y="544" width="7" height="7" style="fill:white"/>
<rect x="184" y="544" width="7" height="7" style="fill:white"/>
<rect x="240" y="544" width="7" height="7" style="fill:white"/>
<rect x="288" y="544" width="7" height="7" style="fill:white"/>
<rect x="0" y="552" width="7" height="7" style="fill:white"/>
<rect x="48" y="552" width="7" height="7" style="fill:white"/>
<rect x="64" y="552" width="7" height="7" style="fill:white"/>
<rect x="72" y="552" width="7" height="7" style="fill:white"/>
<rect x="96" y="552" width="7" height="7" style="fill:white"/>
<rect x="240" y="552" width="7" height="7" style="fill:white"/>
<rect x="288" y="552" width="7" height="7" style="fill:white"/>
<rect x="0" y="560" width="7" height="7" style="fill:white"/>
<rect x="288" y="560" width="7" height="7" style="fill:white"/>
<rect x="0" y="568" width="7" height="7" style="fill:white"/>
<rect x="288" y="568" width="7" height="7" style="fill:white"/>
<rect x="0" y="576" width="7" height="7" style="fill:white"/>
<rect x="288" y="576" width="7" height="7" style="fill:white"/>
<rect x="0" y="584" width="7" height="7" style="fill:white"/>
<rect x="16" y="584" width="7" height="7" style="fill:white"/>
<rect x="32" y="584" width="7" height="7" style="fill:white"/>
<rect x="48" y="584" width="7" height="7" style="fill:white"/>
<rect x="64" y="584" width="7" height="7" style="fill:white"/>
<rect x="288" y="584" width="7" height="7" style="fill:white"/>
<rect x="0" y="592" width="7" height="7" style="fill:white"/>
<rect x="288" y="592" width="7" height="7" style="fill:white"/>
<rect x="0" y="600" width="7" height="7" style="fill:white"/>
<rect x="8" y="600" width="7" height="7" style="fill:white"/>
<rect x="16" y="600" width="7" height="7" style="fill:white"/>
<rect x="24" y="600" width="7" height="7" style="fill:white"/>
<rect x="32" y="600" width="7" height="7" style="fill:white"/>
<rect x="40" y="600" width="7" height="7" style="fill:white"/>
<rect x="48" y="600" width="7" height="7" style="fill:white"/>
<rect x="56" y="600" width="7" height="7" style="fill:white"/>
<rect x="64" y="600" width="7" height="7" style="fill:white"/>
<rect x="72" y="600" width="7" height="7" style="fill:white"/>
<rect x="80" y="600" width="7" height="7" style="fill:white"/>
<rect x="88" y="600" width="7" height="7" style="fill:white"/>
<rect x="96" y="600" width="7" height="7" style="fill:white"/>
<rect x="104" y="600" width="7" height="7" style="fill:white"/>
<rect x="112" y="600" width="7" height="7" style="fill:white"/>
<rect x="120" y="600" width="7" height="7" style="fill:white"/>
<rect x="128" y="600" width="7" height="7" style="fill:white"/>
<rect x="136" y="600" width="7" height="7" style="fill:white"/>
<rect x="144" y="600" width="7" height="7" style="fill:white"/>
<rect x="152" y="600" width="7" height="7" style="fill:white"/>
<rect x="160" y="600" width="7" height="7" style="fill:white"/>
<rect x="168" y="600" width="7" height="7" style="fill:white"/>
<rect x="176" y="600" width="7" height="7" style="fill:white"/>
<rect x="184" y="600" width="7" height="7" style="fill:white"/>
<rect x="192" y="600" width="7" height="7" style="fill:white"/>
<rect x="200" y="600" width="7" height="7" style="fill:white"/>
<rect x="208" y="600" width="7" height="7" style="fill:white"/>
<rect x="216" y="600" width="7" height="7" style="fill:white"/>
<rect x="224" y="600" width="7" height="7" style="fill:white"/>
<rect x="232" y="600" width="7" height="7" style="fill:white"/>
<rect x="240" y="600" width="7" height="7" style="fill:white"/>
<rect x="248" y="600" width="7" height="7" style="fill:white"/>
<rect x="256" y="600" width="7" height="7" style="fill:white"/>
<rect x="264" y="600" width="7" height="7" style="fill:white"/>
<rect x="272" y="600" width="7" height="7" style="fill:white"/>
<rect x="280" y="600" width="7" height="7" style="fill:white"/>
<rect x="288" y="600" width="7" height="7" style="fill:white"/>
<rect x="92.0" y="60.0" width="24" height="24" style="fill:green;opacity:0.5"/>
<text x="104.0" y="72.0" dominant-baseline="middle" text-anchor="middle" fill="white" style="paint-order: stroke; fill: white; stroke: black; stroke-width: 2px; font:24px bold sans;">0</text>
<rect x="228.0" y="60.0" width="24" height="24" style="fill:green;opacity:0.5"/>
<text x="240.0" y="72.0" dominant-baseline="middle" text-anchor="middle" fill="white" style="paint-order: stroke; fill: white; stroke: black; stroke-width: 2px; font:24px bold sans;">1</text>
<rect x="92.0" y="108.0" width="24" height="24" style="fill:green;opacity:0.5"/>
<text x="104.0" y="120.0" dominant-baseline="middle" text-anchor="middle" fill="white" style="paint-order: stroke; fill: white; stroke: black; stroke-width: 2px; font:24px bold sans;">1</text>
<rect x="228.0" y="108.0" width="32" height="32" style="fill:green;opacity:0.5"/>
<text x="244.0" y="124.0" dominant-baseline="middle" text-anchor="middle" fill="white" style="paint-order: stroke; fill: white; stroke: black; stroke-width: 2px; font:24px bold sans;">2</text>
<rect x="92.0" y="156.0" width="32" height="32" style="fill:green;opacity:0.5"/>
<text x="108.0" y="172.0" dominant-baseline="middle" text-anchor="middle" fill="white" style="paint-order: stroke; fill: white; stroke: black; stroke-width: 2px; font:24px bold sans;">2</text>
<rect x="236.0" y="156.0" width="32" height="32" style="fill:green;opacity:0.5"/>
<text x="252.0" y="172.0" dominant-baseline="middle" text-anchor="middle" fill="white" style="paint-order: stroke; fill: white; stroke: black; stroke-width: 2px; font:24px bold sans;">3</text>
<rect x="92.0" y="204.0" width="32" height="32" style="fill:green;opacity:0.5"/>
<text x="108.0" y="220.0" dominant-baseline="middle" text-anchor="middle" fill="white" style="paint-order: stroke; fill: white; stroke: black; stroke-width: 2px; font:24px bold sans;">3</text>
<rect x="236.0" y="204.0" width="32" height="32" style="fill:green;opacity:0.5"/>
<text x="252.0" y="220.0" dominant-baseline="middle" text-anchor="middle" fill="white" style="paint-order: stroke; fill: white; stroke: black; stroke-width: 2px; font:24px bold sans;">4</text>
<rect x="92.0" y="292.0" width="40" height="40" style="fill:green;opacity:0.5"/>
<text x="112.0" y="312.0" dominant-baseline="middle" text-anchor="middle" fill="white" style="paint-order: stroke; fill: white; stroke: black; stroke-width: 2px; font:24px bold sans;">300</text>
<rect x="244.0" y="292.0" width="40" height="40" style="fill:green;opacity:0.5"/>
<text x="264.0" y="312.0" dominant-baseline="middle" text-anchor="middle" fill="white" style="paint-order: stroke; fill: white; stroke: black; stroke-width: 2px; font:24px bold sans;">301</text>
<rect x="92.0" y="340.0" width="40" height="40" style="fill:green;opacity:0.5"/>
<text x="112.0" y="360.0" dominant-baseline="middle" text-anchor="middle" fill="white" style="paint-order: stroke; fill: white; stroke: black; stroke-width: 2px; font:24px bold sans;">301</text>
<rect x="244.0" y="340.0" width="40" height="40" style="fill:green;opacity:0.5"/>
<text x="264.0" y="360.0" dominant-baseline="middle" text-anchor="middle" fill="white" style="paint-order: stroke; fill: white; stroke: black; stroke-width: 2px; font:24px bold sans;">302</text>
<rect x="92.0" y="428.0" width="24" height="32" style="fill:green;opacity:0.5"/>
<text x="104.0" y="444.0" dominant-baseline="middle" text-anchor="middle" fill="white" style="paint-order: stroke; fill: white; stroke: black; stroke-width: 2px; font:24px bold sans;">-1</text>
<rect x="228.0" y="428.0" width="24" height="24" style="fill:green;opacity:0.5"/>
<text x="240.0" y="440.0" dominant-baseline="middle" text-anchor="middle" fill="white" style="paint-order: stroke; fill: white; stroke: black; stroke-width: 2px; font:24px bold sans;">0</text>
<rect x="92.0" y="476.0" width="32" height="40" style="fill:green;opacity:0.5"/>
<text x="108.0" y="496.0" dominant-baseline="middle" text-anchor="middle" fill="white" style="paint-order: stroke; fill: white; stroke: black; stroke-width: 2px; font:24px bold sans;">-2</text>
<rect x="236.0" y="476.0" width="24" height="32" style="fill:green;opacity:0.5"/>
<text x="248.0" y="492.0" dominant-baseline="middle" text-anchor="middle" fill="white" style="paint-order: stroke; fill: white; stroke: black; stroke-width: 2px; font:24px bold sans;">-1</text>
<rect x="92.0" y="524.0" width="32" height="40" style="fill:green;opacity:0.5"/>
<text x="108.0" y="544.0" dominant-baseline="middle" text-anchor="middle" fill="white" style="paint-order: stroke; fill: white; stroke: black; stroke-width: 2px; font:24px bold sans;">-3</text>
<rect x="236.0" y="524.0" width="32" height="40" style="fill:green;opacity:0.5"/>
<text x="252.0" y="544.0" dominant-baseline="middle" text-anchor="middle" fill="white" style="paint-order: stroke; fill: white; stroke: black; stroke-width: 2px; font:24px bold sans;">-2</text>
</svg>
