<svg xmlns="http://www.w3.org/2000/svg" version="1.1" width="360" height="576">
<rect width="360" height="576" style="fill:black"/>
<rect x="0" y="0" width="7" height="7" style="fill:white"/>
<rect x="8" y="0" width="7" height="7" style="fill:white"/>
<rect x="16" y="0" width="7" height="7" style="fill:white"/>
<rect x="24" y="0" width="7" height="7" style="fill:white"/>
<rect x="32" y="0" width="7" height="7" style="fill:white"/>
<rect x="40" y="0" width="7" height="7" style="fill:white"/>
<rect x="48" y="0" width="7" height="7" style="fill:white"/>
<rect x="56" y="0" width="7" height="7" style="fill:white"/>
<rect x="64" y="0" width="7" height="7" style="fill:white"/>
<rect x="72" y="0" width="7" height="7" style="fill:white"/>
<rect x="80" y="0" width="7" height="7" style="fill:white"/>
<rect x="88" y="0" width="7" height="7" style="fill:white"/>
<rect x="96" y="0" width="7" height="7" style="fill:white"/>
<rect x="104" y="0" width="7" height="7" style="fill:white"/>
<rect x="112" y="0" width="7" height="7" style="fill:white"/>
<rect x="120" y="0" width="7" height="7" style="fill:white"/>
<rect x="128" y="0" width="7" height="7" style="fill:white"/>
<rect x="136" y="0" width="7" height="7" style="fill:white"/>
<rect x="144" y="0" width="7" height="7" style="fill:white"/>
<rect x="152" y="0" width="7" height="7" style="fill:white"/>
<rect x="160" y="0" width="7" height="7" style="fill:white"/>
<rect x="168" y="0" width="7" height="7" style="fill:white"/>
<rect x="176" y="0" width="7" height="7" style="fill:white"/>
<rect x="184" y="0" width="7" height="7" style="fill:white"/>
<rect x="192" y="0" width="7" height="7" style="fill:white"/>
<rect x="200" y="0" width="7" height="7" style="fill:white"/>
<rect x="208" y="0" width="7" height="7" style="fill:white"/>
<rect x="216" y="0" width="7" height="7" style="fill:white"/>
<rect x="224" y="0" width="7" height="7" style="fill:white"/>
<rect x="232" y="0" width="7" height="7" style="fill:white"/>
<rect x="240" y="0" width="7" height="7" style="fill:white"/>
<rect x="248" y="0" width="7" height="7" style="fill:white"/>
<rect x="256" y="0" width="7" height="7" style="fill:white"/>
<rect x="264" y="0" width="7" height="7" style="fill:white"/>
<rect x="272" y="0" width="7" height="7" style="fill:white"/>
<rect x="280" y="0" width="7" height="7" style="fill:white"/>
<rect x="288" y="0" width="7" height="7" style="fill:white"/>
<rect x="296" y="0" width="7" height="7" style="fill:white"/>
<rect x="304" y="0" width="7" height="7" style="fill:white"/>
<rect x="312" y="0" width="7" height="7" style="fill:white"/>
<rect x="320" y="0" width="7" height="7" style="fill:white"/>
<rect x="328" y="0" width="7" height="7" style="fill:white"/>
<rect x="336" y="0" width="7" height="7" style="fill:white"/>
<rect x="344" y="0" width="7" height="7" style="fill:white"/>
<rect x="352" y="0" width="7" height="7" style="fill:white"/>
<rect x="0" y="8" width="7" height="7" style="fill:white"/>
<rect x="352" y="8" width="7" height="7" style="fill:white"/>
<rect x="0" y="16" width="7" height="7" style="fill:white"/>
<rect x="16" y="16" width="7" height="7" style="fill:white"/>
<rect x="24" y="16" width="7" height="7" style="fill:white"/>
<rect x="32" y="16" width="7" height="7" style="fill:white"/>
<rect x="40" y="16" width="7" height="7" style="fill:white"/>
<rect x="352" y="16" width="7" height="7" style="fill:white"/>
<rect x="0" y="24" width="7" height="7" style="fill:white"/>
<rect x="16" y="24" width="7" height="7" style="fill:white"/>
<rect x="352" y="24" width="7" height="7" style="fill:white"/>
<rect x="0" y="32" width="7" height="7" style="fill:white"/>
<rect x="16" y="32" width="7" height="7" style="fill:white"/>
<rect x="24" y="32" width="7" height="7" style="fill:white"/>
<rect x="40" y="32" width="7" height="7" style="fill:white"/>
<rect x="352" y="32" width="7" height="7" style="fill:white"/>
<rect x="0" y="40" width="7" height="7" style="fill:white"/>
<rect x="16" y="40" width="7" height="7" style="fill:white"/>
<rect x="352" y="40" width="7" height="7" style="fill:white"/>
<rect x="0" y="48" width="7" height="7" style="fill:white"/>
<rect x="352" y="48" width="7" height="7" style="fill:white"/>
<rect x="0" y="56" width="7" height="7" style="fill:white"/>
<rect x="352" y="56" width="7" height="7" style="fill:white"/>
<rect x="0" y="64" width="7" height="7" style="fill:white"/>
<rect x="16" y="64" width="7" height="7" style="fill:white"/>
<rect x="24" y="64" width="7" height="7" style="fill:white"/>
<rect x="48" y="64" width="7" height="7" style="fill:white"/>
<rect x="56" y="64" width="7" height="7" style="fill:white"/>
<rect x="80" y="64" width="7" height="7" style="fill:white"/>
<rect x="88" y="64" width="7" height="7" style="fill:white"/>
<rect x="96" y="64" width="7" height="7" style="fill:white"/>
<rect x="104" y="64" width="7" height="7" style="fill:white"/>
<rect x="136" y="64" width="7" height="7" style="fill:white"/>
<rect x="144" y="64" width="7" height="7" style="fill:white"/>
<rect x="176" y="64" width="7" height="7" style="fill:white"/>
<rect x="184" y="64" width="7" height="7" style="fill:white"/>
<rect x="240" y="64" width="7" height="7" style="fill:white"/>
<rect x="248" y="64" width="7" height="7" style="fill:white"/>
<rect x="256" y="64" width="7" height="7" style="fill:white"/>
<rect x="320" y="64" width="7" height="7" style="fill:white"/>
<rect x="328" y="64" width="7" height="7" style="fill:white"/>
<rect x="352" y="64" width="7" height="7" style="fill:white"/>
<rect x="0" y="72" width="7" height="7" style="fill:white"/>
<rect x="16" y="72" width="7" height="7" style="fill:white"/>
<rect x="48" y="72" width="7" height="7" style="fill:white"/>
<rect x="80" y="72" width="7" height="7" style="fill:white"/>
<rect x="128" y="72" width="7" height="7" style="fill:white"/>
<rect x="168" y="72" width="7" height="7" style="fill:white"/>
<rect x="184" y="72" width="7" height="7" style="fill:white"/>
<rect x="240" y="72" width="7" height="7" style="fill:white"/>
<rect x="312" y="72" width="7" height="7" style="fill:white"/>
<rect x="328" y="72" width="7" height="7" style="fill:white"/>
<rect x="352" y="72" width="7" height="7" style="fill:white"/>
<rect x="0" y="80" width="7" height="7" style="fill:white"/>
<rect x="80" y="80" width="7" height="7" style="fill:white"/>
<rect x="88" y="80" width="7" height="7" style="fill:white"/>
<rect x="104" y="80" width="7" height="7" style="fill:white"/>
<rect x="128" y="80" width="7" height="7" style="fill:white"/>
<rect x="136" y="80" width="7" height="7" style="fill:white"/>
<rect x="168" y="80" width="7" height="7" style="fill:white"/>
<rect x="240" y="80" width="7" height="7" style="fill:white"/>
<rect x="248" y="80" width="7" height="7" style="fill:white"/>
<rect x="256" y="80" width="7" height="7" style="fill:white"/>
<rect x="312" y="80" width="7" height="7" style="fill:white"/>
<rect x="352" y="80" width="7" height="7" style="fill:white"/>
<rect x="0" y="88" width="7" height="7" style="fill:white"/>
<rect x="80" y="88" width="7" height="7" style="fill:white"/>
<rect x="352" y="88" width="7" height="7" style="fill:white"/>
<rect x="0" y="96" width="7" height="7" style="fill:white"/>
<rect x="352" y="96" width="7" height="7" style="fill:white"/>
<rect x="0" y="104" width="7" height="7" style="fill:white"/>
<rect x="352" y="104" width="7" height="7" style="fill:white"/>
<rect x="0" y="112" width="7" height="7" style="fill:white"/>
<rect x="16" y="112" width="7" height="7" style="fill:white"/>
<rect x="24" y="112" width="7" height="7" style="fill:white"/>
<rect x="48" y="112" width="7" height="7" style="fill:white"/>
<rect x="56" y="112" width="7" height="7" style="fill:white"/>
<rect x="80" y="112" width="7" height="7" style="fill:white"/>
<rect x="88" y="112" width="7" height="7" style="fill:white"/>
<rect x="96" y="112" width="7" height="7" style="fill:white"/>
<rect x="104" y="112" width="7" height="7" style="fill:white"/>
<rect x="136" y="112" width="7" height="7" style="fill:white"/>
<rect x="144" y="112" width="7" height="7" style="fill:white"/>
<rect x="176" y="112" width="7" height="7" style="fill:white"/>
<rect x="184" y="112" width="7" height="7" style="fill:white"/>
<rect x="240" y="112" width="7" height="7" style="fill:white"/>
<rect x="248" y="112" width="7" height="7" style="fill:white"/>
<rect x="256" y="112" width="7" height="7" style="fill:white"/>
<rect x="320" y="112" width="7" height="7" style="fill:white"/>
<rect x="352" y="112" width="7" height="7" style="fill:white"/>
<rect x="0" y="120" width="7" height="7" style="fill:white"/>
<rect x="16" y="120" width="7" height="7" style="fill:white"/>
<rect x="48" y="120" width="7" height="7" style="fill:white"/>
<rect x="80" y="120" width="7" height="7" style="fill:white"/>
<rect x="128" y="120" width="7" height="7" style="fill:white"/>
<rect x="168" y="120" width="7" height="7" style="fill:white"/>
<rect x="176" y="120" width="7" height="7" style="fill:white"/>
<rect x="184" y="120" width="7" height="7" style="fill:white"/>
<rect x="240" y="120" width="7" height="7" style="fill:white"/>
<rect x="312" y="120" width="7" height="7" style="fill:white"/>
<rect x="320" y="120" width="7" height="7" style="fill:white"/>
<rect x="352" y="120" width="7" height="7" style="fill:white"/>
<rect x="0" y="128" width="7" height="7" style="fill:white"/>
<rect x="80" y="128" width="7" height="7" style="fill:white"/>
<rect x="88" y="128" width="7" height="7" style="fill:white"/>
<rect x="104" y="128" width="7" height="7" style="fill:white"/>
<rect x="128" y="128" width="7" height="7" style="fill:white"/>
<rect x="136" y="128" width="7" height="7" style="fill:white"/>
<rect x="168" y="128" width="7" height="7" style="fill:white"/>
<rect x="240" y="128" width="7" height="7" style="fill:white"/>
<rect x="248" y="128" width="7" height="7" style="fill:white"/>
<rect x="256" y="128" width="7" height="7" style="fill:white"/>
<rect x="352" y="128" width="7" height="7" style="fill:white"/>
<rect x="0" y="136" width="7" height="7" style="fill:white"/>
<rect x="80" y="136" width="7" height="7" style="fill:white"/>
<rect x="352" y="136" width="7" height="7" style="fill:white"/>
<rect x="0" y="144" width="7" height="7" style="fill:white"/>
<rect x="352" y="144" width="7" height="7" style="fill:white"/>
<rect x="0" y="152" width="7" height="7" style="fill:white"/>
<rect x="352" y="152" width="7" height="7" style="fill:white"/>
<rect x="0" y="160" width="7" height="7" style="fill:white"/>
<rect x="16" y="160" width="7" height="7" style="fill:white"/>
<rect x="24" y="160" width="7" height="7" style="fill:white"/>
<rect x="48" y="160" width="7" height="7" style="fill:white"/>
<rect x="56" y="160" width="7" height="7" style="fill:white"/>
<rect x="80" y="160" width="7" height="7" style="fill:white"/>
<rect x="88" y="160" width="7" height="7" style="fill:white"/>
<rect x="96" y="160" width="7" height="7" style="fill:white"/>
<rect x="104" y="160" width="7" height="7" style="fill:white"/>
<rect x="136" y="160" width="7" height="7" style="fill:white"/>
<rect x="144" y="160" width="7" height="7" style="fill:white"/>
<rect x="176" y="160" width="7" height="7" style="fill:white"/>
<rect x="184" y="160" width="7" height="7" style="fill:white"/>
<rect x="240" y="160" width="7" height="7" style="fill:white"/>
<rect x="248" y="160" width="7" height="7" style="fill:white"/>
<rect x="256" y="160" width="7" height="7" style="fill:white"/>
<rect x="320" y="160" width="7" height="7" style="fill:white"/>
<rect x="352" y="160" width="7" height="7" style="fill:white"/>
<rect x="0" y="168" width="7" height="7" style="fill:white"/>
<rect x="16" y="168" width="7" height="7" style="fill:white"/>
<rect x="48" y="168" width="7" height="7" style="fill:white"/>
<rect x="80" y="168" width="7" height="7" style="fill:white"/>
<rect x="128" y="168" width="7" height="7" style="fill:white"/>
<rect x="168" y="168" width="7" height="7" style="fill:white"/>
<rect x="240" y="168" width="7" height="7" style="fill:white"/>
<rect x="312" y="168" width="7" height="7" style="fill:white"/>
<rect x="320" y="168" width="7" height="7" style="fill:white"/>
<rect x="352" y="168" width="7" height="7" style="fill:white"/>
<rect x="0" y="176" width="7" height="7" style="fill:white"/>
<rect x="80" y="176" width="7" height="7" style="fill:white"/>
<rect x="88" y="176" width="7" height="7" style="fill:white"/>
<rect x="104" y="176" width="7" height="7" style="fill:white"/>
<rect x="128" y="176" width="7" height="7" style="fill:white"/>
<rect x="136" y="176" width="7" height="7" style="fill:white"/>
<rect x="168" y="176" width="7" height="7" style="fill:white"/>
<rect x="176" y="176" width="7" height="7" style="fill:white"/>
<rect x="240" y="176" width="7" height="7" style="fill:white"/>
<rect x="248" y="176" width="7" height="7" style="fill:white"/>
<rect x="256" y="176" width="7" height="7" style="fill:white"/>
<rect x="352" y="176" width="7" height="7" style="fill:white"/>
<rect x="0" y="184" width="7" height="7" style="fill:white"/>
<rect x="80" y="184" width="7" height="7" style="fill:white"/>
<rect x="352" y="184" width="7" height="7" style="fill:white"/>
<rect x="0" y="192" width="7" height="7" style="fill:white"/>
<rect x="352" y="192" width="7" height="7" style="fill:white"/>
<rect x="0" y="200" width="7" height="7" style="fill:white"/>
<rect x="352" y="200" width="7" height="7" style="fill:white"/>
<rect x="0" y="208" width="7" height="7" style="fill:white"/>
<rect x="16" y="208" width="7" height="7" style="fill:white"/>
<rect x="24" y="208" width="7" height="7" style="fill:white"/>
<rect x="48" y="208" width="7" height="7" style="fill:white"/>
<rect x="56" y="208" width="7" height="7" style="fill:white"/>
<rect x="80" y="208" width="7" height="7" style="fill:white"/>
<rect x="88" y="208" width="7" height="7" style="fill:white"/>
<rect x="96" y="208" width="7" height="7" style="fill:white"/>
<rect x="104" y="208" width="7" height="7" style="fill:white"/>
<rect x="136" y="208" width="7" height="7" style="fill:white"/>
<rect x="144" y="208" width="7" height="7" style="fill:white"/>
<rect x="176" y="208" width="7" height="7" style="fill:white"/>
<rect x="184" y="208" width="7" height="7" style="fill:white"/>
<rect x="240" y="208" width="7" height="7" style="fill:white"/>
<rect x="248" y="208" width="7" height="7" style="fill:white"/>
<rect x="256" y="208" width="7" height="7" style="fill:white"/>
<rect x="320" y="208" width="7" height="7" style="fill:white"/>
<rect x="352" y="208" width="7" height="7" style="fill:white"/>
<rect x="0" y="216" width="7" height="7" style="fill:white"/>
<rect x="16" y="216" width="7" height="7" style="fill:white"/>
<rect x="48" y="216" width="7" height="7" style="fill:white"/>
<rect x="80" y="216" width="7" height="7" style="fill:white"/>
<rect x="128" y="216" width="7" height="7" style="fill:white"/>
<rect x="168" y="216" width="7" height="7" style="fill:white"/>
<rect x="176" y="216" width="7" height="7" style="fill:white"/>
<rect x="240" y="216" width="7" height="7" style="fill:white"/>
<rect x="312" y="216" width="7" height="7" style="fill:white"/>
<rect x="352" y="216" width="7" height="7" style="fill:white"/>
<rect x="0" y="224" width="7" height="7" style="fill:white"/>
<rect x="80" y="224" width="7" height="7" style="fill:white"/>
<rect x="88" y="224" width="7" height="7" style="fill:white"/>
<rect x="104" y="224" width="7" height="7" style="fill:white"/>
<rect x="128" y="224" width="7" height="7" style="fill:white"/>
<rect x="136" y="224" width="7" height="7" style="fill:white"/>
<rect x="168" y="224" width="7" height="7" style="fill:white"/>
<rect x="176" y="224" width="7" height="7" style="fill:white"/>
<rect x="240" y="224" width="7" height="7" style="fill:white"/>
<rect x="248" y="224" width="7" height="7" style="fill:white"/>
<rect x="256" y="224" width="7" height="7" style="fill:white"/>
<rect x="352" y="224" width="7" height="7" style="fill:white"/>
<rect x="0" y="232" width="7" height="7" style="fill:white"/>
<rect x="80" y="232" width="7" height="7" style="fill:white"/>
<rect x="352" y="232" width="7" height="7" style="fill:white"/>
<rect x="0" y="240" width="7" height="7" style="fill:white"/>
<rect x="352" y="240" width="7" height="7" style="fill:white"/>
<rect x="0" y="248" width="7" height="7" style="fill:white"/>
<rect x="352" y="248" width="7" height="7" style="fill:white"/>
<rect x="0" y="256" width="7" height="7" style="fill:white"/>
<rect x="16" y="256" width="7" height="7" style="fill:white"/>
<rect x="24" y="256" width="7" height="7" style="fill:white"/>
<rect x="48" y="256" width="7" height="7" style="fill:white"/>
<rect x="56" y="256" width="7" height="7" style="fill:white"/>
<rect x="80" y="256" width="7" height="7" style="fill:white"/>
<rect x="88" y="256" width="7" height="7" style="fill:white"/>
<rect x="96" y="256" width="7" height="7" style="fill:white"/>
<rect x="104" y="256" width="7" height="7" style="fill:white"/>
<rect x="136" y="256" width="7" height="7" style="fill:white"/>
<rect x="144" y="256" width="7" height="7" style="fill:white"/>
<rect x="176" y="256" width="7" height="7" style="fill:white"/>
<rect x="184" y="256" width="7" height="7" style="fill:white"/>
<rect x="240" y="256" width="7" height="7" style="fill:white"/>
<rect x="248" y="256" width="7" height="7" style="fill:white"/>
<rect x="256" y="256" width="7" height="7" style="fill:white"/>
<rect x="320" y="256" width="7" height="7" style="fill:white"/>
<rect x="328" y="256" width="7" height="7" style="fill:white"/>
<rect x="352" y="256" width="7" height="7" style="fill:white"/>
<rect x="0" y="264" width="7" height="7" style="fill:white"/>
<rect x="16" y="264" width="7" height="7" style="fill:white"/>
<rect x="48" y="264" width="7" height="7" style="fill:white"/>
<rect x="80" y="264" width="7" height="7" style="fill:white"/>
<rect x="128" y="264" width="7" height="7" style="fill:white"/>
<rect x="136" y="264" width="7" height="7" style="fill:white"/>
<rect x="168" y="264" width="7" height="7" style="fill:white"/>
<rect x="184" y="264" width="7" height="7" style="fill:white"/>
<rect x="240" y="264" width="7" height="7" style="fill:white"/>
<rect x="312" y="264" width="7" height="7" style="fill:white"/>
<rect x="328" y="264" width="7" height="7" style="fill:white"/>
<rect x="352" y="264" width="7" height="7" style="fill:white"/>
<rect x="0" y="272" width="7" height="7" style="fill:white"/>
<rect x="80" y="272" width="7" height="7" style="fill:white"/>
<rect x="88" y="272" width="7" height="7" style="fill:white"/>
<rect x="104" y="272" width="7" height="7" style="fill:white"/>
<rect x="128" y="272" width="7" height="7" style="fill:white"/>
<rect x="136" y="272" width="7" height="7" style="fill:white"/>
<rect x="168" y="272" width="7" height="7" style="fill:white"/>
<rect x="240" y="272" width="7" height="7" style="fill:white"/>
<rect x="248" y="272" width="7" height="7" style="fill:white"/>
<rect x="256" y="272" width="7" height="7" style="fill:white"/>
<rect x="312" y="272" width="7" height="7" style="fill:white"/>
<rect x="352" y="272" width="7" height="7" style="fill:white"/>
<rect x="0" y="280" width="7" height="7" style="fill:white"/>
<rect x="80" y="280" width="7" height="7" style="fill:white"/>
<rect x="352" y="280" width="7" height="7" style="fill:white"/>
<rect x="0" y="288" width="7" height="7" style="fill:white"/>
<rect x="352" y="288" width="7" height="7" style="fill:white"/>
<rect x="0" y="296" width="7" height="7" style="fill:white"/>
<rect x="352" y="296" width="7" height="7" style="fill:white"/>
<rect x="0" y="304" width="7" height="7" style="fill:white"/>
<rect x="16" y="304" width="7" height="7" style="fill:white"/>
<rect x="24" y="304" width="7" height="7" style="fill:white"/>
<rect x="48" y="304" width="7" height="7" style="fill:white"/>
<rect x="56" y="304" width="7" height="7" style="fill:white"/>
<rect x="80" y="304" width="7" height="7" style="fill:white"/>
<rect x="88" y="304" width="7" height="7" style="fill:white"/>
<rect x="96" y="304" width="7" height="7" style="fill:white"/>
<rect x="104" y="304" width="7" height="7" style="fill:white"/>
<rect x="136" y="304" width="7" height="7" style="fill:white"/>
<rect x="144" y="304" width="7" height="7" style="fill:white"/>
<rect x="176" y="304" width="7" height="7" style="fill:white"/>
<rect x="184" y="304" width="7" height="7" style="fill:white"/>
<rect x="240" y="304" width="7" height="7" style="fill:white"/>
<rect x="248" y="304" width="7" height="7" style="fill:white"/>
<rect x="256" y="304" width="7" height="7" style="fill:white"/>
<rect x="320" y="304" width="7" height="7" style="fill:white"/>
<rect x="328" y="304" width="7" height="7" style="fill:white"/>
<rect x="352" y="304" width="7" height="7" style="fill:white"/>
<rect x="0" y="312" width="7" height="7" style="fill:white"/>
<rect x="16" y="312" width="7" height="7" style="fill:white"/>
<rect x="48" y="312" width="7" height="7" style="fill:white"/>
<rect x="80" y="312" width="7" height="7" style="fill:white"/>
<rect x="128" y="312" width="7" height="7" style="fill:white"/>
<rect x="144" y="312" width="7" height="7" style="fill:white"/>
<rect x="168" y="312" width="7" height="7" style="fill:white"/>
<rect x="184" y="312" width="7" height="7" style="fill:white"/>
<rect x="240" y="312" width="7" height="7" style="fill:white"/>
<rect x="312" y="312" width="7" height="7" style="fill:white"/>
<rect x="320" y="312" width="7" height="7" style="fill:white"/>
<rect x="328" y="312" width="7" height="7" style="fill:white"/>
<rect x="352" y="312" width="7" height="7" style="fill:white"/>
<rect x="0" y="320" width="7" height="7" style="fill:white"/>
<rect x="80" y="320" width="7" height="7" style="fill:white"/>
<rect x="88" y="320" width="7" height="7" style="fill:white"/>
<rect x="104" y="320" width="7" height="7" style="fill:white"/>
<rect x="128" y="320" width="7" height="7" style="fill:white"/>
<rect x="136" y="320" width="7" height="7" style="fill:white"/>
<rect x="168" y="320" width="7" height="7" style="fill:white"/>
<rect x="240" y="320" width="7" height="7" style="fill:white"/>
<rect x="248" y="320" width="7" height="7" style="fill:white"/>
<rect x="256" y="320" width="7" height="7" style="fill:white"/>
<rect x="312" y="320" width="7" height="7" style="fill:white"/>
<rect x="352" y="320" width="7" height="7" style="fill:white"/>
<rect x="0" y="328" width="7" height="7" style="fill:white"/>
<rect x="80" y="328" width="7" height="7" style="fill:white"/>
<rect x="168" y="328" width="7" height="7" style="fill:white"/>
<rect x="312" y="328" width="7" height="7" style="fill:white"/>
<rect x="352" y="328" width="7" height="7" style="fill:white"/>
<rect x="0" y="336" width="7" height="7" style="fill:white"/>
<rect x="352" y="336" width="7" height="7" style="fill:white"/>
<rect x="0" y="344" width="7" height="7" style="fill:white"/>
<rect x="352" y="344" width="7" height="7" style="fill:white"/>
<rect x="0" y="352" width="7" height="7" style="fill:white"/>
<rect x="16" y="352" width="7" height="7" style="fill:white"/>
<rect x="24" y="352" width="7" height="7" style="fill:white"/>
<rect x="48" y="352" width="7" height="7" style="fill:white"/>
<rect x="56" y="352" width="7" height="7" style="fill:white"/>
<rect x="80" y="352" width="7" height="7" style="fill:white"/>
<rect x="88" y="352" width="7" height="7" style="fill:white"/>
<rect x="96" y="352" width="7" height="7" style="fill:white"/>
<rect x="104" y="352" width="7" height="7" style="fill:white"/>
<rect x="136" y="352" width="7" height="7" style="fill:white"/>
<rect x="144" y="352" width="7" height="7" style="fill:white"/>
<rect x="176" y="352" width="7" height="7" style="fill:white"/>
<rect x="184" y="352" width="7" height="7" style="fill:white"/>
<rect x="240" y="352" width="7" height="7" style="fill:white"/>
<rect x="248" y="352" width="7" height="7" style="fill:white"/>
<rect x="256" y="352" width="7" height="7" style="fill:white"/>
<rect x="320" y="352" width="7" height="7" style="fill:white"/>
<rect x="352" y="352" width="7" height="7" style="fill:white"/>
<rect x="0" y="360" width="7" height="7" style="fill:white"/>
<rect x="16" y="360" width="7" height="7" style="fill:white"/>
<rect x="48" y="360" width="7" height="7" style="fill:white"/>
<rect x="80" y="360" width="7" height="7" style="fill:white"/>
<rect x="128" y="360" width="7" height="7" style="fill:white"/>
<rect x="136" y="360" width="7" height="7" style="fill:white"/>
<rect x="168" y="360" width="7" height="7" style="fill:white"/>
<rect x="176" y="360" width="7" height="7" style="fill:white"/>
<rect x="184" y="360" width="7" height="7" style="fill:white"/>
<rect x="240" y="360" width="7" height="7" style="fill:white"/>
<rect x="312" y="360" width="7" height="7" style="fill:white"/>
<rect x="320" y="360" width="7" height="7" style="fill:white"/>
<rect x="352" y="360" width="7" height="7" style="fill:white"/>
<rect x="0" y="368" width="7" height="7" style="fill:white"/>
<rect x="80" y="368" width="7" height="7" style="fill:white"/>
<rect x="88" y="368" width="7" height="7" style="fill:white"/>
<rect x="104" y="368" width="7" height="7" style="fill:white"/>
<rect x="128" y="368" width="7" height="7" style="fill:white"/>
<rect x="136" y="368" width="7" height="7" style="fill:white"/>
<rect x="168" y="368" width="7" height="7" style="fill:white"/>
<rect x="240" y="368" width="7" height="7" style="fill:white"/>
<rect x="248" y="368" width="7" height="7" style="fill:white"/>
<rect x="256" y="368" width="7" height="7" style="fill:white"/>
<rect x="312" y="368" width="7" height="7" style="fill:white"/>
<rect x="352" y="368" width="7" height="7" style="fill:white"/>
<rect x="0" y="376" width="7" height="7" style="fill:white"/>
<rect x="80" y="376" width="7" height="7" style="fill:white"/>
<rect x="168" y="376" width="7" height="7" style="fill:white"/>
<rect x="352" y="376" width="7" height="7" style="fill:white"/>
<rect x="0" y="384" width="7" height="7" style="fill:white"/>
<rect x="352" y="384" width="7" height="7" style="fill:white"/>
<rect x="0" y="392" width="7" height="7" style="fill:white"/>
<rect x="352" y="392" width="7" height="7" style="fill:white"/>
<rect x="0" y="400" width="7" height="7" style="fill:white"/>
<rect x="16" y="400" width="7" height="7" style="fill:white"/>
<rect x="24" y="400" width="7" height="7" style="fill:white"/>
<rect x="48" y="400" width="7" height="7" style="fill:white"/>
<rect x="56" y="400" width="7" height="7" style="fill:white"/>
<rect x="80" y="400" width="7" height="7" style="fill:white"/>
<rect x="88" y="400" width="7" height="7" style="fill:white"/>
<rect x="96" y="400" width="7" height="7" style="fill:white"/>
<rect x="104" y="400" width="7" height="7" style="fill:white"/>
<rect x="136" y="400" width="7" height="7" style="fill:white"/>
<rect x="144" y="400" width="7" height="7" style="fill:white"/>
<rect x="176" y="400" width="7" height="7" style="fill:white"/>
<rect x="184" y="400" width="7" height="7" style="fill:white"/>
<rect x="240" y="400" width="7" height="7" style="fill:white"/>
<rect x="248" y="400" width="7" height="7" style="fill:white"/>
<rect x="256" y="400" width="7" height="7" style="fill:white"/>
<rect x="320" y="400" width="7" height="7" style="fill:white"/>
<rect x="352" y="400" width="7" height="7" style="fill:white"/>
<rect x="0" y="408" width="7" height="7" style="fill:white"/>
<rect x="16" y="408" width="7" height="7" style="fill:white"/>
<rect x="48" y="408" width="7" height="7" style="fill:white"/>
<rect x="80" y="408" width="7" height="7" style="fill:white"/>
<rect x="128" y="408" width="7" height="7" style="fill:white"/>
<rect x="136" y="408" width="7" height="7" style="fill:white"/>
<rect x="168" y="408" width="7" height="7" style="fill:white"/>
<rect x="176" y="408" width="7" height="7" style="fill:white"/>
<rect x="184" y="408" width="7" height="7" style="fill:white"/>
<rect x="240" y="408" width="7" height="7" style="fill:white"/>
<rect x="312" y="408" width="7" height="7" style="fill:white"/>
<rect x="320" y="408" width="7" height="7" style="fill:white"/>
<rect x="352" y="408" width="7" height="7" style="fill:white"/>
<rect x="0" y="416" width="7" height="7" style="fill:white"/>
<rect x="80" y="416" width="7" height="7" style="fill:white"/>
<rect x="88" y="416" width="7" height="7" style="fill:white"/>
<rect x="104" y="416" width="7" height="7" style="fill:white"/>
<rect x="128" y="416" width="7" height="7" style="fill:white"/>
<rect x="136" y="416" width="7" height="7" style="fill:white"/>
<rect x="168" y="416" width="7" height="7" style="fill:white"/>
<rect x="240" y="416" width="7" height="7" style="fill:white"/>
<rect x="248" y="416" width="7" height="7" style="fill:white"/>
<rect x="256" y="416" width="7" height="7" style="fill:white"/>
<rect x="312" y="416" width="7" height="7" style="fill:white"/>
<rect x="352" y="416" width="7" height="7" style="fill:white"/>
<rect x="0" y="424" width="7" height="7" style="fill:white"/>
<rect x="80" y="424" width="7" height="7" style="fill:white"/>
<rect x="128" y="424" width="7" height="7" style="fill:white"/>
<rect x="352" y="424" width="7" height="7" style="fill:white"/>
<rect x="0" y="432" width="7" height="7" style="fill:white"/>
<rect x="352" y="432" width="7" height="7" style="fill:white"/>
<rect x="0" y="440" width="7" height="7" style="fill:white"/>
<rect x="352" y="440" width="7" height="7" style="fill:white"/>
<rect x="0" y="448" width="7" height="7" style="fill:white"/>
<rect x="16" y="448" width="7" height="7" style="fill:white"/>
<rect x="24" y="448" width="7" height="7" style="fill:white"/>
<rect x="48" y="448" width="7" height="7" style="fill:white"/>
<rect x="56" y="448" width="7" height="7" style="fill:white"/>
<rect x="80" y="448" width="7" height="7" style="fill:white"/>
<rect x="88" y="448" width="7" height="7" style="fill:white"/>
<rect x="96" y="448" width="7" height="7" style="fill:white"/>
<rect x="104" y="448" width="7" height="7" style="fill:white"/>
<rect x="136" y="448" width="7" height="7" style="fill:white"/>
<rect x="144" y="448" width="7" height="7" style="fill:white"/>
<rect x="176" y="448" width="7" height="7" style="fill:white"/>
<rect x="184" y="448" width="7" height="7" style="fill:white"/>
<rect x="240" y="448" width="7" height="7" style="fill:white"/>
<rect x="248" y="448" width="7" height="7" style="fill:white"/>
<rect x="256" y="448" width="7" height="7" style="fill:white"/>
<rect x="320" y="448" width="7" height="7" style="fill:white"/>
<rect x="352" y="448" width="7" height="7" style="fill:white"/>
<rect x="0" y="456" width="7" height="7" style="fill:white"/>
<rect x="16" y="456" width="7" height="7" style="fill:white"/>
<rect x="48" y="456" width="7" height="7" style="fill:white"/>
<rect x="80" y="456" width="7" height="7" style="fill:white"/>
<rect x="128" y="456" width="7" height="7" style="fill:white"/>
<rect x="136" y="456" width="7" height="7" style="fill:white"/>
<rect x="168" y="456" width="7" height="7" style="fill:white"/>
<rect x="176" y="456" width="7" height="7" style="fill:white"/>
<rect x="184" y="456" width="7" height="7" style="fill:white"/>
<rect x="240" y="456" width="7" height="7" style="fill:white"/>
<rect x="312" y="456" width="7" height="7" style="fill:white"/>
<rect x="320" y="456" width="7" height="7" style="fill:white"/>
<rect x="352" y="456" width="7" height="7" style="fill:white"/>
<rect x="0" y="464" width="7" height="7" style="fill:white"/>
<rect x="80" y="464" width="7" height="7" style="fill:white"/>
<rect x="88" y="464" width="7" height="7" style="fill:white"/>
<rect x="104" y="464" width="7" height="7" style="fill:white"/>
<rect x="128" y="464" width="7" height="7" style="fill:white"/>
<rect x="136" y="464" width="7" height="7" style="fill:white"/>
<rect x="168" y="464" width="7" height="7" style="fill:white"/>
<rect x="240" y="464" width="7" height="7" style="fill:white"/>
<rect x="248" y="464" width="7" height="7" style="fill:white"/>
<rect x="256" y="464" width="7" height="7" style="fill:white"/>
<rect x="352" y="464" width="7" height="7" style="fill:white"/>
<rect x="0" y="472" width="7" height="7" style="fill:white"/>
<rect x="80" y="472" width="7" height="7" style="fill:white"/>
<rect x="128" y="472" width="7" height="7" style="fill:white"/>
<rect x="168" y="472" width="7" height="7" style="fill:white"/>
<rect x="352" y="472" width="7" height="7" style="fill:white"/>
<rect x="0" y="480" width="7" height="7" style="fill:white"/>
<rect x="352" y="480" width="7" height="7" style="fill:white"/>
<rect x="0" y="488" width="7" height="7" style="fill:white"/>
<rect x="352" y="488" width="7" height="7" style="fill:white"/>
<rect x="0" y="496" width="7" height="7" style="fill:white"/>
<rect x="16" y="496" width="7" height="7" style="fill:white"/>
<rect x="24" y="496" width="7" height="7" style="fill:white"/>
<rect x="48" y="496" width="7" height="7" style="fill:white"/>
<rect x="56" y="496" width="7" height="7" style="fill:white"/>
<rect x="80" y="496" width="7" height="7" style="fill:white"/>
<rect x="88" y="496" width="7" height="7" style="fill:white"/>
<rect x="96" y="496" width="7" height="7" style="fill:white"/>
<rect x="104" y="496" width="7" height="7" style="fill:white"/>
<rect x="128" y="496" width="7" height="7" style="fill:white"/>
<rect x="136" y="496" width="7" height="7" style="fill:white"/>
<rect x="144" y="496" width="7" height="7" style="fill:white"/>
<rect x="152" y="496" width="7" height="7" style="fill:white"/>
<rect x="184" y="496" width="7" height="7" style="fill:white"/>
<rect x="240" y="496" width="7" height="7" style="fill:white"/>
<rect x="248" y="496" width="7" height="7" style="fill:white"/>
<rect x="256" y="496" width="7" height="7" style="fill:white"/>
<rect x="312" y="496" width="7" height="7" style="fill:white"/>
<rect x="320" y="496" width="7" height="7" style="fill:white"/>
<rect x="328" y="496" width="7" height="7" style="fill:white"/>
<rect x="336" y="496" width="7" height="7" style="fill:white"/>
<rect x="352" y="496" width="7" height="7" style="fill:white"/>
<rect x="0" y="504" width="7" height="7" style="fill:white"/>
<rect x="16" y="504" width="7" height="7" style="fill:white"/>
<rect x="48" y="504" width="7" height="7" style="fill:white"/>
<rect x="80" y="504" width="7" height="7" style="fill:white"/>
<rect x="128" y="504" width="7" height="7" style="fill:white"/>
<rect x="136" y="504" width="7" height="7" style="fill:white"/>
<rect x="152" y="504" width="7" height="7" style="fill:white"/>
<rect x="176" y="504" width="7" height="7" style="fill:white"/>
<rect x="184" y="504" width="7" height="7" style="fill:white"/>
<rect x="240" y="504" width="7" height="7" style="fill:white"/>
<rect x="312" y="504" width="7" height="7" style="fill:white"/>
<rect x="320" y="504" width="7" height="7" style="fill:white"/>
<rect x="336" y="504" width="7" height="7" style="fill:white"/>
<rect x="352" y="504" width="7" height="7" style="fill:white"/>
<rect x="0" y="512" width="7" height="7" style="fill:white"/>
<rect x="80" y="512" width="7" height="7" style="fill:white"/>
<rect x="88" y="512" width="7" height="7" style="fill:white"/>
<rect x="104" y="512" width="7" height="7" style="fill:white"/>
<rect x="128" y="512" width="7" height="7" style="fill:white"/>
<rect x="144" y="512" width="7" height="7" style="fill:white"/>
<rect x="152" y="512" width="7" height="7" style="fill:white"/>
<rect x="240" y="512" width="7" height="7" style="fill:white"/>
<rect x="248" y="512" width="7" height="7" style="fill:white"/>
<rect x="256" y="512" width="7" height="7" style="fill:white"/>
<rect x="312" y="512" width="7" height="7" style="fill:white"/>
<rect x="328" y="512" width="7" height="7" style="fill:white"/>
<rect x="336" y="512" width="7" height="7" style="fill:white"/>
<rect x="352" y="512" width="7" height="7" style="fill:white"/>
<rect x="0" y="520" width="7" height="7" style="fill:white"/>
<rect x="80" y="520" width="7" height="7" style="fill:white"/>
<rect x="128" y="520" width="7" height="7" style="fill:white"/>
<rect x="136" y="520" width="7" height="7" style="fill:white"/>
<rect x="144" y="520" width="7" height="7" style="fill:white"/>
<rect x="152" y="520" width="7" height="7" style="fill:white"/>
<rect x="312" y="520" width="7" height="7" style="fill:white"/>
<rect x="320" y="520" width="7" height="7" style="fill:white"/>
<rect x="328" y="520" width="7" height="7" style="fill:white"/>
<rect x="336" y="520" width="7" height="7" style="fill:white"/>
<rect x="352" y="520" width="7" height="7" style="fill:white"/>
<rect x="0" y="528" width="7" height="7" style="fill:white"/>
<rect x="352" y="528" width="7" height="7" style="fill:white"/>
<rect x="0" y="536" width="7" height="7" style="fill:white"/>
<rect x="352" y="536" width="7" height="7" style="fill:white"/>
<rect x="0" y="544" width="7" height="7" style="fill:white"/>
<rect x="352" y="544" width="7" height="7" style="fill:white"/>
<rect x="0" y="552" width="7" height="7" style="fill:white"/>
<rect x="16" y="552" width="7" height="7" style="fill:white"/>
<rect x="32" y="552" width="7" height="7" style="fill:white"/>
<rect x="48" y="552" width="7" height="7" style="fill:white"/>
<rect x="64" y="552" width="7" height="7" style="fill:white"/>
<rect x="352" y="552" width="7" height="7" style="fill:white"/>
<rect x="0" y="560" width="7" height="7" style="fill:white"/>
<rect x="352" y="560" width="7" height="7" style="fill:white"/>
<rect x="0" y="568" width="7" height="7" style="fill:white"/>
<rect x="8" y="568" width="7" height="7" style="fill:white"/>
<rect x="16" y="568" width="7" height="7" style="fill:white"/>
<rect x="24" y="568" width="7" height="7" style="fill:white"/>
<rect x="32" y="568" width="7" height="7" style="fill:white"/>
<rect x="40" y="568" width="7" height="7" style="fill:white"/>
<rect x="48" y="568" width="7" height="7" style="fill:white"/>
<rect x="56" y="568" width="7" height="7" style="fill:white"/>
<rect x="64" y="568" width="7" height="7" style="fill:white"/>
<rect x="72" y="568" width="7" height="7" style="fill:white"/>
<rect x="80" y="568" width="7" height="7" style="fill:white"/>
<rect x="88" y="568" width="7" height="7" style="fill:white"/>
<rect x="96" y="568" width="7" height="7" style="fill:white"/>
<rect x="104" y="568" width="7" height="7" style="fill:white"/>
<rect x="112" y="568" width="7" height="7" style="fill:white"/>
<rect x="120" y="568" width="7" height="7" style="fill:white"/>
<rect x="128" y="568" width="7" height="7" style="fill:white"/>
<rect x="136" y="568" width="7" height="7" style="fill:white"/>
<rect x="144" y="568" width="7" height="7" style="fill:white"/>
<rect x="152" y="568" width="7" height="7" style="fill:white"/>
<rect x="160" y="568" width="7" height="7" style="fill:white"/>
<rect x="168" y="568" width="7" height="7" style="fill:white"/>
<rect x="176" y="568" width="7" height="7" style="fill:white"/>
<rect x="184" y="568" width="7" height="7" style="fill:white"/>
<rect x="192" y="568" width="7" height="7" style="fill:white"/>
<rect x="200" y="568" width="7" height="7" style="fill:white"/>
<rect x="208" y="568" width="7" height="7" style="fill:white"/>
<rect x="216" y="568" width="7" height="7" style="fill:white"/>
<rect x="224" y="568" width="7" height="7" style="fill:white"/>
<rect x="232" y="568" width="7" height="7" style="fill:white"/>
<rect x="240" y="568" width="7" height="7" style="fill:white"/>
<rect x="248" y="568" width="7" height="7" style="fill:white"/>
<rect x="256" y="568" width="7" height="7" style="fill:white"/>
<rect x="264" y="568" width="7" height="7" style="fill:white"/>
<rect x="272" y="568" width="7" height="7" style="fill:white"/>
<rect x="280" y="568" width="7" height="7" style="fill:white"/>
<rect x="288" y="568" width="7" height="7" style="fill:white"/>
<rect x="296" y="568" width="7" height="7" style="fill:white"/>
<rect x="304" y="568" width="7" height="7" style="fill:white"/>
<rect x="312" y="568" width="7" height="7" style="fill:white"/>
<rect x="320" y="568" width="7" height="7" style="fill:white"/>
<rect x="328" y="568" width="7" height="7" style="fill:white"/>
<rect x="336" y="568" width="7" height="7" style="fill:white"/>
<rect x="344" y="568" width="7" height="7" style="fill:white"/>
<rect x="352" y="568" width="7" height="7" style="fill:white"/>
<rect x="124.0" y="60.0" width="32" height="32" style="fill:green;opacity:0.5"/>
<text x="140.0" y="76.0" dominant-baseline="middle" text-anchor="middle" fill="white" style="paint-order: stroke; fill: white; stroke: black; stroke-width: 2px; font:24px bold sans;">4</text>
<rect x="164.0" y="60.0" width="32" height="32" style="fill:green;opacity:0.5"/>
<text x="180.0" y="76.0" dominant-baseline="middle" text-anchor="middle" fill="white" style="paint-order: stroke; fill: white; stroke: black; stroke-width: 2px; font:24px bold sans;">2</text>
<rect x="308.0" y="60.0" width="32" height="32" style="fill:green;opacity:0.5"/>
<text x="324.0" y="76.0" dominant-baseline="middle" text-anchor="middle" fill="white" style="paint-order: stroke; fill: white; stroke: black; stroke-width: 2px; font:24px bold sans;">2</text>
<rect x="124.0" y="108.0" width="32" height="32" style="fill:green;opacity:0.5"/>
<text x="140.0" y="124.0" dominant-baseline="middle" text-anchor="middle" fill="white" style="paint-order: stroke; fill: white; stroke: black; stroke-width: 2px; font:24px bold sans;">4</text>
<rect x="164.0" y="108.0" width="32" height="32" style="fill:green;opacity:0.5"/>
<text x="180.0" y="124.0" dominant-baseline="middle" text-anchor="middle" fill="white" style="paint-order: stroke; fill: white; stroke: black; stroke-width: 2px; font:24px bold sans;">3</text>
<rect x="308.0" y="108.0" width="24" height="24" style="fill:green;opacity:0.5"/>
<text x="320.0" y="120.0" dominant-baseline="middle" text-anchor="middle" fill="white" style="paint-order: stroke; fill: white; stroke: black; stroke-width: 2px; font:24px bold sans;">1</text>
<rect x="124.0" y="156.0" width="32" height="32" style="fill:green;opacity:0.5"/>
<text x="140.0" y="172.0" dominant-baseline="middle" text-anchor="middle" fill="white" style="paint-order: stroke; fill: white; stroke: black; stroke-width: 2px; font:24px bold sans;">4</text>
<rect x="164.0" y="156.0" width="32" height="32" style="fill:green;opacity:0.5"/>
<text x="180.0" y="172.0" dominant-baseline="middle" text-anchor="middle" fill="white" style="paint-order: stroke; fill: white; stroke: black; stroke-width: 2px; font:24px bold sans;">4</text>
<rect x="308.0" y="156.0" width="24" height="24" style="fill:green;opacity:0.5"/>
<text x="320.0" y="168.0" dominant-baseline="middle" text-anchor="middle" fill="white" style="paint-order: stroke; fill: white; stroke: black; stroke-width: 2px; font:24px bold sans;">1</text>
<rect x="124.0" y="204.0" width="32" height="32" style="fill:green;opacity:0.5"/>
<text x="140.0" y="220.0" dominant-baseline="middle" text-anchor="middle" fill="white" style="paint-order: stroke; fill: white; stroke: black; stroke-width: 2px; font:24px bold sans;">4</text>
<rect x="164.0" y="204.0" width="32" height="32" style="fill:green;opacity:0.5"/>
<text x="180.0" y="220.0" dominant-baseline="middle" text-anchor="middle" fill="white" style="paint-order: stroke; fill: white; stroke: black; stroke-width: 2px; font:24px bold sans;">5</text>
<rect x="308.0" y="204.0" width="24" height="24" style="fill:green;opacity:0.5"/>
<text x="320.0" y="216.0" dominant-baseline="middle" text-anchor="middle" fill="white" style="paint-order: stroke; fill: white; stroke: black; stroke-width: 2px; font:24px bold sans;">0</text>
<rect x="124.0" y="252.0" width="32" height="32" style="fill:green;opacity:0.5"/>
<text x="140.0" y="268.0" dominant-baseline="middle" text-anchor="middle" fill="white" style="paint-order: stroke; fill: white; stroke: black; stroke-width: 2px; font:24px bold sans;">5</text>
<rect x="164.0" y="252.0" width="32" height="32" style="fill:green;opacity:0.5"/>
<text x="180.0" y="268.0" dominant-baseline="middle" text-anchor="middle" fill="white" style="paint-order: stroke; fill: white; stroke: black; stroke-width: 2px; font:24px bold sans;">2</text>
<rect x="308.0" y="252.0" width="32" height="32" style="fill:green;opacity:0.5"/>
<text x="324.0" y="268.0" dominant-baseline="middle" text-anchor="middle" fill="white" style="paint-order: stroke; fill: white; stroke: black; stroke-width: 2px; font:24px bold sans;">2</text>
<rect x="124.0" y="300.0" width="32" height="32" style="fill:green;opacity:0.5"/>
<text x="140.0" y="316.0" dominant-baseline="middle" text-anchor="middle" fill="white" style="paint-order: stroke; fill: white; stroke: black; stroke-width: 2px; font:24px bold sans;">6</text>
<rect x="164.0" y="300.0" width="32" height="40" style="fill:green;opacity:0.5"/>
<text x="180.0" y="320.0" dominant-baseline="middle" text-anchor="middle" fill="white" style="paint-order: stroke; fill: white; stroke: black; stroke-width: 2px; font:24px bold sans;">-2</text>
<rect x="308.0" y="300.0" width="32" height="40" style="fill:green;opacity:0.5"/>
<text x="324.0" y="320.0" dominant-baseline="middle" text-anchor="middle" fill="white" style="paint-order: stroke; fill: white; stroke: black; stroke-width: 2px; font:24px bold sans;">-3</text>
<rect x="124.0" y="348.0" width="32" height="32" style="fill:green;opacity:0.5"/>
<text x="140.0" y="364.0" dominant-baseline="middle" text-anchor="middle" fill="white" style="paint-order: stroke; fill: white; stroke: black; stroke-width: 2px; font:24px bold sans;">5</text>
<rect x="164.0" y="348.0" width="32" height="40" style="fill:green;opacity:0.5"/>
<text x="180.0" y="368.0" dominant-baseline="middle" text-anchor="middle" fill="white" style="paint-order: stroke; fill: white; stroke: black; stroke-width: 2px; font:24px bold sans;">-3</text>
<rect x="308.0" y="348.0" width="24" height="32" style="fill:green;opacity:0.5"/>
<text x="320.0" y="364.0" dominant-baseline="middle" text-anchor="middle" fill="white" style="paint-order: stroke; fill: white; stroke: black; stroke-width: 2px; font:24px bold sans;">-1</text>
<rect x="124.0" y="396.0" width="32" height="40" style="fill:green;opacity:0.5"/>
<text x="140.0" y="416.0" dominant-baseline="middle" text-anchor="middle" fill="white" style="paint-order: stroke; fill: white; stroke: black; stroke-width: 2px; font:24px bold sans;">-5</text>
<rect x="164.0" y="396.0" width="32" height="32" style="fill:green;opacity:0.5"/>
<text x="180.0" y="412.0" dominant-baseline="middle" text-anchor="middle" fill="white" style="paint-order: stroke; fill: white; stroke: black; stroke-width: 2px; font:24px bold sans;">3</text>
<rect x="308.0" y="396.0" width="24" height="32" style="fill:green;opacity:0.5"/>
<text x="320.0" y="412.0" dominant-baseline="middle" text-anchor="middle" fill="white" style="paint-order: stroke; fill: white; stroke: black; stroke-width: 2px; font:24px bold sans;">-1</text>
<rect x="124.0" y="444.0" width="32" height="40" style="fill:green;opacity:0.5"/>
<text x="140.0" y="464.0" dominant-baseline="middle" text-anchor="middle" fill="white" style="paint-order: stroke; fill: white; stroke: black; stroke-width: 2px; font:24px bold sans;">-5</text>
<rect x="164.0" y="444.0" width="32" height="40" style="fill:green;opacity:0.5"/>
<text x="180.0" y="464.0" dominant-baseline="middle" text-anchor="middle" fill="white" style="paint-order: stroke; fill: white; stroke: black; stroke-width: 2px; font:24px bold sans;">-3</text>
<rect x="308.0" y="444.0" width="24" height="24" style="fill:green;opacity:0.5"/>
<text x="320.0" y="456.0" dominant-baseline="middle" text-anchor="middle" fill="white" style="paint-order: stroke; fill: white; stroke: black; stroke-width: 2px; font:24px bold sans;">1</text>
<rect x="172.0" y="492.0" width="24" height="24" style="fill:green;opacity:0.5"/>
<text x="184.0" y="504.0" dominant-baseline="middle" text-anchor="middle" fill="white" style="paint-order: stroke; fill: white; stroke: black; stroke-width: 2px; font:24px bold sans;">1</text>
</svg>
