<svg xmlns="http://www.w3.org/2000/svg" version="1.1" width="624" height="192">
<rect width="624" height="192" style="fill:black"/>
<rect x="0" y="0" width="7" height="7" style="fill:white"/>
<rect x="8" y="0" width="7" height="7" style="fill:white"/>
<rect x="16" y="0" width="7" height="7" style="fill:white"/>
<rect x="24" y="0" width="7" height="7" style="fill:white"/>
<rect x="32" y="0" width="7" height="7" style="fill:white"/>
<rect x="40" y="0" width="7" height="7" style="fill:white"/>
<rect x="48" y="0" width="7" height="7" style="fill:white"/>
<rect x="56" y="0" width="7" height="7" style="fill:white"/>
<rect x="64" y="0" width="7" height="7" style="fill:white"/>
<rect x="72" y="0" width="7" height="7" style="fill:white"/>
<rect x="80" y="0" width="7" height="7" style="fill:white"/>
<rect x="88" y="0" width="7" height="7" style="fill:white"/>
<rect x="96" y="0" width="7" height="7" style="fill:white"/>
<rect x="104" y="0" width="7" height="7" style="fill:white"/>
<rect x="112" y="0" width="7" height="7" style="fill:white"/>
<rect x="120" y="0" width="7" height="7" style="fill:white"/>
<rect x="128" y="0" width="7" height="7" style="fill:white"/>
<rect x="136" y="0" width="7" height="7" style="fill:white"/>
<rect x="144" y="0" width="7" height="7" style="fill:white"/>
<rect x="152" y="0" width="7" height="7" style="fill:white"/>
<rect x="160" y="0" width="7" height="7" style="fill:white"/>
<rect x="168" y="0" width="7" height="7" style="fill:white"/>
<rect x="176" y="0" width="7" height="7" style="fill:white"/>
<rect x="184" y="0" width="7" height="7" style="fill:white"/>
<rect x="192" y="0" width="7" height="7" style="fill:white"/>
<rect x="200" y="0" width="7" height="7" style="fill:white"/>
<rect x="208" y="0" width="7" height="7" style="fill:white"/>
<rect x="216" y="0" width="7" height="7" style="fill:white"/>
<rect x="224" y="0" width="7" height="7" style="fill:white"/>
<rect x="232" y="0" width="7" height="7" style="fill:white"/>
<rect x="240" y="0" width="7" height="7" style="fill:white"/>
<rect x="248" y="0" width="7" height="7" style="fill:white"/>
<rect x="256" y="0" width="7" height="7" style="fill:white"/>
<rect x="264" y="0" width="7" height="7" style="fill:white"/>
<rect x="272" y="0" width="7" height="7" style="fill:white"/>
<rect x="280" y="0" width="7" height="7" style="fill:white"/>
<rect x="288" y="0" width="7" height="7" style="fill:white"/>
<rect x="296" y="0" width="7" height="7" style="fill:white"/>
<rect x="304" y="0" width="7" height="7" style="fill:white"/>
<rect x="312" y="0" width="7" height="7" style="fill:white"/>
<rect x="320" y="0" width="7" height="7" style="fill:white"/>
<rect x="328" y="0" width="7" height="7" style="fill:white"/>
<rect x="336" y="0" width="7" height="7" style="fill:white"/>
<rect x="344" y="0" width="7" height="7" style="fill:white"/>
<rect x="352" y="0" width="7" height="7" style="fill:white"/>
<rect x="360" y="0" width="7" height="7" style="fill:white"/>
<rect x="368" y="0" width="7" height="7" style="fill:white"/>
<rect x="376" y="0" width="7" height="7" style="fill:white"/>
<rect x="384" y="0" width="7" height="7" style="fill:white"/>
<rect x="392" y="0" width="7" height="7" style="fill:white"/>
<rect x="400" y="0" width="7" height="7" style="fill:white"/>
<rect x="408" y="0" width="7" height="7" style="fill:white"/>
<rect x="416" y="0" width="7" height="7" style="fill:white"/>
<rect x="424" y="0" width="7" height="7" style="fill:white"/>
<rect x="432" y="0" width="7" height="7" style="fill:white"/>
<rect x="440" y="0" width="7" height="7" style="fill:white"/>
<rect x="448" y="0" width="7" height="7" style="fill:white"/>
<rect x="456" y="0" width="7" height="7" style="fill:white"/>
<rect x="464" y="0" width="7" height="7" style="fill:white"/>
<rect x="472" y="0" width="7" height="7" style="fill:white"/>
<rect x="480" y="0" width="7" height="7" style="fill:white"/>
<rect x="488" y="0" width="7" height="7" style="fill:white"/>
<rect x="496" y="0" width="7" height="7" style="fill:white"/>
<rect x="504" y="0" width="7" height="7" style="fill:white"/>
<rect x="512" y="0" width="7" height="7" style="fill:white"/>
<rect x="520" y="0" width="7" height="7" style="fill:white"/>
<rect x="528" y="0" width="7" height="7" style="fill:white"/>
<rect x="536" y="0" width="7" height="7" style="fill:white"/>
<rect x="544" y="0" width="7" height="7" style="fill:white"/>
<rect x="552" y="0" width="7" height="7" style="fill:white"/>
<rect x="560" y="0" width="7" height="7" style="fill:white"/>
<rect x="568" y="0" width="7" height="7" style="fill:white"/>
<rect x="576" y="0" width="7" height="7" style="fill:white"/>
<rect x="584" y="0" width="7" height="7" style="fill:white"/>
<rect x="592" y="0" width="7" height="7" style="fill:white"/>
<rect x="600" y="0" width="7" height="7" style="fill:white"/>
<rect x="608" y="0" width="7" height="7" style="fill:white"/>
<rect x="616" y="0" width="7" height="7" style="fill:white"/>
<rect x="0" y="8" width="7" height="7" style="fill:white"/>
<rect x="616" y="8" width="7" height="7" style="fill:white"/>
<rect x="0" y="16" width="7" height="7" style="fill:white"/>
<rect x="16" y="16" width="7" height="7" style="fill:white"/>
<rect x="24" y="16" width="7" height="7" style="fill:white"/>
<rect x="32" y="16" width="7" height="7" style="fill:white"/>
<rect x="616" y="16" width="7" height="7" style="fill:white"/>
<rect x="0" y="24" width="7" height="7" style="fill:white"/>
<rect x="16" y="24" width="7" height="7" style="fill:white"/>
<rect x="24" y="24" width="7" height="7" style="fill:white"/>
<rect x="616" y="24" width="7" height="7" style="fill:white"/>
<rect x="0" y="32" width="7" height="7" style="fill:white"/>
<rect x="16" y="32" width="7" height="7" style="fill:white"/>
<rect x="24" y="32" width="7" height="7" style="fill:white"/>
<rect x="616" y="32" width="7" height="7" style="fill:white"/>
<rect x="0" y="40" width="7" height="7" style="fill:white"/>
<rect x="616" y="40" width="7" height="7" style="fill:white"/>
<rect x="0" y="48" width="7" height="7" style="fill:white"/>
<rect x="616" y="48" width="7" height="7" style="fill:white"/>
<rect x="0" y="56" width="7" height="7" style="fill:white"/>
<rect x="16" y="56" width="7" height="7" style="fill:white"/>
<rect x="24" y="56" width="7" height="7" style="fill:white"/>
<rect x="48" y="56" width="7" height="7" style="fill:white"/>
<rect x="56" y="56" width="7" height="7" style="fill:white"/>
<rect x="80" y="56" width="7" height="7" style="fill:white"/>
<rect x="88" y="56" width="7" height="7" style="fill:white"/>
<rect x="112" y="56" width="7" height="7" style="fill:white"/>
<rect x="120" y="56" width="7" height="7" style="fill:white"/>
<rect x="128" y="56" width="7" height="7" style="fill:white"/>
<rect x="152" y="56" width="7" height="7" style="fill:white"/>
<rect x="160" y="56" width="7" height="7" style="fill:white"/>
<rect x="168" y="56" width="7" height="7" style="fill:white"/>
<rect x="176" y="56" width="7" height="7" style="fill:white"/>
<rect x="200" y="56" width="7" height="7" style="fill:white"/>
<rect x="208" y="56" width="7" height="7" style="fill:white"/>
<rect x="216" y="56" width="7" height="7" style="fill:white"/>
<rect x="224" y="56" width="7" height="7" style="fill:white"/>
<rect x="248" y="56" width="7" height="7" style="fill:white"/>
<rect x="256" y="56" width="7" height="7" style="fill:white"/>
<rect x="264" y="56" width="7" height="7" style="fill:white"/>
<rect x="272" y="56" width="7" height="7" style="fill:white"/>
<rect x="280" y="56" width="7" height="7" style="fill:white"/>
<rect x="336" y="56" width="7" height="7" style="fill:white"/>
<rect x="344" y="56" width="7" height="7" style="fill:white"/>
<rect x="352" y="56" width="7" height="7" style="fill:white"/>
<rect x="408" y="56" width="7" height="7" style="fill:white"/>
<rect x="416" y="56" width="7" height="7" style="fill:white"/>
<rect x="440" y="56" width="7" height="7" style="fill:white"/>
<rect x="448" y="56" width="7" height="7" style="fill:white"/>
<rect x="456" y="56" width="7" height="7" style="fill:white"/>
<rect x="464" y="56" width="7" height="7" style="fill:white"/>
<rect x="488" y="56" width="7" height="7" style="fill:white"/>
<rect x="496" y="56" width="7" height="7" style="fill:white"/>
<rect x="520" y="56" width="7" height="7" style="fill:white"/>
<rect x="528" y="56" width="7" height="7" style="fill:white"/>
<rect x="536" y="56" width="7" height="7" style="fill:white"/>
<rect x="544" y="56" width="7" height="7" style="fill:white"/>
<rect x="568" y="56" width="7" height="7" style="fill:white"/>
<rect x="576" y="56" width="7" height="7" style="fill:white"/>
<rect x="584" y="56" width="7" height="7" style="fill:white"/>
<rect x="592" y="56" width="7" height="7" style="fill:white"/>
<rect x="600" y="56" width="7" height="7" style="fill:white"/>
<rect x="616" y="56" width="7" height="7" style="fill:white"/>
<rect x="0" y="64" width="7" height="7" style="fill:white"/>
<rect x="16" y="64" width="7" height="7" style="fill:white"/>
<rect x="48" y="64" width="7" height="7" style="fill:white"/>
<rect x="80" y="64" width="7" height="7" style="fill:white"/>
<rect x="112" y="64" width="7" height="7" style="fill:white"/>
<rect x="120" y="64" width="7" height="7" style="fill:white"/>
<rect x="152" y="64" width="7" height="7" style="fill:white"/>
<rect x="160" y="64" width="7" height="7" style="fill:white"/>
<rect x="176" y="64" width="7" height="7" style="fill:white"/>
<rect x="200" y="64" width="7" height="7" style="fill:white"/>
<rect x="208" y="64" width="7" height="7" style="fill:white"/>
<rect x="224" y="64" width="7" height="7" style="fill:white"/>
<rect x="248" y="64" width="7" height="7" style="fill:white"/>
<rect x="256" y="64" width="7" height="7" style="fill:white"/>
<rect x="280" y="64" width="7" height="7" style="fill:white"/>
<rect x="336" y="64" width="7" height="7" style="fill:white"/>
<rect x="408" y="64" width="7" height="7" style="fill:white"/>
<rect x="440" y="64" width="7" height="7" style="fill:white"/>
<rect x="448" y="64" width="7" height="7" style="fill:white"/>
<rect x="464" y="64" width="7" height="7" style="fill:white"/>
<rect x="488" y="64" width="7" height="7" style="fill:white"/>
<rect x="520" y="64" width="7" height="7" style="fill:white"/>
<rect x="528" y="64" width="7" height="7" style="fill:white"/>
<rect x="544" y="64" width="7" height="7" style="fill:white"/>
<rect x="568" y="64" width="7" height="7" style="fill:white"/>
<rect x="576" y="64" width="7" height="7" style="fill:white"/>
<rect x="600" y="64" width="7" height="7" style="fill:white"/>
<rect x="616" y="64" width="7" height="7" style="fill:white"/>
<rect x="0" y="72" width="7" height="7" style="fill:white"/>
<rect x="112" y="72" width="7" height="7" style="fill:white"/>
<rect x="120" y="72" width="7" height="7" style="fill:white"/>
<rect x="152" y="72" width="7" height="7" style="fill:white"/>
<rect x="168" y="72" width="7" height="7" style="fill:white"/>
<rect x="176" y="72" width="7" height="7" style="fill:white"/>
<rect x="200" y="72" width="7" height="7" style="fill:white"/>
<rect x="224" y="72" width="7" height="7" style="fill:white"/>
<rect x="248" y="72" width="7" height="7" style="fill:white"/>
<rect x="264" y="72" width="7" height="7" style="fill:white"/>
<rect x="280" y="72" width="7" height="7" style="fill:white"/>
<rect x="336" y="72" width="7" height="7" style="fill:white"/>
<rect x="344" y="72" width="7" height="7" style="fill:white"/>
<rect x="352" y="72" width="7" height="7" style="fill:white"/>
<rect x="440" y="72" width="7" height="7" style="fill:white"/>
<rect x="456" y="72" width="7" height="7" style="fill:white"/>
<rect x="464" y="72" width="7" height="7" style="fill:white"/>
<rect x="520" y="72" width="7" height="7" style="fill:white"/>
<rect x="544" y="72" width="7" height="7" style="fill:white"/>
<rect x="568" y="72" width="7" height="7" style="fill:white"/>
<rect x="584" y="72" width="7" height="7" style="fill:white"/>
<rect x="600" y="72" width="7" height="7" style="fill:white"/>
<rect x="616" y="72" width="7" height="7" style="fill:white"/>
<rect x="0" y="80" width="7" height="7" style="fill:white"/>
<rect x="152" y="80" width="7" height="7" style="fill:white"/>
<rect x="160" y="80" width="7" height="7" style="fill:white"/>
<rect x="168" y="80" width="7" height="7" style="fill:white"/>
<rect x="176" y="80" width="7" height="7" style="fill:white"/>
<rect x="200" y="80" width="7" height="7" style="fill:white"/>
<rect x="208" y="80" width="7" height="7" style="fill:white"/>
<rect x="216" y="80" width="7" height="7" style="fill:white"/>
<rect x="224" y="80" width="7" height="7" style="fill:white"/>
<rect x="248" y="80" width="7" height="7" style="fill:white"/>
<rect x="264" y="80" width="7" height="7" style="fill:white"/>
<rect x="272" y="80" width="7" height="7" style="fill:white"/>
<rect x="280" y="80" width="7" height="7" style="fill:white"/>
<rect x="440" y="80" width="7" height="7" style="fill:white"/>
<rect x="448" y="80" width="7" height="7" style="fill:white"/>
<rect x="456" y="80" width="7" height="7" style="fill:white"/>
<rect x="464" y="80" width="7" height="7" style="fill:white"/>
<rect x="520" y="80" width="7" height="7" style="fill:white"/>
<rect x="528" y="80" width="7" height="7" style="fill:white"/>
<rect x="536" y="80" width="7" height="7" style="fill:white"/>
<rect x="544" y="80" width="7" height="7" style="fill:white"/>
<rect x="568" y="80" width="7" height="7" style="fill:white"/>
<rect x="584" y="80" width="7" height="7" style="fill:white"/>
<rect x="592" y="80" width="7" height="7" style="fill:white"/>
<rect x="600" y="80" width="7" height="7" style="fill:white"/>
<rect x="616" y="80" width="7" height="7" style="fill:white"/>
<rect x="0" y="88" width="7" height="7" style="fill:white"/>
<rect x="248" y="88" width="7" height="7" style="fill:white"/>
<rect x="256" y="88" width="7" height="7" style="fill:white"/>
<rect x="264" y="88" width="7" height="7" style="fill:white"/>
<rect x="272" y="88" width="7" height="7" style="fill:white"/>
<rect x="280" y="88" width="7" height="7" style="fill:white"/>
<rect x="568" y="88" width="7" height="7" style="fill:white"/>
<rect x="576" y="88" width="7" height="7" style="fill:white"/>
<rect x="584" y="88" width="7" height="7" style="fill:white"/>
<rect x="592" y="88" width="7" height="7" style="fill:white"/>
<rect x="600" y="88" width="7" height="7" style="fill:white"/>
<rect x="616" y="88" width="7" height="7" style="fill:white"/>
<rect x="0" y="96" width="7" height="7" style="fill:white"/>
<rect x="616" y="96" width="7" height="7" style="fill:white"/>
<rect x="0" y="104" width="7" height="7" style="fill:white"/>
<rect x="616" y="104" width="7" height="7" style="fill:white"/>
<rect x="0" y="112" width="7" height="7" style="fill:white"/>
<rect x="16" y="112" width="7" height="7" style="fill:white"/>
<rect x="24" y="112" width="7" height="7" style="fill:white"/>
<rect x="48" y="112" width="7" height="7" style="fill:white"/>
<rect x="56" y="112" width="7" height="7" style="fill:white"/>
<rect x="80" y="112" width="7" height="7" style="fill:white"/>
<rect x="88" y="112" width="7" height="7" style="fill:white"/>
<rect x="112" y="112" width="7" height="7" style="fill:white"/>
<rect x="120" y="112" width="7" height="7" style="fill:white"/>
<rect x="128" y="112" width="7" height="7" style="fill:white"/>
<rect x="152" y="112" width="7" height="7" style="fill:white"/>
<rect x="160" y="112" width="7" height="7" style="fill:white"/>
<rect x="168" y="112" width="7" height="7" style="fill:white"/>
<rect x="176" y="112" width="7" height="7" style="fill:white"/>
<rect x="200" y="112" width="7" height="7" style="fill:white"/>
<rect x="208" y="112" width="7" height="7" style="fill:white"/>
<rect x="216" y="112" width="7" height="7" style="fill:white"/>
<rect x="224" y="112" width="7" height="7" style="fill:white"/>
<rect x="248" y="112" width="7" height="7" style="fill:white"/>
<rect x="256" y="112" width="7" height="7" style="fill:white"/>
<rect x="264" y="112" width="7" height="7" style="fill:white"/>
<rect x="272" y="112" width="7" height="7" style="fill:white"/>
<rect x="328" y="112" width="7" height="7" style="fill:white"/>
<rect x="336" y="112" width="7" height="7" style="fill:white"/>
<rect x="344" y="112" width="7" height="7" style="fill:white"/>
<rect x="400" y="112" width="7" height="7" style="fill:white"/>
<rect x="408" y="112" width="7" height="7" style="fill:white"/>
<rect x="416" y="112" width="7" height="7" style="fill:white"/>
<rect x="424" y="112" width="7" height="7" style="fill:white"/>
<rect x="616" y="112" width="7" height="7" style="fill:white"/>
<rect x="0" y="120" width="7" height="7" style="fill:white"/>
<rect x="16" y="120" width="7" height="7" style="fill:white"/>
<rect x="48" y="120" width="7" height="7" style="fill:white"/>
<rect x="80" y="120" width="7" height="7" style="fill:white"/>
<rect x="112" y="120" width="7" height="7" style="fill:white"/>
<rect x="120" y="120" width="7" height="7" style="fill:white"/>
<rect x="152" y="120" width="7" height="7" style="fill:white"/>
<rect x="160" y="120" width="7" height="7" style="fill:white"/>
<rect x="200" y="120" width="7" height="7" style="fill:white"/>
<rect x="208" y="120" width="7" height="7" style="fill:white"/>
<rect x="248" y="120" width="7" height="7" style="fill:white"/>
<rect x="256" y="120" width="7" height="7" style="fill:white"/>
<rect x="272" y="120" width="7" height="7" style="fill:white"/>
<rect x="328" y="120" width="7" height="7" style="fill:white"/>
<rect x="400" y="120" width="7" height="7" style="fill:white"/>
<rect x="408" y="120" width="7" height="7" style="fill:white"/>
<rect x="424" y="120" width="7" height="7" style="fill:white"/>
<rect x="616" y="120" width="7" height="7" style="fill:white"/>
<rect x="0" y="128" width="7" height="7" style="fill:white"/>
<rect x="112" y="128" width="7" height="7" style="fill:white"/>
<rect x="120" y="128" width="7" height="7" style="fill:white"/>
<rect x="152" y="128" width="7" height="7" style="fill:white"/>
<rect x="176" y="128" width="7" height="7" style="fill:white"/>
<rect x="200" y="128" width="7" height="7" style="fill:white"/>
<rect x="216" y="128" width="7" height="7" style="fill:white"/>
<rect x="248" y="128" width="7" height="7" style="fill:white"/>
<rect x="264" y="128" width="7" height="7" style="fill:white"/>
<rect x="272" y="128" width="7" height="7" style="fill:white"/>
<rect x="328" y="128" width="7" height="7" style="fill:white"/>
<rect x="336" y="128" width="7" height="7" style="fill:white"/>
<rect x="344" y="128" width="7" height="7" style="fill:white"/>
<rect x="400" y="128" width="7" height="7" style="fill:white"/>
<rect x="416" y="128" width="7" height="7" style="fill:white"/>
<rect x="424" y="128" width="7" height="7" style="fill:white"/>
<rect x="616" y="128" width="7" height="7" style="fill:white"/>
<rect x="0" y="136" width="7" height="7" style="fill:white"/>
<rect x="152" y="136" width="7" height="7" style="fill:white"/>
<rect x="168" y="136" width="7" height="7" style="fill:white"/>
<rect x="176" y="136" width="7" height="7" style="fill:white"/>
<rect x="200" y="136" width="7" height="7" style="fill:white"/>
<rect x="216" y="136" width="7" height="7" style="fill:white"/>
<rect x="224" y="136" width="7" height="7" style="fill:white"/>
<rect x="248" y="136" width="7" height="7" style="fill:white"/>
<rect x="256" y="136" width="7" height="7" style="fill:white"/>
<rect x="264" y="136" width="7" height="7" style="fill:white"/>
<rect x="272" y="136" width="7" height="7" style="fill:white"/>
<rect x="400" y="136" width="7" height="7" style="fill:white"/>
<rect x="408" y="136" width="7" height="7" style="fill:white"/>
<rect x="416" y="136" width="7" height="7" style="fill:white"/>
<rect x="424" y="136" width="7" height="7" style="fill:white"/>
<rect x="616" y="136" width="7" height="7" style="fill:white"/>
<rect x="0" y="144" width="7" height="7" style="fill:white"/>
<rect x="616" y="144" width="7" height="7" style="fill:white"/>
<rect x="0" y="152" width="7" height="7" style="fill:white"/>
<rect x="616" y="152" width="7" height="7" style="fill:white"/>
<rect x="0" y="160" width="7" height="7" style="fill:white"/>
<rect x="616" y="160" width="7" height="7" style="fill:white"/>
<rect x="0" y="168" width="7" height="7" style="fill:white"/>
<rect x="16" y="168" width="7" height="7" style="fill:white"/>
<rect x="32" y="168" width="7" height="7" style="fill:white"/>
<rect x="48" y="168" width="7" height="7" style="fill:white"/>
<rect x="64" y="168" width="7" height="7" style="fill:white"/>
<rect x="616" y="168" width="7" height="7" style="fill:white"/>
<rect x="0" y="176" width="7" height="7" style="fill:white"/>
<rect x="616" y="176" width="7" height="7" style="fill:white"/>
<rect x="0" y="184" width="7" height="7" style="fill:white"/>
<rect x="8" y="184" width="7" height="7" style="fill:white"/>
<rect x="16" y="184" width="7" height="7" style="fill:white"/>
<rect x="24" y="184" width="7" height="7" style="fill:white"/>
<rect x="32" y="184" width="7" height="7" style="fill:white"/>
<rect x="40" y="184" width="7" height="7" style="fill:white"/>
<rect x="48" y="184" width="7" height="7" style="fill:white"/>
<rect x="56" y="184" width="7" height="7" style="fill:white"/>
<rect x="64" y="184" width="7" height="7" style="fill:white"/>
<rect x="72" y="184" width="7" height="7" style="fill:white"/>
<rect x="80" y="184" width="7" height="7" style="fill:white"/>
<rect x="88" y="184" width="7" height="7" style="fill:white"/>
<rect x="96" y="184" width="7" height="7" style="fill:white"/>
<rect x="104" y="184" width="7" height="7" style="fill:white"/>
<rect x="112" y="184" width="7" height="7" style="fill:white"/>
<rect x="120" y="184" width="7" height="7" style="fill:white"/>
<rect x="128" y="184" width="7" height="7" style="fill:white"/>
<rect x="136" y="184" width="7" height="7" style="fill:white"/>
<rect x="144" y="184" width="7" height="7" style="fill:white"/>
<rect x="152" y="184" width="7" height="7" style="fill:white"/>
<rect x="160" y="184" width="7" height="7" style="fill:white"/>
<rect x="168" y="184" width="7" height="7" style="fill:white"/>
<rect x="176" y="184" width="7" height="7" style="fill:white"/>
<rect x="184" y="184" width="7" height="7" style="fill:white"/>
<rect x="192" y="184" width="7" height="7" style="fill:white"/>
<rect x="200" y="184" width="7" height="7" style="fill:white"/>
<rect x="208" y="184" width="7" height="7" style="fill:white"/>
<rect x="216" y="184" width="7" height="7" style="fill:white"/>
<rect x="224" y="184" width="7" height="7" style="fill:white"/>
<rect x="232" y="184" width="7" height="7" style="fill:white"/>
<rect x="240" y="184" width="7" height="7" style="fill:white"/>
<rect x="248" y="184" width="7" height="7" style="fill:white"/>
<rect x="256" y="184" width="7" height="7" style="fill:white"/>
<rect x="264" y="184" width="7" height="7" style="fill:white"/>
<rect x="272" y="184" width="7" height="7" style="fill:white"/>
<rect x="280" y="184" width="7" height="7" style="fill:white"/>
<rect x="288" y="184" width="7" height="7" style="fill:white"/>
<rect x="296" y="184" width="7" height="7" style="fill:white"/>
<rect x="304" y="184" width="7" height="7" style="fill:white"/>
<rect x="312" y="184" width="7" height="7" style="fill:white"/>
<rect x="320" y="184" width="7" height="7" style="fill:white"/>
<rect x="328" y="184" width="7" height="7" style="fill:white"/>
<rect x="336" y="184" width="7" height="7" style="fill:white"/>
<rect x="344" y="184" width="7" height="7" style="fill:white"/>
<rect x="352" y="184" width="7" height="7" style="fill:white"/>
<rect x="360" y="184" width="7" height="7" style="fill:white"/>
<rect x="368" y="184" width="7" height="7" style="fill:white"/>
<rect x="376" y="184" width="7" height="7" style="fill:white"/>
<rect x="384" y="184" width="7" height="7" style="fill:white"/>
<rect x="392" y="184" width="7" height="7" style="fill:white"/>
<rect x="400" y="184" width="7" height="7" style="fill:white"/>
<rect x="408" y="184" width="7" height="7" style="fill:white"/>
<rect x="416" y="184" width="7" height="7" style="fill:white"/>
<rect x="424" y="184" width="7" height="7" style="fill:white"/>
<rect x="432" y="184" width="7" height="7" style="fill:white"/>
<rect x="440" y="184" width="7" height="7" style="fill:white"/>
<rect x="448" y="184" width="7" height="7" style="fill:white"/>
<rect x="456" y="184" width="7" height="7" style="fill:white"/>
<rect x="464" y="184" width="7" height="7" style="fill:white"/>
<rect x="472" y="184" width="7" height="7" style="fill:white"/>
<rect x="480" y="184" width="7" height="7" style="fill:white"/>
<rect x="488" y="184" width="7" height="7" style="fill:white"/>
<rect x="496" y="184" width="7" height="7" style="fill:white"/>
<rect x="504" y="184" width="7" height="7" style="fill:white"/>
<rect x="512" y="184" width="7" height="7" style="fill:white"/>
<rect x="520" y="184" width="7" height="7" style="fill:white"/>
<rect x="528" y="184" width="7" height="7" style="fill:white"/>
<rect x="536" y="184" width="7" height="7" style="fill:white"/>
<rect x="544" y="184" width="7" height="7" style="fill:white"/>
<rect x="552" y="184" width="7" height="7" style="fill:white"/>
<rect x="560" y="184" width="7" height="7" style="fill:white"/>
<rect x="568" y="184" width="7" height="7" style="fill:white"/>
<rect x="576" y="184" width="7" height="7" style="fill:white"/>
<rect x="584" y="184" width="7" height="7" style="fill:white"/>
<rect x="592" y="184" width="7" height="7" style="fill:white"/>
<rect x="600" y="184" width="7" height="7" style="fill:white"/>
<rect x="608" y="184" width="7" height="7" style="fill:white"/>
<rect x="616" y="184" width="7" height="7" style="fill:white"/>
</svg>
