<svg xmlns="http://www.w3.org/2000/svg" version="1.1" width="312" height="568">
<rect width="312" height="568" style="fill:black"/>
<rect x="0" y="0" width="7" height="7" style="fill:white"/>
<rect x="8" y="0" width="7" height="7" style="fill:white"/>
<rect x="16" y="0" width="7" height="7" style="fill:white"/>
<rect x="24" y="0" width="7" height="7" style="fill:white"/>
<rect x="32" y="0" width="7" height="7" style="fill:white"/>
<rect x="40" y="0" width="7" height="7" style="fill:white"/>
<rect x="48" y="0" width="7" height="7" style="fill:white"/>
<rect x="56" y="0" width="7" height="7" style="fill:white"/>
<rect x="64" y="0" width="7" height="7" style="fill:white"/>
<rect x="72" y="0" width="7" height="7" style="fill:white"/>
<rect x="80" y="0" width="7" height="7" style="fill:white"/>
<rect x="88" y="0" width="7" height="7" style="fill:white"/>
<rect x="96" y="0" width="7" height="7" style="fill:white"/>
<rect x="104" y="0" width="7" height="7" style="fill:white"/>
<rect x="112" y="0" width="7" height="7" style="fill:white"/>
<rect x="120" y="0" width="7" height="7" style="fill:white"/>
<rect x="128" y="0" width="7" height="7" style="fill:white"/>
<rect x="136" y="0" width="7" height="7" style="fill:white"/>
<rect x="144" y="0" width="7" height="7" style="fill:white"/>
<rect x="152" y="0" width="7" height="7" style="fill:white"/>
<rect x="160" y="0" width="7" height="7" style="fill:white"/>
<rect x="168" y="0" width="7" height="7" style="fill:white"/>
<rect x="176" y="0" width="7" height="7" style="fill:white"/>
<rect x="184" y="0" width="7" height="7" style="fill:white"/>
<rect x="192" y="0" width="7" height="7" style="fill:white"/>
<rect x="200" y="0" width="7" height="7" style="fill:white"/>
<rect x="208" y="0" width="7" height="7" style="fill:white"/>
<rect x="216" y="0" width="7" height="7" style="fill:white"/>
<rect x="224" y="0" width="7" height="7" style="fill:white"/>
<rect x="232" y="0" width="7" height="7" style="fill:white"/>
<rect x="240" y="0" width="7" height="7" style="fill:white"/>
<rect x="248" y="0" width="7" height="7" style="fill:white"/>
<rect x="256" y="0" width="7" height="7" style="fill:white"/>
<rect x="264" y="0" width="7" height="7" style="fill:white"/>
<rect x="272" y="0" width="7" height="7" style="fill:white"/>
<rect x="280" y="0" width="7" height="7" style="fill:white"/>
<rect x="288" y="0" width="7" height="7" style="fill:white"/>
<rect x="296" y="0" width="7" height="7" style="fill:white"/>
<rect x="304" y="0" width="7" height="7" style="fill:white"/>
<rect x="0" y="8" width="7" height="7" style="fill:white"/>
<rect x="304" y="8" width="7" height="7" style="fill:white"/>
<rect x="0" y="16" width="7" height="7" style="fill:white"/>
<rect x="16" y="16" width="7" height="7" style="fill:white"/>
<rect x="24" y="16" width="7" height="7" style="fill:white"/>
<rect x="32" y="16" width="7" height="7" style="fill:white"/>
<rect x="40" y="16" width="7" height="7" style="fill:white"/>
<rect x="304" y="16" width="7" height="7" style="fill:white"/>
<rect x="0" y="24" width="7" height="7" style="fill:white"/>
<rect x="16" y="24" width="7" height="7" style="fill:white"/>
<rect x="24" y="24" width="7" height="7" style="fill:white"/>
<rect x="304" y="24" width="7" height="7" style="fill:white"/>
<rect x="0" y="32" width="7" height="7" style="fill:white"/>
<rect x="16" y="32" width="7" height="7" style="fill:white"/>
<rect x="32" y="32" width="7" height="7" style="fill:white"/>
<rect x="304" y="32" width="7" height="7" style="fill:white"/>
<rect x="0" y="40" width="7" height="7" style="fill:white"/>
<rect x="16" y="40" width="7" height="7" style="fill:white"/>
<rect x="32" y="40" width="7" height="7" style="fill:white"/>
<rect x="40" y="40" width="7" height="7" style="fill:white"/>
<rect x="304" y="40" width="7" height="7" style="fill:white"/>
<rect x="0" y="48" width="7" height="7" style="fill:white"/>
<rect x="304" y="48" width="7" height="7" style="fill:white"/>
<rect x="0" y="56" width="7" height="7" style="fill:white"/>
<rect x="304" y="56" width="7" height="7" style="fill:white"/>
<rect x="0" y="64" width="7" height="7" style="fill:white"/>
<rect x="16" y="64" width="7" height="7" style="fill:white"/>
<rect x="24" y="64" width="7" height="7" style="fill:white"/>
<rect x="48" y="64" width="7" height="7" style="fill:white"/>
<rect x="56" y="64" width="7" height="7" style="fill:white"/>
<rect x="64" y="64" width="7" height="7" style="fill:white"/>
<rect x="72" y="64" width="7" height="7" style="fill:white"/>
<rect x="104" y="64" width="7" height="7" style="fill:white"/>
<rect x="160" y="64" width="7" height="7" style="fill:white"/>
<rect x="168" y="64" width="7" height="7" style="fill:white"/>
<rect x="176" y="64" width="7" height="7" style="fill:white"/>
<rect x="240" y="64" width="7" height="7" style="fill:white"/>
<rect x="304" y="64" width="7" height="7" style="fill:white"/>
<rect x="0" y="72" width="7" height="7" style="fill:white"/>
<rect x="16" y="72" width="7" height="7" style="fill:white"/>
<rect x="48" y="72" width="7" height="7" style="fill:white"/>
<rect x="56" y="72" width="7" height="7" style="fill:white"/>
<rect x="96" y="72" width="7" height="7" style="fill:white"/>
<rect x="104" y="72" width="7" height="7" style="fill:white"/>
<rect x="160" y="72" width="7" height="7" style="fill:white"/>
<rect x="232" y="72" width="7" height="7" style="fill:white"/>
<rect x="304" y="72" width="7" height="7" style="fill:white"/>
<rect x="0" y="80" width="7" height="7" style="fill:white"/>
<rect x="48" y="80" width="7" height="7" style="fill:white"/>
<rect x="64" y="80" width="7" height="7" style="fill:white"/>
<rect x="160" y="80" width="7" height="7" style="fill:white"/>
<rect x="168" y="80" width="7" height="7" style="fill:white"/>
<rect x="176" y="80" width="7" height="7" style="fill:white"/>
<rect x="304" y="80" width="7" height="7" style="fill:white"/>
<rect x="0" y="88" width="7" height="7" style="fill:white"/>
<rect x="48" y="88" width="7" height="7" style="fill:white"/>
<rect x="64" y="88" width="7" height="7" style="fill:white"/>
<rect x="72" y="88" width="7" height="7" style="fill:white"/>
<rect x="304" y="88" width="7" height="7" style="fill:white"/>
<rect x="0" y="96" width="7" height="7" style="fill:white"/>
<rect x="304" y="96" width="7" height="7" style="fill:white"/>
<rect x="0" y="104" width="7" height="7" style="fill:white"/>
<rect x="304" y="104" width="7" height="7" style="fill:white"/>
<rect x="0" y="112" width="7" height="7" style="fill:white"/>
<rect x="16" y="112" width="7" height="7" style="fill:white"/>
<rect x="24" y="112" width="7" height="7" style="fill:white"/>
<rect x="48" y="112" width="7" height="7" style="fill:white"/>
<rect x="56" y="112" width="7" height="7" style="fill:white"/>
<rect x="64" y="112" width="7" height="7" style="fill:white"/>
<rect x="72" y="112" width="7" height="7" style="fill:white"/>
<rect x="104" y="112" width="7" height="7" style="fill:white"/>
<rect x="112" y="112" width="7" height="7" style="fill:white"/>
<rect x="168" y="112" width="7" height="7" style="fill:white"/>
<rect x="176" y="112" width="7" height="7" style="fill:white"/>
<rect x="184" y="112" width="7" height="7" style="fill:white"/>
<rect x="248" y="112" width="7" height="7" style="fill:white"/>
<rect x="304" y="112" width="7" height="7" style="fill:white"/>
<rect x="0" y="120" width="7" height="7" style="fill:white"/>
<rect x="16" y="120" width="7" height="7" style="fill:white"/>
<rect x="48" y="120" width="7" height="7" style="fill:white"/>
<rect x="56" y="120" width="7" height="7" style="fill:white"/>
<rect x="96" y="120" width="7" height="7" style="fill:white"/>
<rect x="112" y="120" width="7" height="7" style="fill:white"/>
<rect x="168" y="120" width="7" height="7" style="fill:white"/>
<rect x="240" y="120" width="7" height="7" style="fill:white"/>
<rect x="248" y="120" width="7" height="7" style="fill:white"/>
<rect x="304" y="120" width="7" height="7" style="fill:white"/>
<rect x="0" y="128" width="7" height="7" style="fill:white"/>
<rect x="48" y="128" width="7" height="7" style="fill:white"/>
<rect x="64" y="128" width="7" height="7" style="fill:white"/>
<rect x="96" y="128" width="7" height="7" style="fill:white"/>
<rect x="168" y="128" width="7" height="7" style="fill:white"/>
<rect x="176" y="128" width="7" height="7" style="fill:white"/>
<rect x="184" y="128" width="7" height="7" style="fill:white"/>
<rect x="304" y="128" width="7" height="7" style="fill:white"/>
<rect x="0" y="136" width="7" height="7" style="fill:white"/>
<rect x="48" y="136" width="7" height="7" style="fill:white"/>
<rect x="64" y="136" width="7" height="7" style="fill:white"/>
<rect x="72" y="136" width="7" height="7" style="fill:white"/>
<rect x="304" y="136" width="7" height="7" style="fill:white"/>
<rect x="0" y="144" width="7" height="7" style="fill:white"/>
<rect x="304" y="144" width="7" height="7" style="fill:white"/>
<rect x="0" y="152" width="7" height="7" style="fill:white"/>
<rect x="304" y="152" width="7" height="7" style="fill:white"/>
<rect x="0" y="160" width="7" height="7" style="fill:white"/>
<rect x="16" y="160" width="7" height="7" style="fill:white"/>
<rect x="24" y="160" width="7" height="7" style="fill:white"/>
<rect x="48" y="160" width="7" height="7" style="fill:white"/>
<rect x="56" y="160" width="7" height="7" style="fill:white"/>
<rect x="64" y="160" width="7" height="7" style="fill:white"/>
<rect x="72" y="160" width="7" height="7" style="fill:white"/>
<rect x="104" y="160" width="7" height="7" style="fill:white"/>
<rect x="112" y="160" width="7" height="7" style="fill:white"/>
<rect x="168" y="160" width="7" height="7" style="fill:white"/>
<rect x="176" y="160" width="7" height="7" style="fill:white"/>
<rect x="184" y="160" width="7" height="7" style="fill:white"/>
<rect x="248" y="160" width="7" height="7" style="fill:white"/>
<rect x="256" y="160" width="7" height="7" style="fill:white"/>
<rect x="304" y="160" width="7" height="7" style="fill:white"/>
<rect x="0" y="168" width="7" height="7" style="fill:white"/>
<rect x="16" y="168" width="7" height="7" style="fill:white"/>
<rect x="48" y="168" width="7" height="7" style="fill:white"/>
<rect x="56" y="168" width="7" height="7" style="fill:white"/>
<rect x="96" y="168" width="7" height="7" style="fill:white"/>
<rect x="104" y="168" width="7" height="7" style="fill:white"/>
<rect x="112" y="168" width="7" height="7" style="fill:white"/>
<rect x="168" y="168" width="7" height="7" style="fill:white"/>
<rect x="240" y="168" width="7" height="7" style="fill:white"/>
<rect x="256" y="168" width="7" height="7" style="fill:white"/>
<rect x="304" y="168" width="7" height="7" style="fill:white"/>
<rect x="0" y="176" width="7" height="7" style="fill:white"/>
<rect x="48" y="176" width="7" height="7" style="fill:white"/>
<rect x="64" y="176" width="7" height="7" style="fill:white"/>
<rect x="96" y="176" width="7" height="7" style="fill:white"/>
<rect x="168" y="176" width="7" height="7" style="fill:white"/>
<rect x="176" y="176" width="7" height="7" style="fill:white"/>
<rect x="184" y="176" width="7" height="7" style="fill:white"/>
<rect x="240" y="176" width="7" height="7" style="fill:white"/>
<rect x="304" y="176" width="7" height="7" style="fill:white"/>
<rect x="0" y="184" width="7" height="7" style="fill:white"/>
<rect x="48" y="184" width="7" height="7" style="fill:white"/>
<rect x="64" y="184" width="7" height="7" style="fill:white"/>
<rect x="72" y="184" width="7" height="7" style="fill:white"/>
<rect x="304" y="184" width="7" height="7" style="fill:white"/>
<rect x="0" y="192" width="7" height="7" style="fill:white"/>
<rect x="304" y="192" width="7" height="7" style="fill:white"/>
<rect x="0" y="200" width="7" height="7" style="fill:white"/>
<rect x="304" y="200" width="7" height="7" style="fill:white"/>
<rect x="0" y="208" width="7" height="7" style="fill:white"/>
<rect x="16" y="208" width="7" height="7" style="fill:white"/>
<rect x="24" y="208" width="7" height="7" style="fill:white"/>
<rect x="48" y="208" width="7" height="7" style="fill:white"/>
<rect x="56" y="208" width="7" height="7" style="fill:white"/>
<rect x="64" y="208" width="7" height="7" style="fill:white"/>
<rect x="72" y="208" width="7" height="7" style="fill:white"/>
<rect x="104" y="208" width="7" height="7" style="fill:white"/>
<rect x="112" y="208" width="7" height="7" style="fill:white"/>
<rect x="168" y="208" width="7" height="7" style="fill:white"/>
<rect x="176" y="208" width="7" height="7" style="fill:white"/>
<rect x="184" y="208" width="7" height="7" style="fill:white"/>
<rect x="248" y="208" width="7" height="7" style="fill:white"/>
<rect x="256" y="208" width="7" height="7" style="fill:white"/>
<rect x="304" y="208" width="7" height="7" style="fill:white"/>
<rect x="0" y="216" width="7" height="7" style="fill:white"/>
<rect x="16" y="216" width="7" height="7" style="fill:white"/>
<rect x="48" y="216" width="7" height="7" style="fill:white"/>
<rect x="56" y="216" width="7" height="7" style="fill:white"/>
<rect x="96" y="216" width="7" height="7" style="fill:white"/>
<rect x="168" y="216" width="7" height="7" style="fill:white"/>
<rect x="240" y="216" width="7" height="7" style="fill:white"/>
<rect x="248" y="216" width="7" height="7" style="fill:white"/>
<rect x="256" y="216" width="7" height="7" style="fill:white"/>
<rect x="304" y="216" width="7" height="7" style="fill:white"/>
<rect x="0" y="224" width="7" height="7" style="fill:white"/>
<rect x="48" y="224" width="7" height="7" style="fill:white"/>
<rect x="64" y="224" width="7" height="7" style="fill:white"/>
<rect x="96" y="224" width="7" height="7" style="fill:white"/>
<rect x="104" y="224" width="7" height="7" style="fill:white"/>
<rect x="168" y="224" width="7" height="7" style="fill:white"/>
<rect x="176" y="224" width="7" height="7" style="fill:white"/>
<rect x="184" y="224" width="7" height="7" style="fill:white"/>
<rect x="240" y="224" width="7" height="7" style="fill:white"/>
<rect x="304" y="224" width="7" height="7" style="fill:white"/>
<rect x="0" y="232" width="7" height="7" style="fill:white"/>
<rect x="48" y="232" width="7" height="7" style="fill:white"/>
<rect x="64" y="232" width="7" height="7" style="fill:white"/>
<rect x="72" y="232" width="7" height="7" style="fill:white"/>
<rect x="304" y="232" width="7" height="7" style="fill:white"/>
<rect x="0" y="240" width="7" height="7" style="fill:white"/>
<rect x="304" y="240" width="7" height="7" style="fill:white"/>
<rect x="0" y="248" width="7" height="7" style="fill:white"/>
<rect x="304" y="248" width="7" height="7" style="fill:white"/>
<rect x="0" y="256" width="7" height="7" style="fill:white"/>
<rect x="304" y="256" width="7" height="7" style="fill:white"/>
<rect x="0" y="264" width="7" height="7" style="fill:white"/>
<rect x="16" y="264" width="7" height="7" style="fill:white"/>
<rect x="32" y="264" width="7" height="7" style="fill:white"/>
<rect x="48" y="264" width="7" height="7" style="fill:white"/>
<rect x="64" y="264" width="7" height="7" style="fill:white"/>
<rect x="304" y="264" width="7" height="7" style="fill:white"/>
<rect x="0" y="272" width="7" height="7" style="fill:white"/>
<rect x="304" y="272" width="7" height="7" style="fill:white"/>
<rect x="0" y="280" width="7" height="7" style="fill:white"/>
<rect x="304" y="280" width="7" height="7" style="fill:white"/>
<rect x="0" y="288" width="7" height="7" style="fill:white"/>
<rect x="304" y="288" width="7" height="7" style="fill:white"/>
<rect x="0" y="296" width="7" height="7" style="fill:white"/>
<rect x="16" y="296" width="7" height="7" style="fill:white"/>
<rect x="24" y="296" width="7" height="7" style="fill:white"/>
<rect x="48" y="296" width="7" height="7" style="fill:white"/>
<rect x="56" y="296" width="7" height="7" style="fill:white"/>
<rect x="64" y="296" width="7" height="7" style="fill:white"/>
<rect x="72" y="296" width="7" height="7" style="fill:white"/>
<rect x="104" y="296" width="7" height="7" style="fill:white"/>
<rect x="112" y="296" width="7" height="7" style="fill:white"/>
<rect x="120" y="296" width="7" height="7" style="fill:white"/>
<rect x="128" y="296" width="7" height="7" style="fill:white"/>
<rect x="184" y="296" width="7" height="7" style="fill:white"/>
<rect x="192" y="296" width="7" height="7" style="fill:white"/>
<rect x="200" y="296" width="7" height="7" style="fill:white"/>
<rect x="264" y="296" width="7" height="7" style="fill:white"/>
<rect x="272" y="296" width="7" height="7" style="fill:white"/>
<rect x="280" y="296" width="7" height="7" style="fill:white"/>
<rect x="288" y="296" width="7" height="7" style="fill:white"/>
<rect x="304" y="296" width="7" height="7" style="fill:white"/>
<rect x="0" y="304" width="7" height="7" style="fill:white"/>
<rect x="16" y="304" width="7" height="7" style="fill:white"/>
<rect x="48" y="304" width="7" height="7" style="fill:white"/>
<rect x="56" y="304" width="7" height="7" style="fill:white"/>
<rect x="96" y="304" width="7" height="7" style="fill:white"/>
<rect x="184" y="304" width="7" height="7" style="fill:white"/>
<rect x="256" y="304" width="7" height="7" style="fill:white"/>
<rect x="264" y="304" width="7" height="7" style="fill:white"/>
<rect x="272" y="304" width="7" height="7" style="fill:white"/>
<rect x="280" y="304" width="7" height="7" style="fill:white"/>
<rect x="288" y="304" width="7" height="7" style="fill:white"/>
<rect x="304" y="304" width="7" height="7" style="fill:white"/>
<rect x="0" y="312" width="7" height="7" style="fill:white"/>
<rect x="48" y="312" width="7" height="7" style="fill:white"/>
<rect x="64" y="312" width="7" height="7" style="fill:white"/>
<rect x="96" y="312" width="7" height="7" style="fill:white"/>
<rect x="184" y="312" width="7" height="7" style="fill:white"/>
<rect x="192" y="312" width="7" height="7" style="fill:white"/>
<rect x="200" y="312" width="7" height="7" style="fill:white"/>
<rect x="256" y="312" width="7" height="7" style="fill:white"/>
<rect x="264" y="312" width="7" height="7" style="fill:white"/>
<rect x="272" y="312" width="7" height="7" style="fill:white"/>
<rect x="280" y="312" width="7" height="7" style="fill:white"/>
<rect x="288" y="312" width="7" height="7" style="fill:white"/>
<rect x="304" y="312" width="7" height="7" style="fill:white"/>
<rect x="0" y="320" width="7" height="7" style="fill:white"/>
<rect x="48" y="320" width="7" height="7" style="fill:white"/>
<rect x="64" y="320" width="7" height="7" style="fill:white"/>
<rect x="72" y="320" width="7" height="7" style="fill:white"/>
<rect x="96" y="320" width="7" height="7" style="fill:white"/>
<rect x="120" y="320" width="7" height="7" style="fill:white"/>
<rect x="256" y="320" width="7" height="7" style="fill:white"/>
<rect x="264" y="320" width="7" height="7" style="fill:white"/>
<rect x="272" y="320" width="7" height="7" style="fill:white"/>
<rect x="304" y="320" width="7" height="7" style="fill:white"/>
<rect x="0" y="328" width="7" height="7" style="fill:white"/>
<rect x="96" y="328" width="7" height="7" style="fill:white"/>
<rect x="256" y="328" width="7" height="7" style="fill:white"/>
<rect x="304" y="328" width="7" height="7" style="fill:white"/>
<rect x="0" y="336" width="7" height="7" style="fill:white"/>
<rect x="304" y="336" width="7" height="7" style="fill:white"/>
<rect x="0" y="344" width="7" height="7" style="fill:white"/>
<rect x="304" y="344" width="7" height="7" style="fill:white"/>
<rect x="0" y="352" width="7" height="7" style="fill:white"/>
<rect x="304" y="352" width="7" height="7" style="fill:white"/>
<rect x="0" y="360" width="7" height="7" style="fill:white"/>
<rect x="16" y="360" width="7" height="7" style="fill:white"/>
<rect x="32" y="360" width="7" height="7" style="fill:white"/>
<rect x="48" y="360" width="7" height="7" style="fill:white"/>
<rect x="64" y="360" width="7" height="7" style="fill:white"/>
<rect x="304" y="360" width="7" height="7" style="fill:white"/>
<rect x="0" y="368" width="7" height="7" style="fill:white"/>
<rect x="304" y="368" width="7" height="7" style="fill:white"/>
<rect x="0" y="376" width="7" height="7" style="fill:white"/>
<rect x="304" y="376" width="7" height="7" style="fill:white"/>
<rect x="0" y="384" width="7" height="7" style="fill:white"/>
<rect x="304" y="384" width="7" height="7" style="fill:white"/>
<rect x="0" y="392" width="7" height="7" style="fill:white"/>
<rect x="16" y="392" width="7" height="7" style="fill:white"/>
<rect x="24" y="392" width="7" height="7" style="fill:white"/>
<rect x="48" y="392" width="7" height="7" style="fill:white"/>
<rect x="56" y="392" width="7" height="7" style="fill:white"/>
<rect x="64" y="392" width="7" height="7" style="fill:white"/>
<rect x="72" y="392" width="7" height="7" style="fill:white"/>
<rect x="104" y="392" width="7" height="7" style="fill:white"/>
<rect x="160" y="392" width="7" height="7" style="fill:white"/>
<rect x="168" y="392" width="7" height="7" style="fill:white"/>
<rect x="176" y="392" width="7" height="7" style="fill:white"/>
<rect x="240" y="392" width="7" height="7" style="fill:white"/>
<rect x="304" y="392" width="7" height="7" style="fill:white"/>
<rect x="0" y="400" width="7" height="7" style="fill:white"/>
<rect x="16" y="400" width="7" height="7" style="fill:white"/>
<rect x="48" y="400" width="7" height="7" style="fill:white"/>
<rect x="56" y="400" width="7" height="7" style="fill:white"/>
<rect x="96" y="400" width="7" height="7" style="fill:white"/>
<rect x="160" y="400" width="7" height="7" style="fill:white"/>
<rect x="232" y="400" width="7" height="7" style="fill:white"/>
<rect x="240" y="400" width="7" height="7" style="fill:white"/>
<rect x="304" y="400" width="7" height="7" style="fill:white"/>
<rect x="0" y="408" width="7" height="7" style="fill:white"/>
<rect x="48" y="408" width="7" height="7" style="fill:white"/>
<rect x="64" y="408" width="7" height="7" style="fill:white"/>
<rect x="160" y="408" width="7" height="7" style="fill:white"/>
<rect x="168" y="408" width="7" height="7" style="fill:white"/>
<rect x="176" y="408" width="7" height="7" style="fill:white"/>
<rect x="232" y="408" width="7" height="7" style="fill:white"/>
<rect x="304" y="408" width="7" height="7" style="fill:white"/>
<rect x="0" y="416" width="7" height="7" style="fill:white"/>
<rect x="48" y="416" width="7" height="7" style="fill:white"/>
<rect x="64" y="416" width="7" height="7" style="fill:white"/>
<rect x="72" y="416" width="7" height="7" style="fill:white"/>
<rect x="304" y="416" width="7" height="7" style="fill:white"/>
<rect x="0" y="424" width="7" height="7" style="fill:white"/>
<rect x="304" y="424" width="7" height="7" style="fill:white"/>
<rect x="0" y="432" width="7" height="7" style="fill:white"/>
<rect x="304" y="432" width="7" height="7" style="fill:white"/>
<rect x="0" y="440" width="7" height="7" style="fill:white"/>
<rect x="16" y="440" width="7" height="7" style="fill:white"/>
<rect x="24" y="440" width="7" height="7" style="fill:white"/>
<rect x="48" y="440" width="7" height="7" style="fill:white"/>
<rect x="56" y="440" width="7" height="7" style="fill:white"/>
<rect x="64" y="440" width="7" height="7" style="fill:white"/>
<rect x="72" y="440" width="7" height="7" style="fill:white"/>
<rect x="104" y="440" width="7" height="7" style="fill:white"/>
<rect x="160" y="440" width="7" height="7" style="fill:white"/>
<rect x="168" y="440" width="7" height="7" style="fill:white"/>
<rect x="176" y="440" width="7" height="7" style="fill:white"/>
<rect x="240" y="440" width="7" height="7" style="fill:white"/>
<rect x="248" y="440" width="7" height="7" style="fill:white"/>
<rect x="304" y="440" width="7" height="7" style="fill:white"/>
<rect x="0" y="448" width="7" height="7" style="fill:white"/>
<rect x="16" y="448" width="7" height="7" style="fill:white"/>
<rect x="48" y="448" width="7" height="7" style="fill:white"/>
<rect x="56" y="448" width="7" height="7" style="fill:white"/>
<rect x="96" y="448" width="7" height="7" style="fill:white"/>
<rect x="104" y="448" width="7" height="7" style="fill:white"/>
<rect x="160" y="448" width="7" height="7" style="fill:white"/>
<rect x="232" y="448" width="7" height="7" style="fill:white"/>
<rect x="248" y="448" width="7" height="7" style="fill:white"/>
<rect x="304" y="448" width="7" height="7" style="fill:white"/>
<rect x="0" y="456" width="7" height="7" style="fill:white"/>
<rect x="48" y="456" width="7" height="7" style="fill:white"/>
<rect x="64" y="456" width="7" height="7" style="fill:white"/>
<rect x="96" y="456" width="7" height="7" style="fill:white"/>
<rect x="160" y="456" width="7" height="7" style="fill:white"/>
<rect x="168" y="456" width="7" height="7" style="fill:white"/>
<rect x="176" y="456" width="7" height="7" style="fill:white"/>
<rect x="232" y="456" width="7" height="7" style="fill:white"/>
<rect x="304" y="456" width="7" height="7" style="fill:white"/>
<rect x="0" y="464" width="7" height="7" style="fill:white"/>
<rect x="48" y="464" width="7" height="7" style="fill:white"/>
<rect x="64" y="464" width="7" height="7" style="fill:white"/>
<rect x="72" y="464" width="7" height="7" style="fill:white"/>
<rect x="232" y="464" width="7" height="7" style="fill:white"/>
<rect x="304" y="464" width="7" height="7" style="fill:white"/>
<rect x="0" y="472" width="7" height="7" style="fill:white"/>
<rect x="304" y="472" width="7" height="7" style="fill:white"/>
<rect x="0" y="480" width="7" height="7" style="fill:white"/>
<rect x="304" y="480" width="7" height="7" style="fill:white"/>
<rect x="0" y="488" width="7" height="7" style="fill:white"/>
<rect x="16" y="488" width="7" height="7" style="fill:white"/>
<rect x="24" y="488" width="7" height="7" style="fill:white"/>
<rect x="48" y="488" width="7" height="7" style="fill:white"/>
<rect x="56" y="488" width="7" height="7" style="fill:white"/>
<rect x="64" y="488" width="7" height="7" style="fill:white"/>
<rect x="72" y="488" width="7" height="7" style="fill:white"/>
<rect x="104" y="488" width="7" height="7" style="fill:white"/>
<rect x="112" y="488" width="7" height="7" style="fill:white"/>
<rect x="168" y="488" width="7" height="7" style="fill:white"/>
<rect x="176" y="488" width="7" height="7" style="fill:white"/>
<rect x="184" y="488" width="7" height="7" style="fill:white"/>
<rect x="248" y="488" width="7" height="7" style="fill:white"/>
<rect x="256" y="488" width="7" height="7" style="fill:white"/>
<rect x="304" y="488" width="7" height="7" style="fill:white"/>
<rect x="0" y="496" width="7" height="7" style="fill:white"/>
<rect x="16" y="496" width="7" height="7" style="fill:white"/>
<rect x="48" y="496" width="7" height="7" style="fill:white"/>
<rect x="56" y="496" width="7" height="7" style="fill:white"/>
<rect x="96" y="496" width="7" height="7" style="fill:white"/>
<rect x="112" y="496" width="7" height="7" style="fill:white"/>
<rect x="168" y="496" width="7" height="7" style="fill:white"/>
<rect x="240" y="496" width="7" height="7" style="fill:white"/>
<rect x="248" y="496" width="7" height="7" style="fill:white"/>
<rect x="256" y="496" width="7" height="7" style="fill:white"/>
<rect x="304" y="496" width="7" height="7" style="fill:white"/>
<rect x="0" y="504" width="7" height="7" style="fill:white"/>
<rect x="48" y="504" width="7" height="7" style="fill:white"/>
<rect x="64" y="504" width="7" height="7" style="fill:white"/>
<rect x="96" y="504" width="7" height="7" style="fill:white"/>
<rect x="168" y="504" width="7" height="7" style="fill:white"/>
<rect x="176" y="504" width="7" height="7" style="fill:white"/>
<rect x="184" y="504" width="7" height="7" style="fill:white"/>
<rect x="240" y="504" width="7" height="7" style="fill:white"/>
<rect x="304" y="504" width="7" height="7" style="fill:white"/>
<rect x="0" y="512" width="7" height="7" style="fill:white"/>
<rect x="48" y="512" width="7" height="7" style="fill:white"/>
<rect x="64" y="512" width="7" height="7" style="fill:white"/>
<rect x="72" y="512" width="7" height="7" style="fill:white"/>
<rect x="96" y="512" width="7" height="7" style="fill:white"/>
<rect x="240" y="512" width="7" height="7" style="fill:white"/>
<rect x="304" y="512" width="7" height="7" style="fill:white"/>
<rect x="0" y="520" width="7" height="7" style="fill:white"/>
<rect x="304" y="520" width="7" height="7" style="fill:white"/>
<rect x="0" y="528" width="7" height="7" style="fill:white"/>
<rect x="304" y="528" width="7" height="7" style="fill:white"/>
<rect x="0" y="536" width="7" height="7" style="fill:white"/>
<rect x="304" y="536" width="7" height="7" style="fill:white"/>
<rect x="0" y="544" width="7" height="7" style="fill:white"/>
<rect x="16" y="544" width="7" height="7" style="fill:white"/>
<rect x="32" y="544" width="7" height="7" style="fill:white"/>
<rect x="48" y="544" width="7" height="7" style="fill:white"/>
<rect x="64" y="544" width="7" height="7" style="fill:white"/>
<rect x="304" y="544" width="7" height="7" style="fill:white"/>
<rect x="0" y="552" width="7" height="7" style="fill:white"/>
<rect x="304" y="552" width="7" height="7" style="fill:white"/>
<rect x="0" y="560" width="7" height="7" style="fill:white"/>
<rect x="8" y="560" width="7" height="7" style="fill:white"/>
<rect x="16" y="560" width="7" height="7" style="fill:white"/>
<rect x="24" y="560" width="7" height="7" style="fill:white"/>
<rect x="32" y="560" width="7" height="7" style="fill:white"/>
<rect x="40" y="560" width="7" height="7" style="fill:white"/>
<rect x="48" y="560" width="7" height="7" style="fill:white"/>
<rect x="56" y="560" width="7" height="7" style="fill:white"/>
<rect x="64" y="560" width="7" height="7" style="fill:white"/>
<rect x="72" y="560" width="7" height="7" style="fill:white"/>
<rect x="80" y="560" width="7" height="7" style="fill:white"/>
<rect x="88" y="560" width="7" height="7" style="fill:white"/>
<rect x="96" y="560" width="7" height="7" style="fill:white"/>
<rect x="104" y="560" width="7" height="7" style="fill:white"/>
<rect x="112" y="560" width="7" height="7" style="fill:white"/>
<rect x="120" y="560" width="7" height="7" style="fill:white"/>
<rect x="128" y="560" width="7" height="7" style="fill:white"/>
<rect x="136" y="560" width="7" height="7" style="fill:white"/>
<rect x="144" y="560" width="7" height="7" style="fill:white"/>
<rect x="152" y="560" width="7" height="7" style="fill:white"/>
<rect x="160" y="560" width="7" height="7" style="fill:white"/>
<rect x="168" y="560" width="7" height="7" style="fill:white"/>
<rect x="176" y="560" width="7" height="7" style="fill:white"/>
<rect x="184" y="560" width="7" height="7" style="fill:white"/>
<rect x="192" y="560" width="7" height="7" style="fill:white"/>
<rect x="200" y="560" width="7" height="7" style="fill:white"/>
<rect x="208" y="560" width="7" height="7" style="fill:white"/>
<rect x="216" y="560" width="7" height="7" style="fill:white"/>
<rect x="224" y="560" width="7" height="7" style="fill:white"/>
<rect x="232" y="560" width="7" height="7" style="fill:white"/>
<rect x="240" y="560" width="7" height="7" style="fill:white"/>
<rect x="248" y="560" width="7" height="7" style="fill:white"/>
<rect x="256" y="560" width="7" height="7" style="fill:white"/>
<rect x="264" y="560" width="7" height="7" style="fill:white"/>
<rect x="272" y="560" width="7" height="7" style="fill:white"/>
<rect x="280" y="560" width="7" height="7" style="fill:white"/>
<rect x="288" y="560" width="7" height="7" style="fill:white"/>
<rect x="296" y="560" width="7" height="7" style="fill:white"/>
<rect x="304" y="560" width="7" height="7" style="fill:white"/>
<rect x="92.0" y="60.0" width="24" height="24" style="fill:green;opacity:0.5"/>
<text x="104.0" y="72.0" dominant-baseline="middle" text-anchor="middle" fill="white" style="paint-order: stroke; fill: white; stroke: black; stroke-width: 2px; font:24px bold sans;">1</text>
<rect x="228.0" y="60.0" width="24" height="24" style="fill:green;opacity:0.5"/>
<text x="240.0" y="72.0" dominant-baseline="middle" text-anchor="middle" fill="white" style="paint-order: stroke; fill: white; stroke: black; stroke-width: 2px; font:24px bold sans;">0</text>
<rect x="92.0" y="108.0" width="32" height="32" style="fill:green;opacity:0.5"/>
<text x="108.0" y="124.0" dominant-baseline="middle" text-anchor="middle" fill="white" style="paint-order: stroke; fill: white; stroke: black; stroke-width: 2px; font:24px bold sans;">2</text>
<rect x="236.0" y="108.0" width="24" height="24" style="fill:green;opacity:0.5"/>
<text x="248.0" y="120.0" dominant-baseline="middle" text-anchor="middle" fill="white" style="paint-order: stroke; fill: white; stroke: black; stroke-width: 2px; font:24px bold sans;">1</text>
<rect x="92.0" y="156.0" width="32" height="32" style="fill:green;opacity:0.5"/>
<text x="108.0" y="172.0" dominant-baseline="middle" text-anchor="middle" fill="white" style="paint-order: stroke; fill: white; stroke: black; stroke-width: 2px; font:24px bold sans;">3</text>
<rect x="236.0" y="156.0" width="32" height="32" style="fill:green;opacity:0.5"/>
<text x="252.0" y="172.0" dominant-baseline="middle" text-anchor="middle" fill="white" style="paint-order: stroke; fill: white; stroke: black; stroke-width: 2px; font:24px bold sans;">2</text>
<rect x="92.0" y="204.0" width="32" height="32" style="fill:green;opacity:0.5"/>
<text x="108.0" y="220.0" dominant-baseline="middle" text-anchor="middle" fill="white" style="paint-order: stroke; fill: white; stroke: black; stroke-width: 2px; font:24px bold sans;">4</text>
<rect x="236.0" y="204.0" width="32" height="32" style="fill:green;opacity:0.5"/>
<text x="252.0" y="220.0" dominant-baseline="middle" text-anchor="middle" fill="white" style="paint-order: stroke; fill: white; stroke: black; stroke-width: 2px; font:24px bold sans;">3</text>
<rect x="92.0" y="292.0" width="48" height="48" style="fill:green;opacity:0.5"/>
<text x="116.0" y="316.0" dominant-baseline="middle" text-anchor="middle" fill="white" style="paint-order: stroke; fill: white; stroke: black; stroke-width: 2px; font:24px bold sans;">1024</text>
<rect x="252.0" y="292.0" width="48" height="48" style="fill:green;opacity:0.5"/>
<text x="276.0" y="316.0" dominant-baseline="middle" text-anchor="middle" fill="white" style="paint-order: stroke; fill: white; stroke: black; stroke-width: 2px; font:24px bold sans;">1023</text>
<rect x="92.0" y="388.0" width="24" height="24" style="fill:green;opacity:0.5"/>
<text x="104.0" y="400.0" dominant-baseline="middle" text-anchor="middle" fill="white" style="paint-order: stroke; fill: white; stroke: black; stroke-width: 2px; font:24px bold sans;">0</text>
<rect x="228.0" y="388.0" width="24" height="32" style="fill:green;opacity:0.5"/>
<text x="240.0" y="404.0" dominant-baseline="middle" text-anchor="middle" fill="white" style="paint-order: stroke; fill: white; stroke: black; stroke-width: 2px; font:24px bold sans;">-1</text>
<rect x="92.0" y="436.0" width="24" height="32" style="fill:green;opacity:0.5"/>
<text x="104.0" y="452.0" dominant-baseline="middle" text-anchor="middle" fill="white" style="paint-order: stroke; fill: white; stroke: black; stroke-width: 2px; font:24px bold sans;">-1</text>
<rect x="228.0" y="436.0" width="32" height="40" style="fill:green;opacity:0.5"/>
<text x="244.0" y="456.0" dominant-baseline="middle" text-anchor="middle" fill="white" style="paint-order: stroke; fill: white; stroke: black; stroke-width: 2px; font:24px bold sans;">-2</text>
<rect x="92.0" y="484.0" width="32" height="40" style="fill:green;opacity:0.5"/>
<text x="108.0" y="504.0" dominant-baseline="middle" text-anchor="middle" fill="white" style="paint-order: stroke; fill: white; stroke: black; stroke-width: 2px; font:24px bold sans;">-2</text>
<rect x="236.0" y="484.0" width="32" height="40" style="fill:green;opacity:0.5"/>
<text x="252.0" y="504.0" dominant-baseline="middle" text-anchor="middle" fill="white" style="paint-order: stroke; fill: white; stroke: black; stroke-width: 2px; font:24px bold sans;">-3</text>
</svg>
