<svg xmlns="http://www.w3.org/2000/svg" version="1.1" width="408" height="728">
<rect width="408" height="728" style="fill:black"/>
<rect x="0" y="0" width="7" height="7" style="fill:white"/>
<rect x="8" y="0" width="7" height="7" style="fill:white"/>
<rect x="16" y="0" width="7" height="7" style="fill:white"/>
<rect x="24" y="0" width="7" height="7" style="fill:white"/>
<rect x="32" y="0" width="7" height="7" style="fill:white"/>
<rect x="40" y="0" width="7" height="7" style="fill:white"/>
<rect x="48" y="0" width="7" height="7" style="fill:white"/>
<rect x="56" y="0" width="7" height="7" style="fill:white"/>
<rect x="64" y="0" width="7" height="7" style="fill:white"/>
<rect x="72" y="0" width="7" height="7" style="fill:white"/>
<rect x="80" y="0" width="7" height="7" style="fill:white"/>
<rect x="88" y="0" width="7" height="7" style="fill:white"/>
<rect x="96" y="0" width="7" height="7" style="fill:white"/>
<rect x="104" y="0" width="7" height="7" style="fill:white"/>
<rect x="112" y="0" width="7" height="7" style="fill:white"/>
<rect x="120" y="0" width="7" height="7" style="fill:white"/>
<rect x="128" y="0" width="7" height="7" style="fill:white"/>
<rect x="136" y="0" width="7" height="7" style="fill:white"/>
<rect x="144" y="0" width="7" height="7" style="fill:white"/>
<rect x="152" y="0" width="7" height="7" style="fill:white"/>
<rect x="160" y="0" width="7" height="7" style="fill:white"/>
<rect x="168" y="0" width="7" height="7" style="fill:white"/>
<rect x="176" y="0" width="7" height="7" style="fill:white"/>
<rect x="184" y="0" width="7" height="7" style="fill:white"/>
<rect x="192" y="0" width="7" height="7" style="fill:white"/>
<rect x="200" y="0" width="7" height="7" style="fill:white"/>
<rect x="208" y="0" width="7" height="7" style="fill:white"/>
<rect x="216" y="0" width="7" height="7" style="fill:white"/>
<rect x="224" y="0" width="7" height="7" style="fill:white"/>
<rect x="232" y="0" width="7" height="7" style="fill:white"/>
<rect x="240" y="0" width="7" height="7" style="fill:white"/>
<rect x="248" y="0" width="7" height="7" style="fill:white"/>
<rect x="256" y="0" width="7" height="7" style="fill:white"/>
<rect x="264" y="0" width="7" height="7" style="fill:white"/>
<rect x="272" y="0" width="7" height="7" style="fill:white"/>
<rect x="280" y="0" width="7" height="7" style="fill:white"/>
<rect x="288" y="0" width="7" height="7" style="fill:white"/>
<rect x="296" y="0" width="7" height="7" style="fill:white"/>
<rect x="304" y="0" width="7" height="7" style="fill:white"/>
<rect x="312" y="0" width="7" height="7" style="fill:white"/>
<rect x="320" y="0" width="7" height="7" style="fill:white"/>
<rect x="328" y="0" width="7" height="7" style="fill:white"/>
<rect x="336" y="0" width="7" height="7" style="fill:white"/>
<rect x="344" y="0" width="7" height="7" style="fill:white"/>
<rect x="352" y="0" width="7" height="7" style="fill:white"/>
<rect x="360" y="0" width="7" height="7" style="fill:white"/>
<rect x="368" y="0" width="7" height="7" style="fill:white"/>
<rect x="376" y="0" width="7" height="7" style="fill:white"/>
<rect x="384" y="0" width="7" height="7" style="fill:white"/>
<rect x="392" y="0" width="7" height="7" style="fill:white"/>
<rect x="400" y="0" width="7" height="7" style="fill:white"/>
<rect x="0" y="8" width="7" height="7" style="fill:white"/>
<rect x="400" y="8" width="7" height="7" style="fill:white"/>
<rect x="0" y="16" width="7" height="7" style="fill:white"/>
<rect x="16" y="16" width="7" height="7" style="fill:white"/>
<rect x="24" y="16" width="7" height="7" style="fill:white"/>
<rect x="32" y="16" width="7" height="7" style="fill:white"/>
<rect x="40" y="16" width="7" height="7" style="fill:white"/>
<rect x="400" y="16" width="7" height="7" style="fill:white"/>
<rect x="0" y="24" width="7" height="7" style="fill:white"/>
<rect x="16" y="24" width="7" height="7" style="fill:white"/>
<rect x="32" y="24" width="7" height="7" style="fill:white"/>
<rect x="400" y="24" width="7" height="7" style="fill:white"/>
<rect x="0" y="32" width="7" height="7" style="fill:white"/>
<rect x="16" y="32" width="7" height="7" style="fill:white"/>
<rect x="24" y="32" width="7" height="7" style="fill:white"/>
<rect x="40" y="32" width="7" height="7" style="fill:white"/>
<rect x="400" y="32" width="7" height="7" style="fill:white"/>
<rect x="0" y="40" width="7" height="7" style="fill:white"/>
<rect x="16" y="40" width="7" height="7" style="fill:white"/>
<rect x="32" y="40" width="7" height="7" style="fill:white"/>
<rect x="400" y="40" width="7" height="7" style="fill:white"/>
<rect x="0" y="48" width="7" height="7" style="fill:white"/>
<rect x="400" y="48" width="7" height="7" style="fill:white"/>
<rect x="0" y="56" width="7" height="7" style="fill:white"/>
<rect x="400" y="56" width="7" height="7" style="fill:white"/>
<rect x="0" y="64" width="7" height="7" style="fill:white"/>
<rect x="16" y="64" width="7" height="7" style="fill:white"/>
<rect x="24" y="64" width="7" height="7" style="fill:white"/>
<rect x="48" y="64" width="7" height="7" style="fill:white"/>
<rect x="56" y="64" width="7" height="7" style="fill:white"/>
<rect x="64" y="64" width="7" height="7" style="fill:white"/>
<rect x="72" y="64" width="7" height="7" style="fill:white"/>
<rect x="104" y="64" width="7" height="7" style="fill:white"/>
<rect x="160" y="64" width="7" height="7" style="fill:white"/>
<rect x="168" y="64" width="7" height="7" style="fill:white"/>
<rect x="176" y="64" width="7" height="7" style="fill:white"/>
<rect x="240" y="64" width="7" height="7" style="fill:white"/>
<rect x="400" y="64" width="7" height="7" style="fill:white"/>
<rect x="0" y="72" width="7" height="7" style="fill:white"/>
<rect x="16" y="72" width="7" height="7" style="fill:white"/>
<rect x="48" y="72" width="7" height="7" style="fill:white"/>
<rect x="64" y="72" width="7" height="7" style="fill:white"/>
<rect x="96" y="72" width="7" height="7" style="fill:white"/>
<rect x="160" y="72" width="7" height="7" style="fill:white"/>
<rect x="232" y="72" width="7" height="7" style="fill:white"/>
<rect x="248" y="72" width="7" height="7" style="fill:white"/>
<rect x="400" y="72" width="7" height="7" style="fill:white"/>
<rect x="0" y="80" width="7" height="7" style="fill:white"/>
<rect x="48" y="80" width="7" height="7" style="fill:white"/>
<rect x="56" y="80" width="7" height="7" style="fill:white"/>
<rect x="72" y="80" width="7" height="7" style="fill:white"/>
<rect x="160" y="80" width="7" height="7" style="fill:white"/>
<rect x="168" y="80" width="7" height="7" style="fill:white"/>
<rect x="176" y="80" width="7" height="7" style="fill:white"/>
<rect x="400" y="80" width="7" height="7" style="fill:white"/>
<rect x="0" y="88" width="7" height="7" style="fill:white"/>
<rect x="48" y="88" width="7" height="7" style="fill:white"/>
<rect x="64" y="88" width="7" height="7" style="fill:white"/>
<rect x="400" y="88" width="7" height="7" style="fill:white"/>
<rect x="0" y="96" width="7" height="7" style="fill:white"/>
<rect x="400" y="96" width="7" height="7" style="fill:white"/>
<rect x="0" y="104" width="7" height="7" style="fill:white"/>
<rect x="400" y="104" width="7" height="7" style="fill:white"/>
<rect x="0" y="112" width="7" height="7" style="fill:white"/>
<rect x="16" y="112" width="7" height="7" style="fill:white"/>
<rect x="24" y="112" width="7" height="7" style="fill:white"/>
<rect x="48" y="112" width="7" height="7" style="fill:white"/>
<rect x="56" y="112" width="7" height="7" style="fill:white"/>
<rect x="64" y="112" width="7" height="7" style="fill:white"/>
<rect x="72" y="112" width="7" height="7" style="fill:white"/>
<rect x="104" y="112" width="7" height="7" style="fill:white"/>
<rect x="160" y="112" width="7" height="7" style="fill:white"/>
<rect x="168" y="112" width="7" height="7" style="fill:white"/>
<rect x="176" y="112" width="7" height="7" style="fill:white"/>
<rect x="240" y="112" width="7" height="7" style="fill:white"/>
<rect x="248" y="112" width="7" height="7" style="fill:white"/>
<rect x="288" y="112" width="7" height="7" style="fill:white"/>
<rect x="400" y="112" width="7" height="7" style="fill:white"/>
<rect x="0" y="120" width="7" height="7" style="fill:white"/>
<rect x="16" y="120" width="7" height="7" style="fill:white"/>
<rect x="48" y="120" width="7" height="7" style="fill:white"/>
<rect x="64" y="120" width="7" height="7" style="fill:white"/>
<rect x="96" y="120" width="7" height="7" style="fill:white"/>
<rect x="104" y="120" width="7" height="7" style="fill:white"/>
<rect x="160" y="120" width="7" height="7" style="fill:white"/>
<rect x="232" y="120" width="7" height="7" style="fill:white"/>
<rect x="256" y="120" width="7" height="7" style="fill:white"/>
<rect x="264" y="120" width="7" height="7" style="fill:white"/>
<rect x="272" y="120" width="7" height="7" style="fill:white"/>
<rect x="280" y="120" width="7" height="7" style="fill:white"/>
<rect x="400" y="120" width="7" height="7" style="fill:white"/>
<rect x="0" y="128" width="7" height="7" style="fill:white"/>
<rect x="48" y="128" width="7" height="7" style="fill:white"/>
<rect x="56" y="128" width="7" height="7" style="fill:white"/>
<rect x="72" y="128" width="7" height="7" style="fill:white"/>
<rect x="160" y="128" width="7" height="7" style="fill:white"/>
<rect x="168" y="128" width="7" height="7" style="fill:white"/>
<rect x="176" y="128" width="7" height="7" style="fill:white"/>
<rect x="400" y="128" width="7" height="7" style="fill:white"/>
<rect x="0" y="136" width="7" height="7" style="fill:white"/>
<rect x="48" y="136" width="7" height="7" style="fill:white"/>
<rect x="64" y="136" width="7" height="7" style="fill:white"/>
<rect x="400" y="136" width="7" height="7" style="fill:white"/>
<rect x="0" y="144" width="7" height="7" style="fill:white"/>
<rect x="400" y="144" width="7" height="7" style="fill:white"/>
<rect x="0" y="152" width="7" height="7" style="fill:white"/>
<rect x="400" y="152" width="7" height="7" style="fill:white"/>
<rect x="0" y="160" width="7" height="7" style="fill:white"/>
<rect x="16" y="160" width="7" height="7" style="fill:white"/>
<rect x="24" y="160" width="7" height="7" style="fill:white"/>
<rect x="48" y="160" width="7" height="7" style="fill:white"/>
<rect x="56" y="160" width="7" height="7" style="fill:white"/>
<rect x="64" y="160" width="7" height="7" style="fill:white"/>
<rect x="72" y="160" width="7" height="7" style="fill:white"/>
<rect x="104" y="160" width="7" height="7" style="fill:white"/>
<rect x="160" y="160" width="7" height="7" style="fill:white"/>
<rect x="168" y="160" width="7" height="7" style="fill:white"/>
<rect x="176" y="160" width="7" height="7" style="fill:white"/>
<rect x="232" y="160" width="7" height="7" style="fill:white"/>
<rect x="248" y="160" width="7" height="7" style="fill:white"/>
<rect x="288" y="160" width="7" height="7" style="fill:white"/>
<rect x="400" y="160" width="7" height="7" style="fill:white"/>
<rect x="0" y="168" width="7" height="7" style="fill:white"/>
<rect x="16" y="168" width="7" height="7" style="fill:white"/>
<rect x="48" y="168" width="7" height="7" style="fill:white"/>
<rect x="64" y="168" width="7" height="7" style="fill:white"/>
<rect x="96" y="168" width="7" height="7" style="fill:white"/>
<rect x="104" y="168" width="7" height="7" style="fill:white"/>
<rect x="160" y="168" width="7" height="7" style="fill:white"/>
<rect x="240" y="168" width="7" height="7" style="fill:white"/>
<rect x="256" y="168" width="7" height="7" style="fill:white"/>
<rect x="264" y="168" width="7" height="7" style="fill:white"/>
<rect x="272" y="168" width="7" height="7" style="fill:white"/>
<rect x="280" y="168" width="7" height="7" style="fill:white"/>
<rect x="400" y="168" width="7" height="7" style="fill:white"/>
<rect x="0" y="176" width="7" height="7" style="fill:white"/>
<rect x="48" y="176" width="7" height="7" style="fill:white"/>
<rect x="56" y="176" width="7" height="7" style="fill:white"/>
<rect x="72" y="176" width="7" height="7" style="fill:white"/>
<rect x="96" y="176" width="7" height="7" style="fill:white"/>
<rect x="160" y="176" width="7" height="7" style="fill:white"/>
<rect x="168" y="176" width="7" height="7" style="fill:white"/>
<rect x="176" y="176" width="7" height="7" style="fill:white"/>
<rect x="400" y="176" width="7" height="7" style="fill:white"/>
<rect x="0" y="184" width="7" height="7" style="fill:white"/>
<rect x="48" y="184" width="7" height="7" style="fill:white"/>
<rect x="64" y="184" width="7" height="7" style="fill:white"/>
<rect x="400" y="184" width="7" height="7" style="fill:white"/>
<rect x="0" y="192" width="7" height="7" style="fill:white"/>
<rect x="400" y="192" width="7" height="7" style="fill:white"/>
<rect x="0" y="200" width="7" height="7" style="fill:white"/>
<rect x="400" y="200" width="7" height="7" style="fill:white"/>
<rect x="0" y="208" width="7" height="7" style="fill:white"/>
<rect x="16" y="208" width="7" height="7" style="fill:white"/>
<rect x="24" y="208" width="7" height="7" style="fill:white"/>
<rect x="48" y="208" width="7" height="7" style="fill:white"/>
<rect x="56" y="208" width="7" height="7" style="fill:white"/>
<rect x="64" y="208" width="7" height="7" style="fill:white"/>
<rect x="72" y="208" width="7" height="7" style="fill:white"/>
<rect x="104" y="208" width="7" height="7" style="fill:white"/>
<rect x="112" y="208" width="7" height="7" style="fill:white"/>
<rect x="168" y="208" width="7" height="7" style="fill:white"/>
<rect x="176" y="208" width="7" height="7" style="fill:white"/>
<rect x="184" y="208" width="7" height="7" style="fill:white"/>
<rect x="248" y="208" width="7" height="7" style="fill:white"/>
<rect x="256" y="208" width="7" height="7" style="fill:white"/>
<rect x="288" y="208" width="7" height="7" style="fill:white"/>
<rect x="400" y="208" width="7" height="7" style="fill:white"/>
<rect x="0" y="216" width="7" height="7" style="fill:white"/>
<rect x="16" y="216" width="7" height="7" style="fill:white"/>
<rect x="48" y="216" width="7" height="7" style="fill:white"/>
<rect x="64" y="216" width="7" height="7" style="fill:white"/>
<rect x="96" y="216" width="7" height="7" style="fill:white"/>
<rect x="112" y="216" width="7" height="7" style="fill:white"/>
<rect x="168" y="216" width="7" height="7" style="fill:white"/>
<rect x="240" y="216" width="7" height="7" style="fill:white"/>
<rect x="264" y="216" width="7" height="7" style="fill:white"/>
<rect x="272" y="216" width="7" height="7" style="fill:white"/>
<rect x="280" y="216" width="7" height="7" style="fill:white"/>
<rect x="296" y="216" width="7" height="7" style="fill:white"/>
<rect x="400" y="216" width="7" height="7" style="fill:white"/>
<rect x="0" y="224" width="7" height="7" style="fill:white"/>
<rect x="48" y="224" width="7" height="7" style="fill:white"/>
<rect x="56" y="224" width="7" height="7" style="fill:white"/>
<rect x="72" y="224" width="7" height="7" style="fill:white"/>
<rect x="96" y="224" width="7" height="7" style="fill:white"/>
<rect x="168" y="224" width="7" height="7" style="fill:white"/>
<rect x="176" y="224" width="7" height="7" style="fill:white"/>
<rect x="184" y="224" width="7" height="7" style="fill:white"/>
<rect x="400" y="224" width="7" height="7" style="fill:white"/>
<rect x="0" y="232" width="7" height="7" style="fill:white"/>
<rect x="48" y="232" width="7" height="7" style="fill:white"/>
<rect x="64" y="232" width="7" height="7" style="fill:white"/>
<rect x="400" y="232" width="7" height="7" style="fill:white"/>
<rect x="0" y="240" width="7" height="7" style="fill:white"/>
<rect x="400" y="240" width="7" height="7" style="fill:white"/>
<rect x="0" y="248" width="7" height="7" style="fill:white"/>
<rect x="400" y="248" width="7" height="7" style="fill:white"/>
<rect x="0" y="256" width="7" height="7" style="fill:white"/>
<rect x="16" y="256" width="7" height="7" style="fill:white"/>
<rect x="24" y="256" width="7" height="7" style="fill:white"/>
<rect x="48" y="256" width="7" height="7" style="fill:white"/>
<rect x="56" y="256" width="7" height="7" style="fill:white"/>
<rect x="64" y="256" width="7" height="7" style="fill:white"/>
<rect x="72" y="256" width="7" height="7" style="fill:white"/>
<rect x="104" y="256" width="7" height="7" style="fill:white"/>
<rect x="112" y="256" width="7" height="7" style="fill:white"/>
<rect x="168" y="256" width="7" height="7" style="fill:white"/>
<rect x="176" y="256" width="7" height="7" style="fill:white"/>
<rect x="184" y="256" width="7" height="7" style="fill:white"/>
<rect x="240" y="256" width="7" height="7" style="fill:white"/>
<rect x="256" y="256" width="7" height="7" style="fill:white"/>
<rect x="288" y="256" width="7" height="7" style="fill:white"/>
<rect x="400" y="256" width="7" height="7" style="fill:white"/>
<rect x="0" y="264" width="7" height="7" style="fill:white"/>
<rect x="16" y="264" width="7" height="7" style="fill:white"/>
<rect x="48" y="264" width="7" height="7" style="fill:white"/>
<rect x="64" y="264" width="7" height="7" style="fill:white"/>
<rect x="96" y="264" width="7" height="7" style="fill:white"/>
<rect x="112" y="264" width="7" height="7" style="fill:white"/>
<rect x="168" y="264" width="7" height="7" style="fill:white"/>
<rect x="248" y="264" width="7" height="7" style="fill:white"/>
<rect x="264" y="264" width="7" height="7" style="fill:white"/>
<rect x="272" y="264" width="7" height="7" style="fill:white"/>
<rect x="280" y="264" width="7" height="7" style="fill:white"/>
<rect x="296" y="264" width="7" height="7" style="fill:white"/>
<rect x="400" y="264" width="7" height="7" style="fill:white"/>
<rect x="0" y="272" width="7" height="7" style="fill:white"/>
<rect x="48" y="272" width="7" height="7" style="fill:white"/>
<rect x="56" y="272" width="7" height="7" style="fill:white"/>
<rect x="72" y="272" width="7" height="7" style="fill:white"/>
<rect x="96" y="272" width="7" height="7" style="fill:white"/>
<rect x="168" y="272" width="7" height="7" style="fill:white"/>
<rect x="176" y="272" width="7" height="7" style="fill:white"/>
<rect x="184" y="272" width="7" height="7" style="fill:white"/>
<rect x="400" y="272" width="7" height="7" style="fill:white"/>
<rect x="0" y="280" width="7" height="7" style="fill:white"/>
<rect x="48" y="280" width="7" height="7" style="fill:white"/>
<rect x="64" y="280" width="7" height="7" style="fill:white"/>
<rect x="96" y="280" width="7" height="7" style="fill:white"/>
<rect x="400" y="280" width="7" height="7" style="fill:white"/>
<rect x="0" y="288" width="7" height="7" style="fill:white"/>
<rect x="400" y="288" width="7" height="7" style="fill:white"/>
<rect x="0" y="296" width="7" height="7" style="fill:white"/>
<rect x="400" y="296" width="7" height="7" style="fill:white"/>
<rect x="0" y="304" width="7" height="7" style="fill:white"/>
<rect x="400" y="304" width="7" height="7" style="fill:white"/>
<rect x="0" y="312" width="7" height="7" style="fill:white"/>
<rect x="16" y="312" width="7" height="7" style="fill:white"/>
<rect x="32" y="312" width="7" height="7" style="fill:white"/>
<rect x="48" y="312" width="7" height="7" style="fill:white"/>
<rect x="64" y="312" width="7" height="7" style="fill:white"/>
<rect x="400" y="312" width="7" height="7" style="fill:white"/>
<rect x="0" y="320" width="7" height="7" style="fill:white"/>
<rect x="400" y="320" width="7" height="7" style="fill:white"/>
<rect x="0" y="328" width="7" height="7" style="fill:white"/>
<rect x="400" y="328" width="7" height="7" style="fill:white"/>
<rect x="0" y="336" width="7" height="7" style="fill:white"/>
<rect x="400" y="336" width="7" height="7" style="fill:white"/>
<rect x="0" y="344" width="7" height="7" style="fill:white"/>
<rect x="16" y="344" width="7" height="7" style="fill:white"/>
<rect x="24" y="344" width="7" height="7" style="fill:white"/>
<rect x="48" y="344" width="7" height="7" style="fill:white"/>
<rect x="56" y="344" width="7" height="7" style="fill:white"/>
<rect x="64" y="344" width="7" height="7" style="fill:white"/>
<rect x="72" y="344" width="7" height="7" style="fill:white"/>
<rect x="104" y="344" width="7" height="7" style="fill:white"/>
<rect x="112" y="344" width="7" height="7" style="fill:white"/>
<rect x="120" y="344" width="7" height="7" style="fill:white"/>
<rect x="176" y="344" width="7" height="7" style="fill:white"/>
<rect x="184" y="344" width="7" height="7" style="fill:white"/>
<rect x="192" y="344" width="7" height="7" style="fill:white"/>
<rect x="256" y="344" width="7" height="7" style="fill:white"/>
<rect x="264" y="344" width="7" height="7" style="fill:white"/>
<rect x="272" y="344" width="7" height="7" style="fill:white"/>
<rect x="312" y="344" width="7" height="7" style="fill:white"/>
<rect x="400" y="344" width="7" height="7" style="fill:white"/>
<rect x="0" y="352" width="7" height="7" style="fill:white"/>
<rect x="16" y="352" width="7" height="7" style="fill:white"/>
<rect x="48" y="352" width="7" height="7" style="fill:white"/>
<rect x="64" y="352" width="7" height="7" style="fill:white"/>
<rect x="96" y="352" width="7" height="7" style="fill:white"/>
<rect x="176" y="352" width="7" height="7" style="fill:white"/>
<rect x="248" y="352" width="7" height="7" style="fill:white"/>
<rect x="280" y="352" width="7" height="7" style="fill:white"/>
<rect x="288" y="352" width="7" height="7" style="fill:white"/>
<rect x="296" y="352" width="7" height="7" style="fill:white"/>
<rect x="304" y="352" width="7" height="7" style="fill:white"/>
<rect x="320" y="352" width="7" height="7" style="fill:white"/>
<rect x="328" y="352" width="7" height="7" style="fill:white"/>
<rect x="336" y="352" width="7" height="7" style="fill:white"/>
<rect x="344" y="352" width="7" height="7" style="fill:white"/>
<rect x="400" y="352" width="7" height="7" style="fill:white"/>
<rect x="0" y="360" width="7" height="7" style="fill:white"/>
<rect x="48" y="360" width="7" height="7" style="fill:white"/>
<rect x="56" y="360" width="7" height="7" style="fill:white"/>
<rect x="72" y="360" width="7" height="7" style="fill:white"/>
<rect x="96" y="360" width="7" height="7" style="fill:white"/>
<rect x="112" y="360" width="7" height="7" style="fill:white"/>
<rect x="176" y="360" width="7" height="7" style="fill:white"/>
<rect x="184" y="360" width="7" height="7" style="fill:white"/>
<rect x="192" y="360" width="7" height="7" style="fill:white"/>
<rect x="400" y="360" width="7" height="7" style="fill:white"/>
<rect x="0" y="368" width="7" height="7" style="fill:white"/>
<rect x="48" y="368" width="7" height="7" style="fill:white"/>
<rect x="64" y="368" width="7" height="7" style="fill:white"/>
<rect x="96" y="368" width="7" height="7" style="fill:white"/>
<rect x="400" y="368" width="7" height="7" style="fill:white"/>
<rect x="0" y="376" width="7" height="7" style="fill:white"/>
<rect x="400" y="376" width="7" height="7" style="fill:white"/>
<rect x="0" y="384" width="7" height="7" style="fill:white"/>
<rect x="400" y="384" width="7" height="7" style="fill:white"/>
<rect x="0" y="392" width="7" height="7" style="fill:white"/>
<rect x="16" y="392" width="7" height="7" style="fill:white"/>
<rect x="24" y="392" width="7" height="7" style="fill:white"/>
<rect x="48" y="392" width="7" height="7" style="fill:white"/>
<rect x="56" y="392" width="7" height="7" style="fill:white"/>
<rect x="64" y="392" width="7" height="7" style="fill:white"/>
<rect x="72" y="392" width="7" height="7" style="fill:white"/>
<rect x="104" y="392" width="7" height="7" style="fill:white"/>
<rect x="112" y="392" width="7" height="7" style="fill:white"/>
<rect x="120" y="392" width="7" height="7" style="fill:white"/>
<rect x="176" y="392" width="7" height="7" style="fill:white"/>
<rect x="184" y="392" width="7" height="7" style="fill:white"/>
<rect x="192" y="392" width="7" height="7" style="fill:white"/>
<rect x="248" y="392" width="7" height="7" style="fill:white"/>
<rect x="264" y="392" width="7" height="7" style="fill:white"/>
<rect x="272" y="392" width="7" height="7" style="fill:white"/>
<rect x="312" y="392" width="7" height="7" style="fill:white"/>
<rect x="400" y="392" width="7" height="7" style="fill:white"/>
<rect x="0" y="400" width="7" height="7" style="fill:white"/>
<rect x="16" y="400" width="7" height="7" style="fill:white"/>
<rect x="48" y="400" width="7" height="7" style="fill:white"/>
<rect x="64" y="400" width="7" height="7" style="fill:white"/>
<rect x="96" y="400" width="7" height="7" style="fill:white"/>
<rect x="176" y="400" width="7" height="7" style="fill:white"/>
<rect x="256" y="400" width="7" height="7" style="fill:white"/>
<rect x="280" y="400" width="7" height="7" style="fill:white"/>
<rect x="288" y="400" width="7" height="7" style="fill:white"/>
<rect x="296" y="400" width="7" height="7" style="fill:white"/>
<rect x="304" y="400" width="7" height="7" style="fill:white"/>
<rect x="320" y="400" width="7" height="7" style="fill:white"/>
<rect x="328" y="400" width="7" height="7" style="fill:white"/>
<rect x="336" y="400" width="7" height="7" style="fill:white"/>
<rect x="344" y="400" width="7" height="7" style="fill:white"/>
<rect x="400" y="400" width="7" height="7" style="fill:white"/>
<rect x="0" y="408" width="7" height="7" style="fill:white"/>
<rect x="48" y="408" width="7" height="7" style="fill:white"/>
<rect x="56" y="408" width="7" height="7" style="fill:white"/>
<rect x="72" y="408" width="7" height="7" style="fill:white"/>
<rect x="96" y="408" width="7" height="7" style="fill:white"/>
<rect x="112" y="408" width="7" height="7" style="fill:white"/>
<rect x="176" y="408" width="7" height="7" style="fill:white"/>
<rect x="184" y="408" width="7" height="7" style="fill:white"/>
<rect x="192" y="408" width="7" height="7" style="fill:white"/>
<rect x="400" y="408" width="7" height="7" style="fill:white"/>
<rect x="0" y="416" width="7" height="7" style="fill:white"/>
<rect x="48" y="416" width="7" height="7" style="fill:white"/>
<rect x="64" y="416" width="7" height="7" style="fill:white"/>
<rect x="96" y="416" width="7" height="7" style="fill:white"/>
<rect x="400" y="416" width="7" height="7" style="fill:white"/>
<rect x="0" y="424" width="7" height="7" style="fill:white"/>
<rect x="96" y="424" width="7" height="7" style="fill:white"/>
<rect x="400" y="424" width="7" height="7" style="fill:white"/>
<rect x="0" y="432" width="7" height="7" style="fill:white"/>
<rect x="400" y="432" width="7" height="7" style="fill:white"/>
<rect x="0" y="440" width="7" height="7" style="fill:white"/>
<rect x="400" y="440" width="7" height="7" style="fill:white"/>
<rect x="0" y="448" width="7" height="7" style="fill:white"/>
<rect x="400" y="448" width="7" height="7" style="fill:white"/>
<rect x="0" y="456" width="7" height="7" style="fill:white"/>
<rect x="16" y="456" width="7" height="7" style="fill:white"/>
<rect x="32" y="456" width="7" height="7" style="fill:white"/>
<rect x="48" y="456" width="7" height="7" style="fill:white"/>
<rect x="64" y="456" width="7" height="7" style="fill:white"/>
<rect x="400" y="456" width="7" height="7" style="fill:white"/>
<rect x="0" y="464" width="7" height="7" style="fill:white"/>
<rect x="400" y="464" width="7" height="7" style="fill:white"/>
<rect x="0" y="472" width="7" height="7" style="fill:white"/>
<rect x="400" y="472" width="7" height="7" style="fill:white"/>
<rect x="0" y="480" width="7" height="7" style="fill:white"/>
<rect x="400" y="480" width="7" height="7" style="fill:white"/>
<rect x="0" y="488" width="7" height="7" style="fill:white"/>
<rect x="16" y="488" width="7" height="7" style="fill:white"/>
<rect x="24" y="488" width="7" height="7" style="fill:white"/>
<rect x="48" y="488" width="7" height="7" style="fill:white"/>
<rect x="56" y="488" width="7" height="7" style="fill:white"/>
<rect x="64" y="488" width="7" height="7" style="fill:white"/>
<rect x="72" y="488" width="7" height="7" style="fill:white"/>
<rect x="104" y="488" width="7" height="7" style="fill:white"/>
<rect x="112" y="488" width="7" height="7" style="fill:white"/>
<rect x="120" y="488" width="7" height="7" style="fill:white"/>
<rect x="176" y="488" width="7" height="7" style="fill:white"/>
<rect x="184" y="488" width="7" height="7" style="fill:white"/>
<rect x="192" y="488" width="7" height="7" style="fill:white"/>
<rect x="256" y="488" width="7" height="7" style="fill:white"/>
<rect x="264" y="488" width="7" height="7" style="fill:white"/>
<rect x="272" y="488" width="7" height="7" style="fill:white"/>
<rect x="288" y="488" width="7" height="7" style="fill:white"/>
<rect x="296" y="488" width="7" height="7" style="fill:white"/>
<rect x="304" y="488" width="7" height="7" style="fill:white"/>
<rect x="312" y="488" width="7" height="7" style="fill:white"/>
<rect x="320" y="488" width="7" height="7" style="fill:white"/>
<rect x="328" y="488" width="7" height="7" style="fill:white"/>
<rect x="336" y="488" width="7" height="7" style="fill:white"/>
<rect x="344" y="488" width="7" height="7" style="fill:white"/>
<rect x="400" y="488" width="7" height="7" style="fill:white"/>
<rect x="0" y="496" width="7" height="7" style="fill:white"/>
<rect x="16" y="496" width="7" height="7" style="fill:white"/>
<rect x="48" y="496" width="7" height="7" style="fill:white"/>
<rect x="64" y="496" width="7" height="7" style="fill:white"/>
<rect x="96" y="496" width="7" height="7" style="fill:white"/>
<rect x="104" y="496" width="7" height="7" style="fill:white"/>
<rect x="112" y="496" width="7" height="7" style="fill:white"/>
<rect x="120" y="496" width="7" height="7" style="fill:white"/>
<rect x="176" y="496" width="7" height="7" style="fill:white"/>
<rect x="248" y="496" width="7" height="7" style="fill:white"/>
<rect x="280" y="496" width="7" height="7" style="fill:white"/>
<rect x="400" y="496" width="7" height="7" style="fill:white"/>
<rect x="0" y="504" width="7" height="7" style="fill:white"/>
<rect x="48" y="504" width="7" height="7" style="fill:white"/>
<rect x="56" y="504" width="7" height="7" style="fill:white"/>
<rect x="72" y="504" width="7" height="7" style="fill:white"/>
<rect x="96" y="504" width="7" height="7" style="fill:white"/>
<rect x="104" y="504" width="7" height="7" style="fill:white"/>
<rect x="112" y="504" width="7" height="7" style="fill:white"/>
<rect x="120" y="504" width="7" height="7" style="fill:white"/>
<rect x="176" y="504" width="7" height="7" style="fill:white"/>
<rect x="184" y="504" width="7" height="7" style="fill:white"/>
<rect x="192" y="504" width="7" height="7" style="fill:white"/>
<rect x="400" y="504" width="7" height="7" style="fill:white"/>
<rect x="0" y="512" width="7" height="7" style="fill:white"/>
<rect x="48" y="512" width="7" height="7" style="fill:white"/>
<rect x="64" y="512" width="7" height="7" style="fill:white"/>
<rect x="96" y="512" width="7" height="7" style="fill:white"/>
<rect x="104" y="512" width="7" height="7" style="fill:white"/>
<rect x="112" y="512" width="7" height="7" style="fill:white"/>
<rect x="400" y="512" width="7" height="7" style="fill:white"/>
<rect x="0" y="520" width="7" height="7" style="fill:white"/>
<rect x="400" y="520" width="7" height="7" style="fill:white"/>
<rect x="0" y="528" width="7" height="7" style="fill:white"/>
<rect x="400" y="528" width="7" height="7" style="fill:white"/>
<rect x="0" y="536" width="7" height="7" style="fill:white"/>
<rect x="16" y="536" width="7" height="7" style="fill:white"/>
<rect x="24" y="536" width="7" height="7" style="fill:white"/>
<rect x="48" y="536" width="7" height="7" style="fill:white"/>
<rect x="56" y="536" width="7" height="7" style="fill:white"/>
<rect x="64" y="536" width="7" height="7" style="fill:white"/>
<rect x="72" y="536" width="7" height="7" style="fill:white"/>
<rect x="104" y="536" width="7" height="7" style="fill:white"/>
<rect x="112" y="536" width="7" height="7" style="fill:white"/>
<rect x="120" y="536" width="7" height="7" style="fill:white"/>
<rect x="176" y="536" width="7" height="7" style="fill:white"/>
<rect x="184" y="536" width="7" height="7" style="fill:white"/>
<rect x="192" y="536" width="7" height="7" style="fill:white"/>
<rect x="248" y="536" width="7" height="7" style="fill:white"/>
<rect x="264" y="536" width="7" height="7" style="fill:white"/>
<rect x="272" y="536" width="7" height="7" style="fill:white"/>
<rect x="288" y="536" width="7" height="7" style="fill:white"/>
<rect x="296" y="536" width="7" height="7" style="fill:white"/>
<rect x="304" y="536" width="7" height="7" style="fill:white"/>
<rect x="312" y="536" width="7" height="7" style="fill:white"/>
<rect x="320" y="536" width="7" height="7" style="fill:white"/>
<rect x="328" y="536" width="7" height="7" style="fill:white"/>
<rect x="336" y="536" width="7" height="7" style="fill:white"/>
<rect x="344" y="536" width="7" height="7" style="fill:white"/>
<rect x="400" y="536" width="7" height="7" style="fill:white"/>
<rect x="0" y="544" width="7" height="7" style="fill:white"/>
<rect x="16" y="544" width="7" height="7" style="fill:white"/>
<rect x="48" y="544" width="7" height="7" style="fill:white"/>
<rect x="64" y="544" width="7" height="7" style="fill:white"/>
<rect x="96" y="544" width="7" height="7" style="fill:white"/>
<rect x="104" y="544" width="7" height="7" style="fill:white"/>
<rect x="112" y="544" width="7" height="7" style="fill:white"/>
<rect x="120" y="544" width="7" height="7" style="fill:white"/>
<rect x="176" y="544" width="7" height="7" style="fill:white"/>
<rect x="256" y="544" width="7" height="7" style="fill:white"/>
<rect x="280" y="544" width="7" height="7" style="fill:white"/>
<rect x="400" y="544" width="7" height="7" style="fill:white"/>
<rect x="0" y="552" width="7" height="7" style="fill:white"/>
<rect x="48" y="552" width="7" height="7" style="fill:white"/>
<rect x="56" y="552" width="7" height="7" style="fill:white"/>
<rect x="72" y="552" width="7" height="7" style="fill:white"/>
<rect x="96" y="552" width="7" height="7" style="fill:white"/>
<rect x="104" y="552" width="7" height="7" style="fill:white"/>
<rect x="112" y="552" width="7" height="7" style="fill:white"/>
<rect x="120" y="552" width="7" height="7" style="fill:white"/>
<rect x="176" y="552" width="7" height="7" style="fill:white"/>
<rect x="184" y="552" width="7" height="7" style="fill:white"/>
<rect x="192" y="552" width="7" height="7" style="fill:white"/>
<rect x="400" y="552" width="7" height="7" style="fill:white"/>
<rect x="0" y="560" width="7" height="7" style="fill:white"/>
<rect x="48" y="560" width="7" height="7" style="fill:white"/>
<rect x="64" y="560" width="7" height="7" style="fill:white"/>
<rect x="96" y="560" width="7" height="7" style="fill:white"/>
<rect x="104" y="560" width="7" height="7" style="fill:white"/>
<rect x="112" y="560" width="7" height="7" style="fill:white"/>
<rect x="400" y="560" width="7" height="7" style="fill:white"/>
<rect x="0" y="568" width="7" height="7" style="fill:white"/>
<rect x="96" y="568" width="7" height="7" style="fill:white"/>
<rect x="400" y="568" width="7" height="7" style="fill:white"/>
<rect x="0" y="576" width="7" height="7" style="fill:white"/>
<rect x="400" y="576" width="7" height="7" style="fill:white"/>
<rect x="0" y="584" width="7" height="7" style="fill:white"/>
<rect x="400" y="584" width="7" height="7" style="fill:white"/>
<rect x="0" y="592" width="7" height="7" style="fill:white"/>
<rect x="16" y="592" width="7" height="7" style="fill:white"/>
<rect x="24" y="592" width="7" height="7" style="fill:white"/>
<rect x="48" y="592" width="7" height="7" style="fill:white"/>
<rect x="56" y="592" width="7" height="7" style="fill:white"/>
<rect x="64" y="592" width="7" height="7" style="fill:white"/>
<rect x="72" y="592" width="7" height="7" style="fill:white"/>
<rect x="104" y="592" width="7" height="7" style="fill:white"/>
<rect x="112" y="592" width="7" height="7" style="fill:white"/>
<rect x="120" y="592" width="7" height="7" style="fill:white"/>
<rect x="176" y="592" width="7" height="7" style="fill:white"/>
<rect x="184" y="592" width="7" height="7" style="fill:white"/>
<rect x="192" y="592" width="7" height="7" style="fill:white"/>
<rect x="256" y="592" width="7" height="7" style="fill:white"/>
<rect x="264" y="592" width="7" height="7" style="fill:white"/>
<rect x="272" y="592" width="7" height="7" style="fill:white"/>
<rect x="280" y="592" width="7" height="7" style="fill:white"/>
<rect x="320" y="592" width="7" height="7" style="fill:white"/>
<rect x="400" y="592" width="7" height="7" style="fill:white"/>
<rect x="0" y="600" width="7" height="7" style="fill:white"/>
<rect x="16" y="600" width="7" height="7" style="fill:white"/>
<rect x="48" y="600" width="7" height="7" style="fill:white"/>
<rect x="64" y="600" width="7" height="7" style="fill:white"/>
<rect x="96" y="600" width="7" height="7" style="fill:white"/>
<rect x="176" y="600" width="7" height="7" style="fill:white"/>
<rect x="248" y="600" width="7" height="7" style="fill:white"/>
<rect x="288" y="600" width="7" height="7" style="fill:white"/>
<rect x="296" y="600" width="7" height="7" style="fill:white"/>
<rect x="304" y="600" width="7" height="7" style="fill:white"/>
<rect x="312" y="600" width="7" height="7" style="fill:white"/>
<rect x="328" y="600" width="7" height="7" style="fill:white"/>
<rect x="336" y="600" width="7" height="7" style="fill:white"/>
<rect x="344" y="600" width="7" height="7" style="fill:white"/>
<rect x="352" y="600" width="7" height="7" style="fill:white"/>
<rect x="360" y="600" width="7" height="7" style="fill:white"/>
<rect x="368" y="600" width="7" height="7" style="fill:white"/>
<rect x="376" y="600" width="7" height="7" style="fill:white"/>
<rect x="384" y="600" width="7" height="7" style="fill:white"/>
<rect x="400" y="600" width="7" height="7" style="fill:white"/>
<rect x="0" y="608" width="7" height="7" style="fill:white"/>
<rect x="48" y="608" width="7" height="7" style="fill:white"/>
<rect x="56" y="608" width="7" height="7" style="fill:white"/>
<rect x="72" y="608" width="7" height="7" style="fill:white"/>
<rect x="96" y="608" width="7" height="7" style="fill:white"/>
<rect x="176" y="608" width="7" height="7" style="fill:white"/>
<rect x="184" y="608" width="7" height="7" style="fill:white"/>
<rect x="192" y="608" width="7" height="7" style="fill:white"/>
<rect x="400" y="608" width="7" height="7" style="fill:white"/>
<rect x="0" y="616" width="7" height="7" style="fill:white"/>
<rect x="48" y="616" width="7" height="7" style="fill:white"/>
<rect x="64" y="616" width="7" height="7" style="fill:white"/>
<rect x="96" y="616" width="7" height="7" style="fill:white"/>
<rect x="120" y="616" width="7" height="7" style="fill:white"/>
<rect x="400" y="616" width="7" height="7" style="fill:white"/>
<rect x="0" y="624" width="7" height="7" style="fill:white"/>
<rect x="400" y="624" width="7" height="7" style="fill:white"/>
<rect x="0" y="632" width="7" height="7" style="fill:white"/>
<rect x="400" y="632" width="7" height="7" style="fill:white"/>
<rect x="0" y="640" width="7" height="7" style="fill:white"/>
<rect x="16" y="640" width="7" height="7" style="fill:white"/>
<rect x="24" y="640" width="7" height="7" style="fill:white"/>
<rect x="48" y="640" width="7" height="7" style="fill:white"/>
<rect x="56" y="640" width="7" height="7" style="fill:white"/>
<rect x="64" y="640" width="7" height="7" style="fill:white"/>
<rect x="72" y="640" width="7" height="7" style="fill:white"/>
<rect x="104" y="640" width="7" height="7" style="fill:white"/>
<rect x="112" y="640" width="7" height="7" style="fill:white"/>
<rect x="120" y="640" width="7" height="7" style="fill:white"/>
<rect x="176" y="640" width="7" height="7" style="fill:white"/>
<rect x="184" y="640" width="7" height="7" style="fill:white"/>
<rect x="192" y="640" width="7" height="7" style="fill:white"/>
<rect x="248" y="640" width="7" height="7" style="fill:white"/>
<rect x="264" y="640" width="7" height="7" style="fill:white"/>
<rect x="272" y="640" width="7" height="7" style="fill:white"/>
<rect x="280" y="640" width="7" height="7" style="fill:white"/>
<rect x="320" y="640" width="7" height="7" style="fill:white"/>
<rect x="400" y="640" width="7" height="7" style="fill:white"/>
<rect x="0" y="648" width="7" height="7" style="fill:white"/>
<rect x="16" y="648" width="7" height="7" style="fill:white"/>
<rect x="48" y="648" width="7" height="7" style="fill:white"/>
<rect x="64" y="648" width="7" height="7" style="fill:white"/>
<rect x="96" y="648" width="7" height="7" style="fill:white"/>
<rect x="176" y="648" width="7" height="7" style="fill:white"/>
<rect x="256" y="648" width="7" height="7" style="fill:white"/>
<rect x="288" y="648" width="7" height="7" style="fill:white"/>
<rect x="296" y="648" width="7" height="7" style="fill:white"/>
<rect x="304" y="648" width="7" height="7" style="fill:white"/>
<rect x="312" y="648" width="7" height="7" style="fill:white"/>
<rect x="328" y="648" width="7" height="7" style="fill:white"/>
<rect x="336" y="648" width="7" height="7" style="fill:white"/>
<rect x="344" y="648" width="7" height="7" style="fill:white"/>
<rect x="352" y="648" width="7" height="7" style="fill:white"/>
<rect x="360" y="648" width="7" height="7" style="fill:white"/>
<rect x="368" y="648" width="7" height="7" style="fill:white"/>
<rect x="376" y="648" width="7" height="7" style="fill:white"/>
<rect x="384" y="648" width="7" height="7" style="fill:white"/>
<rect x="400" y="648" width="7" height="7" style="fill:white"/>
<rect x="0" y="656" width="7" height="7" style="fill:white"/>
<rect x="48" y="656" width="7" height="7" style="fill:white"/>
<rect x="56" y="656" width="7" height="7" style="fill:white"/>
<rect x="72" y="656" width="7" height="7" style="fill:white"/>
<rect x="96" y="656" width="7" height="7" style="fill:white"/>
<rect x="176" y="656" width="7" height="7" style="fill:white"/>
<rect x="184" y="656" width="7" height="7" style="fill:white"/>
<rect x="192" y="656" width="7" height="7" style="fill:white"/>
<rect x="400" y="656" width="7" height="7" style="fill:white"/>
<rect x="0" y="664" width="7" height="7" style="fill:white"/>
<rect x="48" y="664" width="7" height="7" style="fill:white"/>
<rect x="64" y="664" width="7" height="7" style="fill:white"/>
<rect x="96" y="664" width="7" height="7" style="fill:white"/>
<rect x="120" y="664" width="7" height="7" style="fill:white"/>
<rect x="400" y="664" width="7" height="7" style="fill:white"/>
<rect x="0" y="672" width="7" height="7" style="fill:white"/>
<rect x="96" y="672" width="7" height="7" style="fill:white"/>
<rect x="400" y="672" width="7" height="7" style="fill:white"/>
<rect x="0" y="680" width="7" height="7" style="fill:white"/>
<rect x="400" y="680" width="7" height="7" style="fill:white"/>
<rect x="0" y="688" width="7" height="7" style="fill:white"/>
<rect x="400" y="688" width="7" height="7" style="fill:white"/>
<rect x="0" y="696" width="7" height="7" style="fill:white"/>
<rect x="400" y="696" width="7" height="7" style="fill:white"/>
<rect x="0" y="704" width="7" height="7" style="fill:white"/>
<rect x="16" y="704" width="7" height="7" style="fill:white"/>
<rect x="32" y="704" width="7" height="7" style="fill:white"/>
<rect x="48" y="704" width="7" height="7" style="fill:white"/>
<rect x="64" y="704" width="7" height="7" style="fill:white"/>
<rect x="400" y="704" width="7" height="7" style="fill:white"/>
<rect x="0" y="712" width="7" height="7" style="fill:white"/>
<rect x="400" y="712" width="7" height="7" style="fill:white"/>
<rect x="0" y="720" width="7" height="7" style="fill:white"/>
<rect x="8" y="720" width="7" height="7" style="fill:white"/>
<rect x="16" y="720" width="7" height="7" style="fill:white"/>
<rect x="24" y="720" width="7" height="7" style="fill:white"/>
<rect x="32" y="720" width="7" height="7" style="fill:white"/>
<rect x="40" y="720" width="7" height="7" style="fill:white"/>
<rect x="48" y="720" width="7" height="7" style="fill:white"/>
<rect x="56" y="720" width="7" height="7" style="fill:white"/>
<rect x="64" y="720" width="7" height="7" style="fill:white"/>
<rect x="72" y="720" width="7" height="7" style="fill:white"/>
<rect x="80" y="720" width="7" height="7" style="fill:white"/>
<rect x="88" y="720" width="7" height="7" style="fill:white"/>
<rect x="96" y="720" width="7" height="7" style="fill:white"/>
<rect x="104" y="720" width="7" height="7" style="fill:white"/>
<rect x="112" y="720" width="7" height="7" style="fill:white"/>
<rect x="120" y="720" width="7" height="7" style="fill:white"/>
<rect x="128" y="720" width="7" height="7" style="fill:white"/>
<rect x="136" y="720" width="7" height="7" style="fill:white"/>
<rect x="144" y="720" width="7" height="7" style="fill:white"/>
<rect x="152" y="720" width="7" height="7" style="fill:white"/>
<rect x="160" y="720" width="7" height="7" style="fill:white"/>
<rect x="168" y="720" width="7" height="7" style="fill:white"/>
<rect x="176" y="720" width="7" height="7" style="fill:white"/>
<rect x="184" y="720" width="7" height="7" style="fill:white"/>
<rect x="192" y="720" width="7" height="7" style="fill:white"/>
<rect x="200" y="720" width="7" height="7" style="fill:white"/>
<rect x="208" y="720" width="7" height="7" style="fill:white"/>
<rect x="216" y="720" width="7" height="7" style="fill:white"/>
<rect x="224" y="720" width="7" height="7" style="fill:white"/>
<rect x="232" y="720" width="7" height="7" style="fill:white"/>
<rect x="240" y="720" width="7" height="7" style="fill:white"/>
<rect x="248" y="720" width="7" height="7" style="fill:white"/>
<rect x="256" y="720" width="7" height="7" style="fill:white"/>
<rect x="264" y="720" width="7" height="7" style="fill:white"/>
<rect x="272" y="720" width="7" height="7" style="fill:white"/>
<rect x="280" y="720" width="7" height="7" style="fill:white"/>
<rect x="288" y="720" width="7" height="7" style="fill:white"/>
<rect x="296" y="720" width="7" height="7" style="fill:white"/>
<rect x="304" y="720" width="7" height="7" style="fill:white"/>
<rect x="312" y="720" width="7" height="7" style="fill:white"/>
<rect x="320" y="720" width="7" height="7" style="fill:white"/>
<rect x="328" y="720" width="7" height="7" style="fill:white"/>
<rect x="336" y="720" width="7" height="7" style="fill:white"/>
<rect x="344" y="720" width="7" height="7" style="fill:white"/>
<rect x="352" y="720" width="7" height="7" style="fill:white"/>
<rect x="360" y="720" width="7" height="7" style="fill:white"/>
<rect x="368" y="720" width="7" height="7" style="fill:white"/>
<rect x="376" y="720" width="7" height="7" style="fill:white"/>
<rect x="384" y="720" width="7" height="7" style="fill:white"/>
<rect x="392" y="720" width="7" height="7" style="fill:white"/>
<rect x="400" y="720" width="7" height="7" style="fill:white"/>
<rect x="92.0" y="60.0" width="24" height="24" style="fill:green;opacity:0.5"/>
<text x="104.0" y="72.0" dominant-baseline="middle" text-anchor="middle" fill="white" style="paint-order: stroke; fill: white; stroke: black; stroke-width: 2px; font:24px bold sans;">0</text>
<rect x="92.0" y="108.0" width="24" height="24" style="fill:green;opacity:0.5"/>
<text x="104.0" y="120.0" dominant-baseline="middle" text-anchor="middle" fill="white" style="paint-order: stroke; fill: white; stroke: black; stroke-width: 2px; font:24px bold sans;">1</text>
<rect x="92.0" y="156.0" width="24" height="32" style="fill:green;opacity:0.5"/>
<text x="104.0" y="172.0" dominant-baseline="middle" text-anchor="middle" fill="white" style="paint-order: stroke; fill: white; stroke: black; stroke-width: 2px; font:24px bold sans;">-1</text>
<rect x="92.0" y="204.0" width="32" height="32" style="fill:green;opacity:0.5"/>
<text x="108.0" y="220.0" dominant-baseline="middle" text-anchor="middle" fill="white" style="paint-order: stroke; fill: white; stroke: black; stroke-width: 2px; font:24px bold sans;">2</text>
<rect x="92.0" y="252.0" width="32" height="40" style="fill:green;opacity:0.5"/>
<text x="108.0" y="272.0" dominant-baseline="middle" text-anchor="middle" fill="white" style="paint-order: stroke; fill: white; stroke: black; stroke-width: 2px; font:24px bold sans;">-2</text>
<rect x="92.0" y="340.0" width="40" height="40" style="fill:green;opacity:0.5"/>
<text x="112.0" y="360.0" dominant-baseline="middle" text-anchor="middle" fill="white" style="paint-order: stroke; fill: white; stroke: black; stroke-width: 2px; font:24px bold sans;">16</text>
<rect x="92.0" y="388.0" width="40" height="48" style="fill:green;opacity:0.5"/>
<text x="112.0" y="412.0" dominant-baseline="middle" text-anchor="middle" fill="white" style="paint-order: stroke; fill: white; stroke: black; stroke-width: 2px; font:24px bold sans;">-16</text>
<rect x="92.0" y="484.0" width="40" height="40" style="fill:green;opacity:0.5"/>
<text x="112.0" y="504.0" dominant-baseline="middle" text-anchor="middle" fill="white" style="paint-order: stroke; fill: white; stroke: black; stroke-width: 2px; font:24px bold sans;">255</text>
<rect x="92.0" y="532.0" width="40" height="48" style="fill:green;opacity:0.5"/>
<text x="112.0" y="556.0" dominant-baseline="middle" text-anchor="middle" fill="white" style="paint-order: stroke; fill: white; stroke: black; stroke-width: 2px; font:24px bold sans;">-255</text>
<rect x="92.0" y="588.0" width="40" height="40" style="fill:green;opacity:0.5"/>
<text x="112.0" y="608.0" dominant-baseline="middle" text-anchor="middle" fill="white" style="paint-order: stroke; fill: white; stroke: black; stroke-width: 2px; font:24px bold sans;">256</text>
<rect x="92.0" y="636.0" width="40" height="48" style="fill:green;opacity:0.5"/>
<text x="112.0" y="660.0" dominant-baseline="middle" text-anchor="middle" fill="white" style="paint-order: stroke; fill: white; stroke: black; stroke-width: 2px; font:24px bold sans;">-256</text>
</svg>
