<svg xmlns="http://www.w3.org/2000/svg" version="1.1" width="272" height="304">
<rect width="272" height="304" style="fill:black"/>
<rect x="0" y="0" width="7" height="7" style="fill:white"/>
<rect x="8" y="0" width="7" height="7" style="fill:white"/>
<rect x="16" y="0" width="7" height="7" style="fill:white"/>
<rect x="24" y="0" width="7" height="7" style="fill:white"/>
<rect x="32" y="0" width="7" height="7" style="fill:white"/>
<rect x="40" y="0" width="7" height="7" style="fill:white"/>
<rect x="48" y="0" width="7" height="7" style="fill:white"/>
<rect x="56" y="0" width="7" height="7" style="fill:white"/>
<rect x="64" y="0" width="7" height="7" style="fill:white"/>
<rect x="72" y="0" width="7" height="7" style="fill:white"/>
<rect x="80" y="0" width="7" height="7" style="fill:white"/>
<rect x="88" y="0" width="7" height="7" style="fill:white"/>
<rect x="96" y="0" width="7" height="7" style="fill:white"/>
<rect x="104" y="0" width="7" height="7" style="fill:white"/>
<rect x="112" y="0" width="7" height="7" style="fill:white"/>
<rect x="120" y="0" width="7" height="7" style="fill:white"/>
<rect x="128" y="0" width="7" height="7" style="fill:white"/>
<rect x="136" y="0" width="7" height="7" style="fill:white"/>
<rect x="144" y="0" width="7" height="7" style="fill:white"/>
<rect x="152" y="0" width="7" height="7" style="fill:white"/>
<rect x="160" y="0" width="7" height="7" style="fill:white"/>
<rect x="168" y="0" width="7" height="7" style="fill:white"/>
<rect x="176" y="0" width="7" height="7" style="fill:white"/>
<rect x="184" y="0" width="7" height="7" style="fill:white"/>
<rect x="192" y="0" width="7" height="7" style="fill:white"/>
<rect x="200" y="0" width="7" height="7" style="fill:white"/>
<rect x="208" y="0" width="7" height="7" style="fill:white"/>
<rect x="216" y="0" width="7" height="7" style="fill:white"/>
<rect x="224" y="0" width="7" height="7" style="fill:white"/>
<rect x="232" y="0" width="7" height="7" style="fill:white"/>
<rect x="240" y="0" width="7" height="7" style="fill:white"/>
<rect x="248" y="0" width="7" height="7" style="fill:white"/>
<rect x="256" y="0" width="7" height="7" style="fill:white"/>
<rect x="264" y="0" width="7" height="7" style="fill:white"/>
<rect x="0" y="8" width="7" height="7" style="fill:white"/>
<rect x="264" y="8" width="7" height="7" style="fill:white"/>
<rect x="0" y="16" width="7" height="7" style="fill:white"/>
<rect x="16" y="16" width="7" height="7" style="fill:white"/>
<rect x="24" y="16" width="7" height="7" style="fill:white"/>
<rect x="32" y="16" width="7" height="7" style="fill:white"/>
<rect x="264" y="16" width="7" height="7" style="fill:white"/>
<rect x="0" y="24" width="7" height="7" style="fill:white"/>
<rect x="16" y="24" width="7" height="7" style="fill:white"/>
<rect x="32" y="24" width="7" height="7" style="fill:white"/>
<rect x="264" y="24" width="7" height="7" style="fill:white"/>
<rect x="0" y="32" width="7" height="7" style="fill:white"/>
<rect x="16" y="32" width="7" height="7" style="fill:white"/>
<rect x="32" y="32" width="7" height="7" style="fill:white"/>
<rect x="264" y="32" width="7" height="7" style="fill:white"/>
<rect x="0" y="40" width="7" height="7" style="fill:white"/>
<rect x="264" y="40" width="7" height="7" style="fill:white"/>
<rect x="0" y="48" width="7" height="7" style="fill:white"/>
<rect x="264" y="48" width="7" height="7" style="fill:white"/>
<rect x="0" y="56" width="7" height="7" style="fill:white"/>
<rect x="16" y="56" width="7" height="7" style="fill:white"/>
<rect x="24" y="56" width="7" height="7" style="fill:white"/>
<rect x="48" y="56" width="7" height="7" style="fill:white"/>
<rect x="56" y="56" width="7" height="7" style="fill:white"/>
<rect x="64" y="56" width="7" height="7" style="fill:white"/>
<rect x="96" y="56" width="7" height="7" style="fill:white"/>
<rect x="152" y="56" width="7" height="7" style="fill:white"/>
<rect x="160" y="56" width="7" height="7" style="fill:white"/>
<rect x="168" y="56" width="7" height="7" style="fill:white"/>
<rect x="232" y="56" width="7" height="7" style="fill:white"/>
<rect x="264" y="56" width="7" height="7" style="fill:white"/>
<rect x="0" y="64" width="7" height="7" style="fill:white"/>
<rect x="16" y="64" width="7" height="7" style="fill:white"/>
<rect x="48" y="64" width="7" height="7" style="fill:white"/>
<rect x="64" y="64" width="7" height="7" style="fill:white"/>
<rect x="88" y="64" width="7" height="7" style="fill:white"/>
<rect x="152" y="64" width="7" height="7" style="fill:white"/>
<rect x="224" y="64" width="7" height="7" style="fill:white"/>
<rect x="264" y="64" width="7" height="7" style="fill:white"/>
<rect x="0" y="72" width="7" height="7" style="fill:white"/>
<rect x="48" y="72" width="7" height="7" style="fill:white"/>
<rect x="64" y="72" width="7" height="7" style="fill:white"/>
<rect x="152" y="72" width="7" height="7" style="fill:white"/>
<rect x="160" y="72" width="7" height="7" style="fill:white"/>
<rect x="168" y="72" width="7" height="7" style="fill:white"/>
<rect x="264" y="72" width="7" height="7" style="fill:white"/>
<rect x="0" y="80" width="7" height="7" style="fill:white"/>
<rect x="264" y="80" width="7" height="7" style="fill:white"/>
<rect x="0" y="88" width="7" height="7" style="fill:white"/>
<rect x="264" y="88" width="7" height="7" style="fill:white"/>
<rect x="0" y="96" width="7" height="7" style="fill:white"/>
<rect x="16" y="96" width="7" height="7" style="fill:white"/>
<rect x="24" y="96" width="7" height="7" style="fill:white"/>
<rect x="48" y="96" width="7" height="7" style="fill:white"/>
<rect x="56" y="96" width="7" height="7" style="fill:white"/>
<rect x="64" y="96" width="7" height="7" style="fill:white"/>
<rect x="96" y="96" width="7" height="7" style="fill:white"/>
<rect x="152" y="96" width="7" height="7" style="fill:white"/>
<rect x="160" y="96" width="7" height="7" style="fill:white"/>
<rect x="168" y="96" width="7" height="7" style="fill:white"/>
<rect x="232" y="96" width="7" height="7" style="fill:white"/>
<rect x="264" y="96" width="7" height="7" style="fill:white"/>
<rect x="0" y="104" width="7" height="7" style="fill:white"/>
<rect x="16" y="104" width="7" height="7" style="fill:white"/>
<rect x="48" y="104" width="7" height="7" style="fill:white"/>
<rect x="64" y="104" width="7" height="7" style="fill:white"/>
<rect x="88" y="104" width="7" height="7" style="fill:white"/>
<rect x="96" y="104" width="7" height="7" style="fill:white"/>
<rect x="152" y="104" width="7" height="7" style="fill:white"/>
<rect x="224" y="104" width="7" height="7" style="fill:white"/>
<rect x="232" y="104" width="7" height="7" style="fill:white"/>
<rect x="264" y="104" width="7" height="7" style="fill:white"/>
<rect x="0" y="112" width="7" height="7" style="fill:white"/>
<rect x="48" y="112" width="7" height="7" style="fill:white"/>
<rect x="64" y="112" width="7" height="7" style="fill:white"/>
<rect x="152" y="112" width="7" height="7" style="fill:white"/>
<rect x="160" y="112" width="7" height="7" style="fill:white"/>
<rect x="168" y="112" width="7" height="7" style="fill:white"/>
<rect x="224" y="112" width="7" height="7" style="fill:white"/>
<rect x="264" y="112" width="7" height="7" style="fill:white"/>
<rect x="0" y="120" width="7" height="7" style="fill:white"/>
<rect x="264" y="120" width="7" height="7" style="fill:white"/>
<rect x="0" y="128" width="7" height="7" style="fill:white"/>
<rect x="264" y="128" width="7" height="7" style="fill:white"/>
<rect x="0" y="136" width="7" height="7" style="fill:white"/>
<rect x="16" y="136" width="7" height="7" style="fill:white"/>
<rect x="24" y="136" width="7" height="7" style="fill:white"/>
<rect x="48" y="136" width="7" height="7" style="fill:white"/>
<rect x="56" y="136" width="7" height="7" style="fill:white"/>
<rect x="64" y="136" width="7" height="7" style="fill:white"/>
<rect x="96" y="136" width="7" height="7" style="fill:white"/>
<rect x="152" y="136" width="7" height="7" style="fill:white"/>
<rect x="160" y="136" width="7" height="7" style="fill:white"/>
<rect x="168" y="136" width="7" height="7" style="fill:white"/>
<rect x="232" y="136" width="7" height="7" style="fill:white"/>
<rect x="264" y="136" width="7" height="7" style="fill:white"/>
<rect x="0" y="144" width="7" height="7" style="fill:white"/>
<rect x="16" y="144" width="7" height="7" style="fill:white"/>
<rect x="48" y="144" width="7" height="7" style="fill:white"/>
<rect x="64" y="144" width="7" height="7" style="fill:white"/>
<rect x="88" y="144" width="7" height="7" style="fill:white"/>
<rect x="96" y="144" width="7" height="7" style="fill:white"/>
<rect x="152" y="144" width="7" height="7" style="fill:white"/>
<rect x="224" y="144" width="7" height="7" style="fill:white"/>
<rect x="232" y="144" width="7" height="7" style="fill:white"/>
<rect x="264" y="144" width="7" height="7" style="fill:white"/>
<rect x="0" y="152" width="7" height="7" style="fill:white"/>
<rect x="48" y="152" width="7" height="7" style="fill:white"/>
<rect x="64" y="152" width="7" height="7" style="fill:white"/>
<rect x="88" y="152" width="7" height="7" style="fill:white"/>
<rect x="152" y="152" width="7" height="7" style="fill:white"/>
<rect x="160" y="152" width="7" height="7" style="fill:white"/>
<rect x="168" y="152" width="7" height="7" style="fill:white"/>
<rect x="264" y="152" width="7" height="7" style="fill:white"/>
<rect x="0" y="160" width="7" height="7" style="fill:white"/>
<rect x="264" y="160" width="7" height="7" style="fill:white"/>
<rect x="0" y="168" width="7" height="7" style="fill:white"/>
<rect x="264" y="168" width="7" height="7" style="fill:white"/>
<rect x="0" y="176" width="7" height="7" style="fill:white"/>
<rect x="16" y="176" width="7" height="7" style="fill:white"/>
<rect x="24" y="176" width="7" height="7" style="fill:white"/>
<rect x="48" y="176" width="7" height="7" style="fill:white"/>
<rect x="56" y="176" width="7" height="7" style="fill:white"/>
<rect x="64" y="176" width="7" height="7" style="fill:white"/>
<rect x="96" y="176" width="7" height="7" style="fill:white"/>
<rect x="104" y="176" width="7" height="7" style="fill:white"/>
<rect x="160" y="176" width="7" height="7" style="fill:white"/>
<rect x="168" y="176" width="7" height="7" style="fill:white"/>
<rect x="176" y="176" width="7" height="7" style="fill:white"/>
<rect x="240" y="176" width="7" height="7" style="fill:white"/>
<rect x="248" y="176" width="7" height="7" style="fill:white"/>
<rect x="264" y="176" width="7" height="7" style="fill:white"/>
<rect x="0" y="184" width="7" height="7" style="fill:white"/>
<rect x="16" y="184" width="7" height="7" style="fill:white"/>
<rect x="48" y="184" width="7" height="7" style="fill:white"/>
<rect x="64" y="184" width="7" height="7" style="fill:white"/>
<rect x="88" y="184" width="7" height="7" style="fill:white"/>
<rect x="104" y="184" width="7" height="7" style="fill:white"/>
<rect x="160" y="184" width="7" height="7" style="fill:white"/>
<rect x="232" y="184" width="7" height="7" style="fill:white"/>
<rect x="248" y="184" width="7" height="7" style="fill:white"/>
<rect x="264" y="184" width="7" height="7" style="fill:white"/>
<rect x="0" y="192" width="7" height="7" style="fill:white"/>
<rect x="48" y="192" width="7" height="7" style="fill:white"/>
<rect x="64" y="192" width="7" height="7" style="fill:white"/>
<rect x="88" y="192" width="7" height="7" style="fill:white"/>
<rect x="160" y="192" width="7" height="7" style="fill:white"/>
<rect x="168" y="192" width="7" height="7" style="fill:white"/>
<rect x="176" y="192" width="7" height="7" style="fill:white"/>
<rect x="232" y="192" width="7" height="7" style="fill:white"/>
<rect x="264" y="192" width="7" height="7" style="fill:white"/>
<rect x="0" y="200" width="7" height="7" style="fill:white"/>
<rect x="232" y="200" width="7" height="7" style="fill:white"/>
<rect x="264" y="200" width="7" height="7" style="fill:white"/>
<rect x="0" y="208" width="7" height="7" style="fill:white"/>
<rect x="264" y="208" width="7" height="7" style="fill:white"/>
<rect x="0" y="216" width="7" height="7" style="fill:white"/>
<rect x="264" y="216" width="7" height="7" style="fill:white"/>
<rect x="0" y="224" width="7" height="7" style="fill:white"/>
<rect x="16" y="224" width="7" height="7" style="fill:white"/>
<rect x="24" y="224" width="7" height="7" style="fill:white"/>
<rect x="48" y="224" width="7" height="7" style="fill:white"/>
<rect x="56" y="224" width="7" height="7" style="fill:white"/>
<rect x="64" y="224" width="7" height="7" style="fill:white"/>
<rect x="96" y="224" width="7" height="7" style="fill:white"/>
<rect x="104" y="224" width="7" height="7" style="fill:white"/>
<rect x="160" y="224" width="7" height="7" style="fill:white"/>
<rect x="168" y="224" width="7" height="7" style="fill:white"/>
<rect x="176" y="224" width="7" height="7" style="fill:white"/>
<rect x="240" y="224" width="7" height="7" style="fill:white"/>
<rect x="248" y="224" width="7" height="7" style="fill:white"/>
<rect x="264" y="224" width="7" height="7" style="fill:white"/>
<rect x="0" y="232" width="7" height="7" style="fill:white"/>
<rect x="16" y="232" width="7" height="7" style="fill:white"/>
<rect x="48" y="232" width="7" height="7" style="fill:white"/>
<rect x="64" y="232" width="7" height="7" style="fill:white"/>
<rect x="88" y="232" width="7" height="7" style="fill:white"/>
<rect x="104" y="232" width="7" height="7" style="fill:white"/>
<rect x="160" y="232" width="7" height="7" style="fill:white"/>
<rect x="232" y="232" width="7" height="7" style="fill:white"/>
<rect x="248" y="232" width="7" height="7" style="fill:white"/>
<rect x="264" y="232" width="7" height="7" style="fill:white"/>
<rect x="0" y="240" width="7" height="7" style="fill:white"/>
<rect x="48" y="240" width="7" height="7" style="fill:white"/>
<rect x="64" y="240" width="7" height="7" style="fill:white"/>
<rect x="88" y="240" width="7" height="7" style="fill:white"/>
<rect x="160" y="240" width="7" height="7" style="fill:white"/>
<rect x="168" y="240" width="7" height="7" style="fill:white"/>
<rect x="176" y="240" width="7" height="7" style="fill:white"/>
<rect x="232" y="240" width="7" height="7" style="fill:white"/>
<rect x="264" y="240" width="7" height="7" style="fill:white"/>
<rect x="0" y="248" width="7" height="7" style="fill:white"/>
<rect x="88" y="248" width="7" height="7" style="fill:white"/>
<rect x="264" y="248" width="7" height="7" style="fill:white"/>
<rect x="0" y="256" width="7" height="7" style="fill:white"/>
<rect x="264" y="256" width="7" height="7" style="fill:white"/>
<rect x="0" y="264" width="7" height="7" style="fill:white"/>
<rect x="264" y="264" width="7" height="7" style="fill:white"/>
<rect x="0" y="272" width="7" height="7" style="fill:white"/>
<rect x="264" y="272" width="7" height="7" style="fill:white"/>
<rect x="0" y="280" width="7" height="7" style="fill:white"/>
<rect x="16" y="280" width="7" height="7" style="fill:white"/>
<rect x="32" y="280" width="7" height="7" style="fill:white"/>
<rect x="48" y="280" width="7" height="7" style="fill:white"/>
<rect x="64" y="280" width="7" height="7" style="fill:white"/>
<rect x="264" y="280" width="7" height="7" style="fill:white"/>
<rect x="0" y="288" width="7" height="7" style="fill:white"/>
<rect x="264" y="288" width="7" height="7" style="fill:white"/>
<rect x="0" y="296" width="7" height="7" style="fill:white"/>
<rect x="8" y="296" width="7" height="7" style="fill:white"/>
<rect x="16" y="296" width="7" height="7" style="fill:white"/>
<rect x="24" y="296" width="7" height="7" style="fill:white"/>
<rect x="32" y="296" width="7" height="7" style="fill:white"/>
<rect x="40" y="296" width="7" height="7" style="fill:white"/>
<rect x="48" y="296" width="7" height="7" style="fill:white"/>
<rect x="56" y="296" width="7" height="7" style="fill:white"/>
<rect x="64" y="296" width="7" height="7" style="fill:white"/>
<rect x="72" y="296" width="7" height="7" style="fill:white"/>
<rect x="80" y="296" width="7" height="7" style="fill:white"/>
<rect x="88" y="296" width="7" height="7" style="fill:white"/>
<rect x="96" y="296" width="7" height="7" style="fill:white"/>
<rect x="104" y="296" width="7" height="7" style="fill:white"/>
<rect x="112" y="296" width="7" height="7" style="fill:white"/>
<rect x="120" y="296" width="7" height="7" style="fill:white"/>
<rect x="128" y="296" width="7" height="7" style="fill:white"/>
<rect x="136" y="296" width="7" height="7" style="fill:white"/>
<rect x="144" y="296" width="7" height="7" style="fill:white"/>
<rect x="152" y="296" width="7" height="7" style="fill:white"/>
<rect x="160" y="296" width="7" height="7" style="fill:white"/>
<rect x="168" y="296" width="7" height="7" style="fill:white"/>
<rect x="176" y="296" width="7" height="7" style="fill:white"/>
<rect x="184" y="296" width="7" height="7" style="fill:white"/>
<rect x="192" y="296" width="7" height="7" style="fill:white"/>
<rect x="200" y="296" width="7" height="7" style="fill:white"/>
<rect x="208" y="296" width="7" height="7" style="fill:white"/>
<rect x="216" y="296" width="7" height="7" style="fill:white"/>
<rect x="224" y="296" width="7" height="7" style="fill:white"/>
<rect x="232" y="296" width="7" height="7" style="fill:white"/>
<rect x="240" y="296" width="7" height="7" style="fill:white"/>
<rect x="248" y="296" width="7" height="7" style="fill:white"/>
<rect x="256" y="296" width="7" height="7" style="fill:white"/>
<rect x="264" y="296" width="7" height="7" style="fill:white"/>
<rect x="84.0" y="52.0" width="24" height="24" style="fill:green;opacity:0.5"/>
<text x="96.0" y="64.0" dominant-baseline="middle" text-anchor="middle" fill="white" style="paint-order: stroke; fill: white; stroke: black; stroke-width: 2px; font:24px bold sans;">0</text>
<rect x="220.0" y="52.0" width="24" height="24" style="fill:green;opacity:0.5"/>
<text x="232.0" y="64.0" dominant-baseline="middle" text-anchor="middle" fill="white" style="paint-order: stroke; fill: white; stroke: black; stroke-width: 2px; font:24px bold sans;">0</text>
<rect x="84.0" y="92.0" width="24" height="24" style="fill:green;opacity:0.5"/>
<text x="96.0" y="104.0" dominant-baseline="middle" text-anchor="middle" fill="white" style="paint-order: stroke; fill: white; stroke: black; stroke-width: 2px; font:24px bold sans;">1</text>
<rect x="220.0" y="92.0" width="24" height="32" style="fill:green;opacity:0.5"/>
<text x="232.0" y="108.0" dominant-baseline="middle" text-anchor="middle" fill="white" style="paint-order: stroke; fill: white; stroke: black; stroke-width: 2px; font:24px bold sans;">-1</text>
<rect x="84.0" y="132.0" width="24" height="32" style="fill:green;opacity:0.5"/>
<text x="96.0" y="148.0" dominant-baseline="middle" text-anchor="middle" fill="white" style="paint-order: stroke; fill: white; stroke: black; stroke-width: 2px; font:24px bold sans;">-1</text>
<rect x="220.0" y="132.0" width="24" height="24" style="fill:green;opacity:0.5"/>
<text x="232.0" y="144.0" dominant-baseline="middle" text-anchor="middle" fill="white" style="paint-order: stroke; fill: white; stroke: black; stroke-width: 2px; font:24px bold sans;">1</text>
<rect x="84.0" y="172.0" width="32" height="32" style="fill:green;opacity:0.5"/>
<text x="100.0" y="188.0" dominant-baseline="middle" text-anchor="middle" fill="white" style="paint-order: stroke; fill: white; stroke: black; stroke-width: 2px; font:24px bold sans;">2</text>
<rect x="228.0" y="172.0" width="32" height="40" style="fill:green;opacity:0.5"/>
<text x="244.0" y="192.0" dominant-baseline="middle" text-anchor="middle" fill="white" style="paint-order: stroke; fill: white; stroke: black; stroke-width: 2px; font:24px bold sans;">-2</text>
<rect x="84.0" y="220.0" width="32" height="40" style="fill:green;opacity:0.5"/>
<text x="100.0" y="240.0" dominant-baseline="middle" text-anchor="middle" fill="white" style="paint-order: stroke; fill: white; stroke: black; stroke-width: 2px; font:24px bold sans;">-2</text>
<rect x="228.0" y="220.0" width="32" height="32" style="fill:green;opacity:0.5"/>
<text x="244.0" y="236.0" dominant-baseline="middle" text-anchor="middle" fill="white" style="paint-order: stroke; fill: white; stroke: black; stroke-width: 2px; font:24px bold sans;">2</text>
</svg>
