<svg xmlns="http://www.w3.org/2000/svg" version="1.1" width="352" height="336">
<rect width="352" height="336" style="fill:black"/>
<rect x="0" y="0" width="7" height="7" style="fill:white"/>
<rect x="8" y="0" width="7" height="7" style="fill:white"/>
<rect x="16" y="0" width="7" height="7" style="fill:white"/>
<rect x="24" y="0" width="7" height="7" style="fill:white"/>
<rect x="32" y="0" width="7" height="7" style="fill:white"/>
<rect x="40" y="0" width="7" height="7" style="fill:white"/>
<rect x="48" y="0" width="7" height="7" style="fill:white"/>
<rect x="56" y="0" width="7" height="7" style="fill:white"/>
<rect x="64" y="0" width="7" height="7" style="fill:white"/>
<rect x="72" y="0" width="7" height="7" style="fill:white"/>
<rect x="80" y="0" width="7" height="7" style="fill:white"/>
<rect x="88" y="0" width="7" height="7" style="fill:white"/>
<rect x="96" y="0" width="7" height="7" style="fill:white"/>
<rect x="104" y="0" width="7" height="7" style="fill:white"/>
<rect x="112" y="0" width="7" height="7" style="fill:white"/>
<rect x="120" y="0" width="7" height="7" style="fill:white"/>
<rect x="128" y="0" width="7" height="7" style="fill:white"/>
<rect x="136" y="0" width="7" height="7" style="fill:white"/>
<rect x="144" y="0" width="7" height="7" style="fill:white"/>
<rect x="152" y="0" width="7" height="7" style="fill:white"/>
<rect x="160" y="0" width="7" height="7" style="fill:white"/>
<rect x="168" y="0" width="7" height="7" style="fill:white"/>
<rect x="176" y="0" width="7" height="7" style="fill:white"/>
<rect x="184" y="0" width="7" height="7" style="fill:white"/>
<rect x="192" y="0" width="7" height="7" style="fill:white"/>
<rect x="200" y="0" width="7" height="7" style="fill:white"/>
<rect x="208" y="0" width="7" height="7" style="fill:white"/>
<rect x="216" y="0" width="7" height="7" style="fill:white"/>
<rect x="224" y="0" width="7" height="7" style="fill:white"/>
<rect x="232" y="0" width="7" height="7" style="fill:white"/>
<rect x="240" y="0" width="7" height="7" style="fill:white"/>
<rect x="248" y="0" width="7" height="7" style="fill:white"/>
<rect x="256" y="0" width="7" height="7" style="fill:white"/>
<rect x="264" y="0" width="7" height="7" style="fill:white"/>
<rect x="272" y="0" width="7" height="7" style="fill:white"/>
<rect x="280" y="0" width="7" height="7" style="fill:white"/>
<rect x="288" y="0" width="7" height="7" style="fill:white"/>
<rect x="296" y="0" width="7" height="7" style="fill:white"/>
<rect x="304" y="0" width="7" height="7" style="fill:white"/>
<rect x="312" y="0" width="7" height="7" style="fill:white"/>
<rect x="320" y="0" width="7" height="7" style="fill:white"/>
<rect x="328" y="0" width="7" height="7" style="fill:white"/>
<rect x="336" y="0" width="7" height="7" style="fill:white"/>
<rect x="344" y="0" width="7" height="7" style="fill:white"/>
<rect x="0" y="8" width="7" height="7" style="fill:white"/>
<rect x="344" y="8" width="7" height="7" style="fill:white"/>
<rect x="0" y="16" width="7" height="7" style="fill:white"/>
<rect x="16" y="16" width="7" height="7" style="fill:white"/>
<rect x="24" y="16" width="7" height="7" style="fill:white"/>
<rect x="32" y="16" width="7" height="7" style="fill:white"/>
<rect x="40" y="16" width="7" height="7" style="fill:white"/>
<rect x="344" y="16" width="7" height="7" style="fill:white"/>
<rect x="0" y="24" width="7" height="7" style="fill:white"/>
<rect x="16" y="24" width="7" height="7" style="fill:white"/>
<rect x="24" y="24" width="7" height="7" style="fill:white"/>
<rect x="40" y="24" width="7" height="7" style="fill:white"/>
<rect x="344" y="24" width="7" height="7" style="fill:white"/>
<rect x="0" y="32" width="7" height="7" style="fill:white"/>
<rect x="16" y="32" width="7" height="7" style="fill:white"/>
<rect x="24" y="32" width="7" height="7" style="fill:white"/>
<rect x="40" y="32" width="7" height="7" style="fill:white"/>
<rect x="344" y="32" width="7" height="7" style="fill:white"/>
<rect x="0" y="40" width="7" height="7" style="fill:white"/>
<rect x="16" y="40" width="7" height="7" style="fill:white"/>
<rect x="24" y="40" width="7" height="7" style="fill:white"/>
<rect x="40" y="40" width="7" height="7" style="fill:white"/>
<rect x="344" y="40" width="7" height="7" style="fill:white"/>
<rect x="0" y="48" width="7" height="7" style="fill:white"/>
<rect x="344" y="48" width="7" height="7" style="fill:white"/>
<rect x="0" y="56" width="7" height="7" style="fill:white"/>
<rect x="344" y="56" width="7" height="7" style="fill:white"/>
<rect x="0" y="64" width="7" height="7" style="fill:white"/>
<rect x="16" y="64" width="7" height="7" style="fill:white"/>
<rect x="24" y="64" width="7" height="7" style="fill:white"/>
<rect x="48" y="64" width="7" height="7" style="fill:white"/>
<rect x="56" y="64" width="7" height="7" style="fill:white"/>
<rect x="80" y="64" width="7" height="7" style="fill:white"/>
<rect x="88" y="64" width="7" height="7" style="fill:white"/>
<rect x="96" y="64" width="7" height="7" style="fill:white"/>
<rect x="104" y="64" width="7" height="7" style="fill:white"/>
<rect x="136" y="64" width="7" height="7" style="fill:white"/>
<rect x="168" y="64" width="7" height="7" style="fill:white"/>
<rect x="176" y="64" width="7" height="7" style="fill:white"/>
<rect x="232" y="64" width="7" height="7" style="fill:white"/>
<rect x="240" y="64" width="7" height="7" style="fill:white"/>
<rect x="248" y="64" width="7" height="7" style="fill:white"/>
<rect x="312" y="64" width="7" height="7" style="fill:white"/>
<rect x="320" y="64" width="7" height="7" style="fill:white"/>
<rect x="344" y="64" width="7" height="7" style="fill:white"/>
<rect x="0" y="72" width="7" height="7" style="fill:white"/>
<rect x="16" y="72" width="7" height="7" style="fill:white"/>
<rect x="48" y="72" width="7" height="7" style="fill:white"/>
<rect x="80" y="72" width="7" height="7" style="fill:white"/>
<rect x="88" y="72" width="7" height="7" style="fill:white"/>
<rect x="104" y="72" width="7" height="7" style="fill:white"/>
<rect x="128" y="72" width="7" height="7" style="fill:white"/>
<rect x="136" y="72" width="7" height="7" style="fill:white"/>
<rect x="160" y="72" width="7" height="7" style="fill:white"/>
<rect x="176" y="72" width="7" height="7" style="fill:white"/>
<rect x="232" y="72" width="7" height="7" style="fill:white"/>
<rect x="304" y="72" width="7" height="7" style="fill:white"/>
<rect x="312" y="72" width="7" height="7" style="fill:white"/>
<rect x="320" y="72" width="7" height="7" style="fill:white"/>
<rect x="344" y="72" width="7" height="7" style="fill:white"/>
<rect x="0" y="80" width="7" height="7" style="fill:white"/>
<rect x="80" y="80" width="7" height="7" style="fill:white"/>
<rect x="88" y="80" width="7" height="7" style="fill:white"/>
<rect x="104" y="80" width="7" height="7" style="fill:white"/>
<rect x="160" y="80" width="7" height="7" style="fill:white"/>
<rect x="232" y="80" width="7" height="7" style="fill:white"/>
<rect x="240" y="80" width="7" height="7" style="fill:white"/>
<rect x="248" y="80" width="7" height="7" style="fill:white"/>
<rect x="304" y="80" width="7" height="7" style="fill:white"/>
<rect x="344" y="80" width="7" height="7" style="fill:white"/>
<rect x="0" y="88" width="7" height="7" style="fill:white"/>
<rect x="80" y="88" width="7" height="7" style="fill:white"/>
<rect x="88" y="88" width="7" height="7" style="fill:white"/>
<rect x="104" y="88" width="7" height="7" style="fill:white"/>
<rect x="344" y="88" width="7" height="7" style="fill:white"/>
<rect x="0" y="96" width="7" height="7" style="fill:white"/>
<rect x="344" y="96" width="7" height="7" style="fill:white"/>
<rect x="0" y="104" width="7" height="7" style="fill:white"/>
<rect x="344" y="104" width="7" height="7" style="fill:white"/>
<rect x="0" y="112" width="7" height="7" style="fill:white"/>
<rect x="16" y="112" width="7" height="7" style="fill:white"/>
<rect x="24" y="112" width="7" height="7" style="fill:white"/>
<rect x="48" y="112" width="7" height="7" style="fill:white"/>
<rect x="56" y="112" width="7" height="7" style="fill:white"/>
<rect x="80" y="112" width="7" height="7" style="fill:white"/>
<rect x="88" y="112" width="7" height="7" style="fill:white"/>
<rect x="96" y="112" width="7" height="7" style="fill:white"/>
<rect x="104" y="112" width="7" height="7" style="fill:white"/>
<rect x="136" y="112" width="7" height="7" style="fill:white"/>
<rect x="144" y="112" width="7" height="7" style="fill:white"/>
<rect x="176" y="112" width="7" height="7" style="fill:white"/>
<rect x="232" y="112" width="7" height="7" style="fill:white"/>
<rect x="240" y="112" width="7" height="7" style="fill:white"/>
<rect x="248" y="112" width="7" height="7" style="fill:white"/>
<rect x="312" y="112" width="7" height="7" style="fill:white"/>
<rect x="320" y="112" width="7" height="7" style="fill:white"/>
<rect x="344" y="112" width="7" height="7" style="fill:white"/>
<rect x="0" y="120" width="7" height="7" style="fill:white"/>
<rect x="16" y="120" width="7" height="7" style="fill:white"/>
<rect x="48" y="120" width="7" height="7" style="fill:white"/>
<rect x="80" y="120" width="7" height="7" style="fill:white"/>
<rect x="88" y="120" width="7" height="7" style="fill:white"/>
<rect x="104" y="120" width="7" height="7" style="fill:white"/>
<rect x="128" y="120" width="7" height="7" style="fill:white"/>
<rect x="144" y="120" width="7" height="7" style="fill:white"/>
<rect x="168" y="120" width="7" height="7" style="fill:white"/>
<rect x="176" y="120" width="7" height="7" style="fill:white"/>
<rect x="232" y="120" width="7" height="7" style="fill:white"/>
<rect x="304" y="120" width="7" height="7" style="fill:white"/>
<rect x="312" y="120" width="7" height="7" style="fill:white"/>
<rect x="320" y="120" width="7" height="7" style="fill:white"/>
<rect x="344" y="120" width="7" height="7" style="fill:white"/>
<rect x="0" y="128" width="7" height="7" style="fill:white"/>
<rect x="80" y="128" width="7" height="7" style="fill:white"/>
<rect x="88" y="128" width="7" height="7" style="fill:white"/>
<rect x="104" y="128" width="7" height="7" style="fill:white"/>
<rect x="128" y="128" width="7" height="7" style="fill:white"/>
<rect x="232" y="128" width="7" height="7" style="fill:white"/>
<rect x="240" y="128" width="7" height="7" style="fill:white"/>
<rect x="248" y="128" width="7" height="7" style="fill:white"/>
<rect x="304" y="128" width="7" height="7" style="fill:white"/>
<rect x="344" y="128" width="7" height="7" style="fill:white"/>
<rect x="0" y="136" width="7" height="7" style="fill:white"/>
<rect x="80" y="136" width="7" height="7" style="fill:white"/>
<rect x="88" y="136" width="7" height="7" style="fill:white"/>
<rect x="104" y="136" width="7" height="7" style="fill:white"/>
<rect x="344" y="136" width="7" height="7" style="fill:white"/>
<rect x="0" y="144" width="7" height="7" style="fill:white"/>
<rect x="344" y="144" width="7" height="7" style="fill:white"/>
<rect x="0" y="152" width="7" height="7" style="fill:white"/>
<rect x="344" y="152" width="7" height="7" style="fill:white"/>
<rect x="0" y="160" width="7" height="7" style="fill:white"/>
<rect x="16" y="160" width="7" height="7" style="fill:white"/>
<rect x="24" y="160" width="7" height="7" style="fill:white"/>
<rect x="48" y="160" width="7" height="7" style="fill:white"/>
<rect x="56" y="160" width="7" height="7" style="fill:white"/>
<rect x="80" y="160" width="7" height="7" style="fill:white"/>
<rect x="88" y="160" width="7" height="7" style="fill:white"/>
<rect x="96" y="160" width="7" height="7" style="fill:white"/>
<rect x="104" y="160" width="7" height="7" style="fill:white"/>
<rect x="136" y="160" width="7" height="7" style="fill:white"/>
<rect x="168" y="160" width="7" height="7" style="fill:white"/>
<rect x="224" y="160" width="7" height="7" style="fill:white"/>
<rect x="232" y="160" width="7" height="7" style="fill:white"/>
<rect x="240" y="160" width="7" height="7" style="fill:white"/>
<rect x="304" y="160" width="7" height="7" style="fill:white"/>
<rect x="344" y="160" width="7" height="7" style="fill:white"/>
<rect x="0" y="168" width="7" height="7" style="fill:white"/>
<rect x="16" y="168" width="7" height="7" style="fill:white"/>
<rect x="48" y="168" width="7" height="7" style="fill:white"/>
<rect x="80" y="168" width="7" height="7" style="fill:white"/>
<rect x="88" y="168" width="7" height="7" style="fill:white"/>
<rect x="104" y="168" width="7" height="7" style="fill:white"/>
<rect x="128" y="168" width="7" height="7" style="fill:white"/>
<rect x="160" y="168" width="7" height="7" style="fill:white"/>
<rect x="168" y="168" width="7" height="7" style="fill:white"/>
<rect x="224" y="168" width="7" height="7" style="fill:white"/>
<rect x="296" y="168" width="7" height="7" style="fill:white"/>
<rect x="304" y="168" width="7" height="7" style="fill:white"/>
<rect x="344" y="168" width="7" height="7" style="fill:white"/>
<rect x="0" y="176" width="7" height="7" style="fill:white"/>
<rect x="80" y="176" width="7" height="7" style="fill:white"/>
<rect x="88" y="176" width="7" height="7" style="fill:white"/>
<rect x="104" y="176" width="7" height="7" style="fill:white"/>
<rect x="224" y="176" width="7" height="7" style="fill:white"/>
<rect x="232" y="176" width="7" height="7" style="fill:white"/>
<rect x="240" y="176" width="7" height="7" style="fill:white"/>
<rect x="344" y="176" width="7" height="7" style="fill:white"/>
<rect x="0" y="184" width="7" height="7" style="fill:white"/>
<rect x="80" y="184" width="7" height="7" style="fill:white"/>
<rect x="88" y="184" width="7" height="7" style="fill:white"/>
<rect x="104" y="184" width="7" height="7" style="fill:white"/>
<rect x="344" y="184" width="7" height="7" style="fill:white"/>
<rect x="0" y="192" width="7" height="7" style="fill:white"/>
<rect x="344" y="192" width="7" height="7" style="fill:white"/>
<rect x="0" y="200" width="7" height="7" style="fill:white"/>
<rect x="344" y="200" width="7" height="7" style="fill:white"/>
<rect x="0" y="208" width="7" height="7" style="fill:white"/>
<rect x="16" y="208" width="7" height="7" style="fill:white"/>
<rect x="24" y="208" width="7" height="7" style="fill:white"/>
<rect x="48" y="208" width="7" height="7" style="fill:white"/>
<rect x="56" y="208" width="7" height="7" style="fill:white"/>
<rect x="80" y="208" width="7" height="7" style="fill:white"/>
<rect x="88" y="208" width="7" height="7" style="fill:white"/>
<rect x="96" y="208" width="7" height="7" style="fill:white"/>
<rect x="104" y="208" width="7" height="7" style="fill:white"/>
<rect x="136" y="208" width="7" height="7" style="fill:white"/>
<rect x="144" y="208" width="7" height="7" style="fill:white"/>
<rect x="176" y="208" width="7" height="7" style="fill:white"/>
<rect x="184" y="208" width="7" height="7" style="fill:white"/>
<rect x="240" y="208" width="7" height="7" style="fill:white"/>
<rect x="248" y="208" width="7" height="7" style="fill:white"/>
<rect x="256" y="208" width="7" height="7" style="fill:white"/>
<rect x="320" y="208" width="7" height="7" style="fill:white"/>
<rect x="328" y="208" width="7" height="7" style="fill:white"/>
<rect x="344" y="208" width="7" height="7" style="fill:white"/>
<rect x="0" y="216" width="7" height="7" style="fill:white"/>
<rect x="16" y="216" width="7" height="7" style="fill:white"/>
<rect x="48" y="216" width="7" height="7" style="fill:white"/>
<rect x="80" y="216" width="7" height="7" style="fill:white"/>
<rect x="88" y="216" width="7" height="7" style="fill:white"/>
<rect x="104" y="216" width="7" height="7" style="fill:white"/>
<rect x="128" y="216" width="7" height="7" style="fill:white"/>
<rect x="144" y="216" width="7" height="7" style="fill:white"/>
<rect x="168" y="216" width="7" height="7" style="fill:white"/>
<rect x="176" y="216" width="7" height="7" style="fill:white"/>
<rect x="184" y="216" width="7" height="7" style="fill:white"/>
<rect x="240" y="216" width="7" height="7" style="fill:white"/>
<rect x="312" y="216" width="7" height="7" style="fill:white"/>
<rect x="320" y="216" width="7" height="7" style="fill:white"/>
<rect x="344" y="216" width="7" height="7" style="fill:white"/>
<rect x="0" y="224" width="7" height="7" style="fill:white"/>
<rect x="80" y="224" width="7" height="7" style="fill:white"/>
<rect x="88" y="224" width="7" height="7" style="fill:white"/>
<rect x="104" y="224" width="7" height="7" style="fill:white"/>
<rect x="128" y="224" width="7" height="7" style="fill:white"/>
<rect x="168" y="224" width="7" height="7" style="fill:white"/>
<rect x="240" y="224" width="7" height="7" style="fill:white"/>
<rect x="248" y="224" width="7" height="7" style="fill:white"/>
<rect x="256" y="224" width="7" height="7" style="fill:white"/>
<rect x="312" y="224" width="7" height="7" style="fill:white"/>
<rect x="320" y="224" width="7" height="7" style="fill:white"/>
<rect x="344" y="224" width="7" height="7" style="fill:white"/>
<rect x="0" y="232" width="7" height="7" style="fill:white"/>
<rect x="80" y="232" width="7" height="7" style="fill:white"/>
<rect x="88" y="232" width="7" height="7" style="fill:white"/>
<rect x="104" y="232" width="7" height="7" style="fill:white"/>
<rect x="344" y="232" width="7" height="7" style="fill:white"/>
<rect x="0" y="240" width="7" height="7" style="fill:white"/>
<rect x="344" y="240" width="7" height="7" style="fill:white"/>
<rect x="0" y="248" width="7" height="7" style="fill:white"/>
<rect x="344" y="248" width="7" height="7" style="fill:white"/>
<rect x="0" y="256" width="7" height="7" style="fill:white"/>
<rect x="16" y="256" width="7" height="7" style="fill:white"/>
<rect x="24" y="256" width="7" height="7" style="fill:white"/>
<rect x="48" y="256" width="7" height="7" style="fill:white"/>
<rect x="56" y="256" width="7" height="7" style="fill:white"/>
<rect x="80" y="256" width="7" height="7" style="fill:white"/>
<rect x="88" y="256" width="7" height="7" style="fill:white"/>
<rect x="96" y="256" width="7" height="7" style="fill:white"/>
<rect x="104" y="256" width="7" height="7" style="fill:white"/>
<rect x="136" y="256" width="7" height="7" style="fill:white"/>
<rect x="144" y="256" width="7" height="7" style="fill:white"/>
<rect x="176" y="256" width="7" height="7" style="fill:white"/>
<rect x="184" y="256" width="7" height="7" style="fill:white"/>
<rect x="240" y="256" width="7" height="7" style="fill:white"/>
<rect x="248" y="256" width="7" height="7" style="fill:white"/>
<rect x="256" y="256" width="7" height="7" style="fill:white"/>
<rect x="320" y="256" width="7" height="7" style="fill:white"/>
<rect x="328" y="256" width="7" height="7" style="fill:white"/>
<rect x="344" y="256" width="7" height="7" style="fill:white"/>
<rect x="0" y="264" width="7" height="7" style="fill:white"/>
<rect x="16" y="264" width="7" height="7" style="fill:white"/>
<rect x="48" y="264" width="7" height="7" style="fill:white"/>
<rect x="80" y="264" width="7" height="7" style="fill:white"/>
<rect x="88" y="264" width="7" height="7" style="fill:white"/>
<rect x="104" y="264" width="7" height="7" style="fill:white"/>
<rect x="128" y="264" width="7" height="7" style="fill:white"/>
<rect x="136" y="264" width="7" height="7" style="fill:white"/>
<rect x="144" y="264" width="7" height="7" style="fill:white"/>
<rect x="168" y="264" width="7" height="7" style="fill:white"/>
<rect x="176" y="264" width="7" height="7" style="fill:white"/>
<rect x="240" y="264" width="7" height="7" style="fill:white"/>
<rect x="312" y="264" width="7" height="7" style="fill:white"/>
<rect x="344" y="264" width="7" height="7" style="fill:white"/>
<rect x="0" y="272" width="7" height="7" style="fill:white"/>
<rect x="80" y="272" width="7" height="7" style="fill:white"/>
<rect x="88" y="272" width="7" height="7" style="fill:white"/>
<rect x="104" y="272" width="7" height="7" style="fill:white"/>
<rect x="128" y="272" width="7" height="7" style="fill:white"/>
<rect x="168" y="272" width="7" height="7" style="fill:white"/>
<rect x="176" y="272" width="7" height="7" style="fill:white"/>
<rect x="240" y="272" width="7" height="7" style="fill:white"/>
<rect x="248" y="272" width="7" height="7" style="fill:white"/>
<rect x="256" y="272" width="7" height="7" style="fill:white"/>
<rect x="312" y="272" width="7" height="7" style="fill:white"/>
<rect x="328" y="272" width="7" height="7" style="fill:white"/>
<rect x="344" y="272" width="7" height="7" style="fill:white"/>
<rect x="0" y="280" width="7" height="7" style="fill:white"/>
<rect x="80" y="280" width="7" height="7" style="fill:white"/>
<rect x="88" y="280" width="7" height="7" style="fill:white"/>
<rect x="104" y="280" width="7" height="7" style="fill:white"/>
<rect x="344" y="280" width="7" height="7" style="fill:white"/>
<rect x="0" y="288" width="7" height="7" style="fill:white"/>
<rect x="344" y="288" width="7" height="7" style="fill:white"/>
<rect x="0" y="296" width="7" height="7" style="fill:white"/>
<rect x="344" y="296" width="7" height="7" style="fill:white"/>
<rect x="0" y="304" width="7" height="7" style="fill:white"/>
<rect x="344" y="304" width="7" height="7" style="fill:white"/>
<rect x="0" y="312" width="7" height="7" style="fill:white"/>
<rect x="16" y="312" width="7" height="7" style="fill:white"/>
<rect x="32" y="312" width="7" height="7" style="fill:white"/>
<rect x="48" y="312" width="7" height="7" style="fill:white"/>
<rect x="64" y="312" width="7" height="7" style="fill:white"/>
<rect x="344" y="312" width="7" height="7" style="fill:white"/>
<rect x="0" y="320" width="7" height="7" style="fill:white"/>
<rect x="344" y="320" width="7" height="7" style="fill:white"/>
<rect x="0" y="328" width="7" height="7" style="fill:white"/>
<rect x="8" y="328" width="7" height="7" style="fill:white"/>
<rect x="16" y="328" width="7" height="7" style="fill:white"/>
<rect x="24" y="328" width="7" height="7" style="fill:white"/>
<rect x="32" y="328" width="7" height="7" style="fill:white"/>
<rect x="40" y="328" width="7" height="7" style="fill:white"/>
<rect x="48" y="328" width="7" height="7" style="fill:white"/>
<rect x="56" y="328" width="7" height="7" style="fill:white"/>
<rect x="64" y="328" width="7" height="7" style="fill:white"/>
<rect x="72" y="328" width="7" height="7" style="fill:white"/>
<rect x="80" y="328" width="7" height="7" style="fill:white"/>
<rect x="88" y="328" width="7" height="7" style="fill:white"/>
<rect x="96" y="328" width="7" height="7" style="fill:white"/>
<rect x="104" y="328" width="7" height="7" style="fill:white"/>
<rect x="112" y="328" width="7" height="7" style="fill:white"/>
<rect x="120" y="328" width="7" height="7" style="fill:white"/>
<rect x="128" y="328" width="7" height="7" style="fill:white"/>
<rect x="136" y="328" width="7" height="7" style="fill:white"/>
<rect x="144" y="328" width="7" height="7" style="fill:white"/>
<rect x="152" y="328" width="7" height="7" style="fill:white"/>
<rect x="160" y="328" width="7" height="7" style="fill:white"/>
<rect x="168" y="328" width="7" height="7" style="fill:white"/>
<rect x="176" y="328" width="7" height="7" style="fill:white"/>
<rect x="184" y="328" width="7" height="7" style="fill:white"/>
<rect x="192" y="328" width="7" height="7" style="fill:white"/>
<rect x="200" y="328" width="7" height="7" style="fill:white"/>
<rect x="208" y="328" width="7" height="7" style="fill:white"/>
<rect x="216" y="328" width="7" height="7" style="fill:white"/>
<rect x="224" y="328" width="7" height="7" style="fill:white"/>
<rect x="232" y="328" width="7" height="7" style="fill:white"/>
<rect x="240" y="328" width="7" height="7" style="fill:white"/>
<rect x="248" y="328" width="7" height="7" style="fill:white"/>
<rect x="256" y="328" width="7" height="7" style="fill:white"/>
<rect x="264" y="328" width="7" height="7" style="fill:white"/>
<rect x="272" y="328" width="7" height="7" style="fill:white"/>
<rect x="280" y="328" width="7" height="7" style="fill:white"/>
<rect x="288" y="328" width="7" height="7" style="fill:white"/>
<rect x="296" y="328" width="7" height="7" style="fill:white"/>
<rect x="304" y="328" width="7" height="7" style="fill:white"/>
<rect x="312" y="328" width="7" height="7" style="fill:white"/>
<rect x="320" y="328" width="7" height="7" style="fill:white"/>
<rect x="328" y="328" width="7" height="7" style="fill:white"/>
<rect x="336" y="328" width="7" height="7" style="fill:white"/>
<rect x="344" y="328" width="7" height="7" style="fill:white"/>
<rect x="124.0" y="60.0" width="24" height="24" style="fill:green;opacity:0.5"/>
<text x="136.0" y="72.0" dominant-baseline="middle" text-anchor="middle" fill="white" style="paint-order: stroke; fill: white; stroke: black; stroke-width: 2px; font:24px bold sans;">1</text>
<rect x="156.0" y="60.0" width="32" height="32" style="fill:green;opacity:0.5"/>
<text x="172.0" y="76.0" dominant-baseline="middle" text-anchor="middle" fill="white" style="paint-order: stroke; fill: white; stroke: black; stroke-width: 2px; font:24px bold sans;">2</text>
<rect x="300.0" y="60.0" width="32" height="32" style="fill:green;opacity:0.5"/>
<text x="316.0" y="76.0" dominant-baseline="middle" text-anchor="middle" fill="white" style="paint-order: stroke; fill: white; stroke: black; stroke-width: 2px; font:24px bold sans;">3</text>
<rect x="124.0" y="108.0" width="32" height="32" style="fill:green;opacity:0.5"/>
<text x="140.0" y="124.0" dominant-baseline="middle" text-anchor="middle" fill="white" style="paint-order: stroke; fill: white; stroke: black; stroke-width: 2px; font:24px bold sans;">2</text>
<rect x="164.0" y="108.0" width="24" height="24" style="fill:green;opacity:0.5"/>
<text x="176.0" y="120.0" dominant-baseline="middle" text-anchor="middle" fill="white" style="paint-order: stroke; fill: white; stroke: black; stroke-width: 2px; font:24px bold sans;">1</text>
<rect x="300.0" y="108.0" width="32" height="32" style="fill:green;opacity:0.5"/>
<text x="316.0" y="124.0" dominant-baseline="middle" text-anchor="middle" fill="white" style="paint-order: stroke; fill: white; stroke: black; stroke-width: 2px; font:24px bold sans;">3</text>
<rect x="124.0" y="156.0" width="24" height="24" style="fill:green;opacity:0.5"/>
<text x="136.0" y="168.0" dominant-baseline="middle" text-anchor="middle" fill="white" style="paint-order: stroke; fill: white; stroke: black; stroke-width: 2px; font:24px bold sans;">0</text>
<rect x="156.0" y="156.0" width="24" height="24" style="fill:green;opacity:0.5"/>
<text x="168.0" y="168.0" dominant-baseline="middle" text-anchor="middle" fill="white" style="paint-order: stroke; fill: white; stroke: black; stroke-width: 2px; font:24px bold sans;">1</text>
<rect x="292.0" y="156.0" width="24" height="24" style="fill:green;opacity:0.5"/>
<text x="304.0" y="168.0" dominant-baseline="middle" text-anchor="middle" fill="white" style="paint-order: stroke; fill: white; stroke: black; stroke-width: 2px; font:24px bold sans;">1</text>
<rect x="124.0" y="204.0" width="32" height="32" style="fill:green;opacity:0.5"/>
<text x="140.0" y="220.0" dominant-baseline="middle" text-anchor="middle" fill="white" style="paint-order: stroke; fill: white; stroke: black; stroke-width: 2px; font:24px bold sans;">2</text>
<rect x="164.0" y="204.0" width="32" height="32" style="fill:green;opacity:0.5"/>
<text x="180.0" y="220.0" dominant-baseline="middle" text-anchor="middle" fill="white" style="paint-order: stroke; fill: white; stroke: black; stroke-width: 2px; font:24px bold sans;">3</text>
<rect x="308.0" y="204.0" width="32" height="32" style="fill:green;opacity:0.5"/>
<text x="324.0" y="220.0" dominant-baseline="middle" text-anchor="middle" fill="white" style="paint-order: stroke; fill: white; stroke: black; stroke-width: 2px; font:24px bold sans;">5</text>
<rect x="124.0" y="252.0" width="32" height="32" style="fill:green;opacity:0.5"/>
<text x="140.0" y="268.0" dominant-baseline="middle" text-anchor="middle" fill="white" style="paint-order: stroke; fill: white; stroke: black; stroke-width: 2px; font:24px bold sans;">3</text>
<rect x="164.0" y="252.0" width="32" height="32" style="fill:green;opacity:0.5"/>
<text x="180.0" y="268.0" dominant-baseline="middle" text-anchor="middle" fill="white" style="paint-order: stroke; fill: white; stroke: black; stroke-width: 2px; font:24px bold sans;">5</text>
<rect x="308.0" y="252.0" width="32" height="32" style="fill:green;opacity:0.5"/>
<text x="324.0" y="268.0" dominant-baseline="middle" text-anchor="middle" fill="white" style="paint-order: stroke; fill: white; stroke: black; stroke-width: 2px; font:24px bold sans;">8</text>
</svg>
